G04 #@! TF.GenerationSoftware,KiCad,Pcbnew,7.0.10-7.0.10~ubuntu22.04.1*
G04 #@! TF.CreationDate,2024-07-17T19:08:49+02:00*
G04 #@! TF.ProjectId,prototype_adc2,70726f74-6f74-4797-9065-5f616463322e,rev?*
G04 #@! TF.SameCoordinates,Original*
G04 #@! TF.FileFunction,Legend,Top*
G04 #@! TF.FilePolarity,Positive*
%FSLAX46Y46*%
G04 Gerber Fmt 4.6, Leading zero omitted, Abs format (unit mm)*
G04 Created by KiCad (PCBNEW 7.0.10-7.0.10~ubuntu22.04.1) date 2024-07-17 19:08:49*
%MOMM*%
%LPD*%
G01*
G04 APERTURE LIST*
G04 Aperture macros list*
%AMRoundRect*
0 Rectangle with rounded corners*
0 $1 Rounding radius*
0 $2 $3 $4 $5 $6 $7 $8 $9 X,Y pos of 4 corners*
0 Add a 4 corners polygon primitive as box body*
4,1,4,$2,$3,$4,$5,$6,$7,$8,$9,$2,$3,0*
0 Add four circle primitives for the rounded corners*
1,1,$1+$1,$2,$3*
1,1,$1+$1,$4,$5*
1,1,$1+$1,$6,$7*
1,1,$1+$1,$8,$9*
0 Add four rect primitives between the rounded corners*
20,1,$1+$1,$2,$3,$4,$5,0*
20,1,$1+$1,$4,$5,$6,$7,0*
20,1,$1+$1,$6,$7,$8,$9,0*
20,1,$1+$1,$8,$9,$2,$3,0*%
G04 Aperture macros list end*
%ADD10C,0.200000*%
%ADD11C,0.120000*%
%ADD12C,0.127000*%
%ADD13C,0.010000*%
%ADD14RoundRect,0.200000X-0.200000X-0.275000X0.200000X-0.275000X0.200000X0.275000X-0.200000X0.275000X0*%
%ADD15C,2.000000*%
%ADD16C,1.627000*%
%ADD17C,1.500000*%
%ADD18RoundRect,0.200000X0.200000X0.275000X-0.200000X0.275000X-0.200000X-0.275000X0.200000X-0.275000X0*%
%ADD19RoundRect,0.102000X0.600000X1.250000X-0.600000X1.250000X-0.600000X-1.250000X0.600000X-1.250000X0*%
%ADD20RoundRect,0.063500X0.760000X-1.525000X0.760000X1.525000X-0.760000X1.525000X-0.760000X-1.525000X0*%
%ADD21RoundRect,0.225000X-0.225000X-0.250000X0.225000X-0.250000X0.225000X0.250000X-0.225000X0.250000X0*%
%ADD22RoundRect,0.116000X0.116000X-0.416000X0.116000X0.416000X-0.116000X0.416000X-0.116000X-0.416000X0*%
%ADD23RoundRect,0.116000X-0.116000X0.416000X-0.116000X-0.416000X0.116000X-0.416000X0.116000X0.416000X0*%
%ADD24RoundRect,0.102000X-1.200000X0.700000X-1.200000X-0.700000X1.200000X-0.700000X1.200000X0.700000X0*%
%ADD25RoundRect,0.200000X-0.275000X0.200000X-0.275000X-0.200000X0.275000X-0.200000X0.275000X0.200000X0*%
%ADD26O,1.651000X3.175000*%
%ADD27O,3.175000X1.651000*%
%ADD28RoundRect,0.225000X0.225000X0.250000X-0.225000X0.250000X-0.225000X-0.250000X0.225000X-0.250000X0*%
%ADD29RoundRect,0.225000X-0.250000X0.225000X-0.250000X-0.225000X0.250000X-0.225000X0.250000X0.225000X0*%
G04 APERTURE END LIST*
D10*
X132334000Y-101346000D02*
X132334000Y-103378000D01*
X136652000Y-103124000D02*
X136652000Y-105156000D01*
X136652000Y-95504000D02*
X136652000Y-97536000D01*
X132334000Y-88646000D02*
X132334000Y-93218000D01*
X155104495Y-87190054D02*
X155104495Y-87666244D01*
X154818780Y-87094816D02*
X155818780Y-87428149D01*
X155818780Y-87428149D02*
X154818780Y-87761482D01*
X155104495Y-88047197D02*
X155104495Y-88523387D01*
X154818780Y-87951959D02*
X155818780Y-88285292D01*
X155818780Y-88285292D02*
X154818780Y-88618625D01*
X154818780Y-89094816D02*
X154866400Y-88999578D01*
X154866400Y-88999578D02*
X154914019Y-88951959D01*
X154914019Y-88951959D02*
X155009257Y-88904340D01*
X155009257Y-88904340D02*
X155294971Y-88904340D01*
X155294971Y-88904340D02*
X155390209Y-88951959D01*
X155390209Y-88951959D02*
X155437828Y-88999578D01*
X155437828Y-88999578D02*
X155485447Y-89094816D01*
X155485447Y-89094816D02*
X155485447Y-89237673D01*
X155485447Y-89237673D02*
X155437828Y-89332911D01*
X155437828Y-89332911D02*
X155390209Y-89380530D01*
X155390209Y-89380530D02*
X155294971Y-89428149D01*
X155294971Y-89428149D02*
X155009257Y-89428149D01*
X155009257Y-89428149D02*
X154914019Y-89380530D01*
X154914019Y-89380530D02*
X154866400Y-89332911D01*
X154866400Y-89332911D02*
X154818780Y-89237673D01*
X154818780Y-89237673D02*
X154818780Y-89094816D01*
X155485447Y-89713864D02*
X155485447Y-90094816D01*
X154818780Y-89856721D02*
X155675923Y-89856721D01*
X155675923Y-89856721D02*
X155771161Y-89904340D01*
X155771161Y-89904340D02*
X155818780Y-89999578D01*
X155818780Y-89999578D02*
X155818780Y-90094816D01*
X155485447Y-90285293D02*
X155485447Y-90666245D01*
X154818780Y-90428150D02*
X155675923Y-90428150D01*
X155675923Y-90428150D02*
X155771161Y-90475769D01*
X155771161Y-90475769D02*
X155818780Y-90571007D01*
X155818780Y-90571007D02*
X155818780Y-90666245D01*
X139514054Y-86179600D02*
X139656911Y-86227219D01*
X139656911Y-86227219D02*
X139895006Y-86227219D01*
X139895006Y-86227219D02*
X139990244Y-86179600D01*
X139990244Y-86179600D02*
X140037863Y-86131980D01*
X140037863Y-86131980D02*
X140085482Y-86036742D01*
X140085482Y-86036742D02*
X140085482Y-85941504D01*
X140085482Y-85941504D02*
X140037863Y-85846266D01*
X140037863Y-85846266D02*
X139990244Y-85798647D01*
X139990244Y-85798647D02*
X139895006Y-85751028D01*
X139895006Y-85751028D02*
X139704530Y-85703409D01*
X139704530Y-85703409D02*
X139609292Y-85655790D01*
X139609292Y-85655790D02*
X139561673Y-85608171D01*
X139561673Y-85608171D02*
X139514054Y-85512933D01*
X139514054Y-85512933D02*
X139514054Y-85417695D01*
X139514054Y-85417695D02*
X139561673Y-85322457D01*
X139561673Y-85322457D02*
X139609292Y-85274838D01*
X139609292Y-85274838D02*
X139704530Y-85227219D01*
X139704530Y-85227219D02*
X139942625Y-85227219D01*
X139942625Y-85227219D02*
X140085482Y-85274838D01*
X140466435Y-85941504D02*
X140942625Y-85941504D01*
X140371197Y-86227219D02*
X140704530Y-85227219D01*
X140704530Y-85227219D02*
X141037863Y-86227219D01*
X135102019Y-99493101D02*
X135054400Y-99445482D01*
X135054400Y-99445482D02*
X135006780Y-99302625D01*
X135006780Y-99302625D02*
X135006780Y-99207387D01*
X135006780Y-99207387D02*
X135054400Y-99064530D01*
X135054400Y-99064530D02*
X135149638Y-98969292D01*
X135149638Y-98969292D02*
X135244876Y-98921673D01*
X135244876Y-98921673D02*
X135435352Y-98874054D01*
X135435352Y-98874054D02*
X135578209Y-98874054D01*
X135578209Y-98874054D02*
X135768685Y-98921673D01*
X135768685Y-98921673D02*
X135863923Y-98969292D01*
X135863923Y-98969292D02*
X135959161Y-99064530D01*
X135959161Y-99064530D02*
X136006780Y-99207387D01*
X136006780Y-99207387D02*
X136006780Y-99302625D01*
X136006780Y-99302625D02*
X135959161Y-99445482D01*
X135959161Y-99445482D02*
X135911542Y-99493101D01*
X135054400Y-99874054D02*
X135006780Y-100016911D01*
X135006780Y-100016911D02*
X135006780Y-100255006D01*
X135006780Y-100255006D02*
X135054400Y-100350244D01*
X135054400Y-100350244D02*
X135102019Y-100397863D01*
X135102019Y-100397863D02*
X135197257Y-100445482D01*
X135197257Y-100445482D02*
X135292495Y-100445482D01*
X135292495Y-100445482D02*
X135387733Y-100397863D01*
X135387733Y-100397863D02*
X135435352Y-100350244D01*
X135435352Y-100350244D02*
X135482971Y-100255006D01*
X135482971Y-100255006D02*
X135530590Y-100064530D01*
X135530590Y-100064530D02*
X135578209Y-99969292D01*
X135578209Y-99969292D02*
X135625828Y-99921673D01*
X135625828Y-99921673D02*
X135721066Y-99874054D01*
X135721066Y-99874054D02*
X135816304Y-99874054D01*
X135816304Y-99874054D02*
X135911542Y-99921673D01*
X135911542Y-99921673D02*
X135959161Y-99969292D01*
X135959161Y-99969292D02*
X136006780Y-100064530D01*
X136006780Y-100064530D02*
X136006780Y-100302625D01*
X136006780Y-100302625D02*
X135959161Y-100445482D01*
X137673733Y-90031673D02*
X137673733Y-90793578D01*
X137292780Y-90412625D02*
X138054685Y-90412625D01*
X138292780Y-91745958D02*
X138292780Y-91269768D01*
X138292780Y-91269768D02*
X137816590Y-91222149D01*
X137816590Y-91222149D02*
X137864209Y-91269768D01*
X137864209Y-91269768D02*
X137911828Y-91365006D01*
X137911828Y-91365006D02*
X137911828Y-91603101D01*
X137911828Y-91603101D02*
X137864209Y-91698339D01*
X137864209Y-91698339D02*
X137816590Y-91745958D01*
X137816590Y-91745958D02*
X137721352Y-91793577D01*
X137721352Y-91793577D02*
X137483257Y-91793577D01*
X137483257Y-91793577D02*
X137388019Y-91745958D01*
X137388019Y-91745958D02*
X137340400Y-91698339D01*
X137340400Y-91698339D02*
X137292780Y-91603101D01*
X137292780Y-91603101D02*
X137292780Y-91365006D01*
X137292780Y-91365006D02*
X137340400Y-91269768D01*
X137340400Y-91269768D02*
X137388019Y-91222149D01*
X138292780Y-92079292D02*
X137292780Y-92412625D01*
X137292780Y-92412625D02*
X138292780Y-92745958D01*
X135102019Y-94413101D02*
X135054400Y-94365482D01*
X135054400Y-94365482D02*
X135006780Y-94222625D01*
X135006780Y-94222625D02*
X135006780Y-94127387D01*
X135006780Y-94127387D02*
X135054400Y-93984530D01*
X135054400Y-93984530D02*
X135149638Y-93889292D01*
X135149638Y-93889292D02*
X135244876Y-93841673D01*
X135244876Y-93841673D02*
X135435352Y-93794054D01*
X135435352Y-93794054D02*
X135578209Y-93794054D01*
X135578209Y-93794054D02*
X135768685Y-93841673D01*
X135768685Y-93841673D02*
X135863923Y-93889292D01*
X135863923Y-93889292D02*
X135959161Y-93984530D01*
X135959161Y-93984530D02*
X136006780Y-94127387D01*
X136006780Y-94127387D02*
X136006780Y-94222625D01*
X136006780Y-94222625D02*
X135959161Y-94365482D01*
X135959161Y-94365482D02*
X135911542Y-94413101D01*
X135006780Y-94841673D02*
X136006780Y-94841673D01*
X135006780Y-95413101D02*
X135578209Y-94984530D01*
X136006780Y-95413101D02*
X135435352Y-94841673D01*
X135006780Y-97143673D02*
X136006780Y-97143673D01*
X136006780Y-97143673D02*
X136006780Y-97381768D01*
X136006780Y-97381768D02*
X135959161Y-97524625D01*
X135959161Y-97524625D02*
X135863923Y-97619863D01*
X135863923Y-97619863D02*
X135768685Y-97667482D01*
X135768685Y-97667482D02*
X135578209Y-97715101D01*
X135578209Y-97715101D02*
X135435352Y-97715101D01*
X135435352Y-97715101D02*
X135244876Y-97667482D01*
X135244876Y-97667482D02*
X135149638Y-97619863D01*
X135149638Y-97619863D02*
X135054400Y-97524625D01*
X135054400Y-97524625D02*
X135006780Y-97381768D01*
X135006780Y-97381768D02*
X135006780Y-97143673D01*
X159230816Y-85481219D02*
X159802244Y-85481219D01*
X159516530Y-86481219D02*
X159516530Y-85481219D01*
X160135578Y-86481219D02*
X160135578Y-85481219D01*
X160564149Y-86195504D02*
X161040339Y-86195504D01*
X160468911Y-86481219D02*
X160802244Y-85481219D01*
X160802244Y-85481219D02*
X161135577Y-86481219D01*
X137673733Y-100191673D02*
X137673733Y-100953578D01*
X138292780Y-101905958D02*
X138292780Y-101429768D01*
X138292780Y-101429768D02*
X137816590Y-101382149D01*
X137816590Y-101382149D02*
X137864209Y-101429768D01*
X137864209Y-101429768D02*
X137911828Y-101525006D01*
X137911828Y-101525006D02*
X137911828Y-101763101D01*
X137911828Y-101763101D02*
X137864209Y-101858339D01*
X137864209Y-101858339D02*
X137816590Y-101905958D01*
X137816590Y-101905958D02*
X137721352Y-101953577D01*
X137721352Y-101953577D02*
X137483257Y-101953577D01*
X137483257Y-101953577D02*
X137388019Y-101905958D01*
X137388019Y-101905958D02*
X137340400Y-101858339D01*
X137340400Y-101858339D02*
X137292780Y-101763101D01*
X137292780Y-101763101D02*
X137292780Y-101525006D01*
X137292780Y-101525006D02*
X137340400Y-101429768D01*
X137340400Y-101429768D02*
X137388019Y-101382149D01*
X138292780Y-102239292D02*
X137292780Y-102572625D01*
X137292780Y-102572625D02*
X138292780Y-102905958D01*
X144182495Y-86936054D02*
X144182495Y-87412244D01*
X143896780Y-86840816D02*
X144896780Y-87174149D01*
X144896780Y-87174149D02*
X143896780Y-87507482D01*
X144182495Y-87793197D02*
X144182495Y-88269387D01*
X143896780Y-87697959D02*
X144896780Y-88031292D01*
X144896780Y-88031292D02*
X143896780Y-88364625D01*
X143896780Y-88840816D02*
X143944400Y-88745578D01*
X143944400Y-88745578D02*
X143992019Y-88697959D01*
X143992019Y-88697959D02*
X144087257Y-88650340D01*
X144087257Y-88650340D02*
X144372971Y-88650340D01*
X144372971Y-88650340D02*
X144468209Y-88697959D01*
X144468209Y-88697959D02*
X144515828Y-88745578D01*
X144515828Y-88745578D02*
X144563447Y-88840816D01*
X144563447Y-88840816D02*
X144563447Y-88983673D01*
X144563447Y-88983673D02*
X144515828Y-89078911D01*
X144515828Y-89078911D02*
X144468209Y-89126530D01*
X144468209Y-89126530D02*
X144372971Y-89174149D01*
X144372971Y-89174149D02*
X144087257Y-89174149D01*
X144087257Y-89174149D02*
X143992019Y-89126530D01*
X143992019Y-89126530D02*
X143944400Y-89078911D01*
X143944400Y-89078911D02*
X143896780Y-88983673D01*
X143896780Y-88983673D02*
X143896780Y-88840816D01*
X144563447Y-89602721D02*
X143896780Y-89602721D01*
X144468209Y-89602721D02*
X144515828Y-89650340D01*
X144515828Y-89650340D02*
X144563447Y-89745578D01*
X144563447Y-89745578D02*
X144563447Y-89888435D01*
X144563447Y-89888435D02*
X144515828Y-89983673D01*
X144515828Y-89983673D02*
X144420590Y-90031292D01*
X144420590Y-90031292D02*
X143896780Y-90031292D01*
X135292495Y-88460054D02*
X135292495Y-88936244D01*
X135006780Y-88364816D02*
X136006780Y-88698149D01*
X136006780Y-88698149D02*
X135006780Y-89031482D01*
X135886142Y-103700054D02*
X135933761Y-103747673D01*
X135933761Y-103747673D02*
X135981380Y-103842911D01*
X135981380Y-103842911D02*
X135981380Y-104081006D01*
X135981380Y-104081006D02*
X135933761Y-104176244D01*
X135933761Y-104176244D02*
X135886142Y-104223863D01*
X135886142Y-104223863D02*
X135790904Y-104271482D01*
X135790904Y-104271482D02*
X135695666Y-104271482D01*
X135695666Y-104271482D02*
X135552809Y-104223863D01*
X135552809Y-104223863D02*
X134981380Y-103652435D01*
X134981380Y-103652435D02*
X134981380Y-104271482D01*
X135648047Y-105128625D02*
X134981380Y-105128625D01*
X136029000Y-104890530D02*
X135314714Y-104652435D01*
X135314714Y-104652435D02*
X135314714Y-105271482D01*
X135981380Y-105509578D02*
X134981380Y-105842911D01*
X134981380Y-105842911D02*
X135981380Y-106176244D01*
X149934333Y-101315219D02*
X149601000Y-100839028D01*
X149362905Y-101315219D02*
X149362905Y-100315219D01*
X149362905Y-100315219D02*
X149743857Y-100315219D01*
X149743857Y-100315219D02*
X149839095Y-100362838D01*
X149839095Y-100362838D02*
X149886714Y-100410457D01*
X149886714Y-100410457D02*
X149934333Y-100505695D01*
X149934333Y-100505695D02*
X149934333Y-100648552D01*
X149934333Y-100648552D02*
X149886714Y-100743790D01*
X149886714Y-100743790D02*
X149839095Y-100791409D01*
X149839095Y-100791409D02*
X149743857Y-100839028D01*
X149743857Y-100839028D02*
X149362905Y-100839028D01*
X150267667Y-100315219D02*
X150934333Y-100315219D01*
X150934333Y-100315219D02*
X150505762Y-101315219D01*
X140204219Y-104291428D02*
X139204219Y-104291428D01*
X139204219Y-104291428D02*
X139918504Y-103958095D01*
X139918504Y-103958095D02*
X139204219Y-103624762D01*
X139204219Y-103624762D02*
X140204219Y-103624762D01*
X139680409Y-103148571D02*
X139680409Y-102815238D01*
X140204219Y-102672381D02*
X140204219Y-103148571D01*
X140204219Y-103148571D02*
X139204219Y-103148571D01*
X139204219Y-103148571D02*
X139204219Y-102672381D01*
X139918504Y-102291428D02*
X139918504Y-101815238D01*
X140204219Y-102386666D02*
X139204219Y-102053333D01*
X139204219Y-102053333D02*
X140204219Y-101720000D01*
X140204219Y-100862857D02*
X140204219Y-101434285D01*
X140204219Y-101148571D02*
X139204219Y-101148571D01*
X139204219Y-101148571D02*
X139347076Y-101243809D01*
X139347076Y-101243809D02*
X139442314Y-101339047D01*
X139442314Y-101339047D02*
X139489933Y-101434285D01*
X140204219Y-100434285D02*
X139204219Y-100434285D01*
X139204219Y-100434285D02*
X139204219Y-100196190D01*
X139204219Y-100196190D02*
X139251838Y-100053333D01*
X139251838Y-100053333D02*
X139347076Y-99958095D01*
X139347076Y-99958095D02*
X139442314Y-99910476D01*
X139442314Y-99910476D02*
X139632790Y-99862857D01*
X139632790Y-99862857D02*
X139775647Y-99862857D01*
X139775647Y-99862857D02*
X139966123Y-99910476D01*
X139966123Y-99910476D02*
X140061361Y-99958095D01*
X140061361Y-99958095D02*
X140156600Y-100053333D01*
X140156600Y-100053333D02*
X140204219Y-100196190D01*
X140204219Y-100196190D02*
X140204219Y-100434285D01*
X139299457Y-99481904D02*
X139251838Y-99434285D01*
X139251838Y-99434285D02*
X139204219Y-99339047D01*
X139204219Y-99339047D02*
X139204219Y-99100952D01*
X139204219Y-99100952D02*
X139251838Y-99005714D01*
X139251838Y-99005714D02*
X139299457Y-98958095D01*
X139299457Y-98958095D02*
X139394695Y-98910476D01*
X139394695Y-98910476D02*
X139489933Y-98910476D01*
X139489933Y-98910476D02*
X139632790Y-98958095D01*
X139632790Y-98958095D02*
X140204219Y-99529523D01*
X140204219Y-99529523D02*
X140204219Y-98910476D01*
X139537552Y-98053333D02*
X140204219Y-98053333D01*
X139156600Y-98291428D02*
X139870885Y-98529523D01*
X139870885Y-98529523D02*
X139870885Y-97910476D01*
X139204219Y-97339047D02*
X139204219Y-97243809D01*
X139204219Y-97243809D02*
X139251838Y-97148571D01*
X139251838Y-97148571D02*
X139299457Y-97100952D01*
X139299457Y-97100952D02*
X139394695Y-97053333D01*
X139394695Y-97053333D02*
X139585171Y-97005714D01*
X139585171Y-97005714D02*
X139823266Y-97005714D01*
X139823266Y-97005714D02*
X140013742Y-97053333D01*
X140013742Y-97053333D02*
X140108980Y-97100952D01*
X140108980Y-97100952D02*
X140156600Y-97148571D01*
X140156600Y-97148571D02*
X140204219Y-97243809D01*
X140204219Y-97243809D02*
X140204219Y-97339047D01*
X140204219Y-97339047D02*
X140156600Y-97434285D01*
X140156600Y-97434285D02*
X140108980Y-97481904D01*
X140108980Y-97481904D02*
X140013742Y-97529523D01*
X140013742Y-97529523D02*
X139823266Y-97577142D01*
X139823266Y-97577142D02*
X139585171Y-97577142D01*
X139585171Y-97577142D02*
X139394695Y-97529523D01*
X139394695Y-97529523D02*
X139299457Y-97481904D01*
X139299457Y-97481904D02*
X139251838Y-97434285D01*
X139251838Y-97434285D02*
X139204219Y-97339047D01*
X140204219Y-96529523D02*
X140204219Y-96339047D01*
X140204219Y-96339047D02*
X140156600Y-96243809D01*
X140156600Y-96243809D02*
X140108980Y-96196190D01*
X140108980Y-96196190D02*
X139966123Y-96100952D01*
X139966123Y-96100952D02*
X139775647Y-96053333D01*
X139775647Y-96053333D02*
X139394695Y-96053333D01*
X139394695Y-96053333D02*
X139299457Y-96100952D01*
X139299457Y-96100952D02*
X139251838Y-96148571D01*
X139251838Y-96148571D02*
X139204219Y-96243809D01*
X139204219Y-96243809D02*
X139204219Y-96434285D01*
X139204219Y-96434285D02*
X139251838Y-96529523D01*
X139251838Y-96529523D02*
X139299457Y-96577142D01*
X139299457Y-96577142D02*
X139394695Y-96624761D01*
X139394695Y-96624761D02*
X139632790Y-96624761D01*
X139632790Y-96624761D02*
X139728028Y-96577142D01*
X139728028Y-96577142D02*
X139775647Y-96529523D01*
X139775647Y-96529523D02*
X139823266Y-96434285D01*
X139823266Y-96434285D02*
X139823266Y-96243809D01*
X139823266Y-96243809D02*
X139775647Y-96148571D01*
X139775647Y-96148571D02*
X139728028Y-96100952D01*
X139728028Y-96100952D02*
X139632790Y-96053333D01*
X140156600Y-95672380D02*
X140204219Y-95529523D01*
X140204219Y-95529523D02*
X140204219Y-95291428D01*
X140204219Y-95291428D02*
X140156600Y-95196190D01*
X140156600Y-95196190D02*
X140108980Y-95148571D01*
X140108980Y-95148571D02*
X140013742Y-95100952D01*
X140013742Y-95100952D02*
X139918504Y-95100952D01*
X139918504Y-95100952D02*
X139823266Y-95148571D01*
X139823266Y-95148571D02*
X139775647Y-95196190D01*
X139775647Y-95196190D02*
X139728028Y-95291428D01*
X139728028Y-95291428D02*
X139680409Y-95481904D01*
X139680409Y-95481904D02*
X139632790Y-95577142D01*
X139632790Y-95577142D02*
X139585171Y-95624761D01*
X139585171Y-95624761D02*
X139489933Y-95672380D01*
X139489933Y-95672380D02*
X139394695Y-95672380D01*
X139394695Y-95672380D02*
X139299457Y-95624761D01*
X139299457Y-95624761D02*
X139251838Y-95577142D01*
X139251838Y-95577142D02*
X139204219Y-95481904D01*
X139204219Y-95481904D02*
X139204219Y-95243809D01*
X139204219Y-95243809D02*
X139251838Y-95100952D01*
X140108980Y-94100952D02*
X140156600Y-94148571D01*
X140156600Y-94148571D02*
X140204219Y-94291428D01*
X140204219Y-94291428D02*
X140204219Y-94386666D01*
X140204219Y-94386666D02*
X140156600Y-94529523D01*
X140156600Y-94529523D02*
X140061361Y-94624761D01*
X140061361Y-94624761D02*
X139966123Y-94672380D01*
X139966123Y-94672380D02*
X139775647Y-94719999D01*
X139775647Y-94719999D02*
X139632790Y-94719999D01*
X139632790Y-94719999D02*
X139442314Y-94672380D01*
X139442314Y-94672380D02*
X139347076Y-94624761D01*
X139347076Y-94624761D02*
X139251838Y-94529523D01*
X139251838Y-94529523D02*
X139204219Y-94386666D01*
X139204219Y-94386666D02*
X139204219Y-94291428D01*
X139204219Y-94291428D02*
X139251838Y-94148571D01*
X139251838Y-94148571D02*
X139299457Y-94100952D01*
X162972761Y-108751457D02*
X162877523Y-108703838D01*
X162877523Y-108703838D02*
X162782285Y-108608600D01*
X162782285Y-108608600D02*
X162639428Y-108465742D01*
X162639428Y-108465742D02*
X162544190Y-108418123D01*
X162544190Y-108418123D02*
X162448952Y-108418123D01*
X162496571Y-108656219D02*
X162401333Y-108608600D01*
X162401333Y-108608600D02*
X162306095Y-108513361D01*
X162306095Y-108513361D02*
X162258476Y-108322885D01*
X162258476Y-108322885D02*
X162258476Y-107989552D01*
X162258476Y-107989552D02*
X162306095Y-107799076D01*
X162306095Y-107799076D02*
X162401333Y-107703838D01*
X162401333Y-107703838D02*
X162496571Y-107656219D01*
X162496571Y-107656219D02*
X162687047Y-107656219D01*
X162687047Y-107656219D02*
X162782285Y-107703838D01*
X162782285Y-107703838D02*
X162877523Y-107799076D01*
X162877523Y-107799076D02*
X162925142Y-107989552D01*
X162925142Y-107989552D02*
X162925142Y-108322885D01*
X162925142Y-108322885D02*
X162877523Y-108513361D01*
X162877523Y-108513361D02*
X162782285Y-108608600D01*
X162782285Y-108608600D02*
X162687047Y-108656219D01*
X162687047Y-108656219D02*
X162496571Y-108656219D01*
X163877523Y-108656219D02*
X163306095Y-108656219D01*
X163591809Y-108656219D02*
X163591809Y-107656219D01*
X163591809Y-107656219D02*
X163496571Y-107799076D01*
X163496571Y-107799076D02*
X163401333Y-107894314D01*
X163401333Y-107894314D02*
X163306095Y-107941933D01*
X153614219Y-97670857D02*
X153138028Y-98004190D01*
X153614219Y-98242285D02*
X152614219Y-98242285D01*
X152614219Y-98242285D02*
X152614219Y-97861333D01*
X152614219Y-97861333D02*
X152661838Y-97766095D01*
X152661838Y-97766095D02*
X152709457Y-97718476D01*
X152709457Y-97718476D02*
X152804695Y-97670857D01*
X152804695Y-97670857D02*
X152947552Y-97670857D01*
X152947552Y-97670857D02*
X153042790Y-97718476D01*
X153042790Y-97718476D02*
X153090409Y-97766095D01*
X153090409Y-97766095D02*
X153138028Y-97861333D01*
X153138028Y-97861333D02*
X153138028Y-98242285D01*
X153614219Y-96718476D02*
X153614219Y-97289904D01*
X153614219Y-97004190D02*
X152614219Y-97004190D01*
X152614219Y-97004190D02*
X152757076Y-97099428D01*
X152757076Y-97099428D02*
X152852314Y-97194666D01*
X152852314Y-97194666D02*
X152899933Y-97289904D01*
X152947552Y-95861333D02*
X153614219Y-95861333D01*
X152566600Y-96099428D02*
X153280885Y-96337523D01*
X153280885Y-96337523D02*
X153280885Y-95718476D01*
X143847863Y-100782219D02*
X143371673Y-100782219D01*
X143371673Y-100782219D02*
X143371673Y-99782219D01*
X144705006Y-100782219D02*
X144133578Y-100782219D01*
X144419292Y-100782219D02*
X144419292Y-99782219D01*
X144419292Y-99782219D02*
X144324054Y-99925076D01*
X144324054Y-99925076D02*
X144228816Y-100020314D01*
X144228816Y-100020314D02*
X144133578Y-100067933D01*
X148677333Y-102972980D02*
X148629714Y-103020600D01*
X148629714Y-103020600D02*
X148486857Y-103068219D01*
X148486857Y-103068219D02*
X148391619Y-103068219D01*
X148391619Y-103068219D02*
X148248762Y-103020600D01*
X148248762Y-103020600D02*
X148153524Y-102925361D01*
X148153524Y-102925361D02*
X148105905Y-102830123D01*
X148105905Y-102830123D02*
X148058286Y-102639647D01*
X148058286Y-102639647D02*
X148058286Y-102496790D01*
X148058286Y-102496790D02*
X148105905Y-102306314D01*
X148105905Y-102306314D02*
X148153524Y-102211076D01*
X148153524Y-102211076D02*
X148248762Y-102115838D01*
X148248762Y-102115838D02*
X148391619Y-102068219D01*
X148391619Y-102068219D02*
X148486857Y-102068219D01*
X148486857Y-102068219D02*
X148629714Y-102115838D01*
X148629714Y-102115838D02*
X148677333Y-102163457D01*
X149582095Y-102068219D02*
X149105905Y-102068219D01*
X149105905Y-102068219D02*
X149058286Y-102544409D01*
X149058286Y-102544409D02*
X149105905Y-102496790D01*
X149105905Y-102496790D02*
X149201143Y-102449171D01*
X149201143Y-102449171D02*
X149439238Y-102449171D01*
X149439238Y-102449171D02*
X149534476Y-102496790D01*
X149534476Y-102496790D02*
X149582095Y-102544409D01*
X149582095Y-102544409D02*
X149629714Y-102639647D01*
X149629714Y-102639647D02*
X149629714Y-102877742D01*
X149629714Y-102877742D02*
X149582095Y-102972980D01*
X149582095Y-102972980D02*
X149534476Y-103020600D01*
X149534476Y-103020600D02*
X149439238Y-103068219D01*
X149439238Y-103068219D02*
X149201143Y-103068219D01*
X149201143Y-103068219D02*
X149105905Y-103020600D01*
X149105905Y-103020600D02*
X149058286Y-102972980D01*
X152733523Y-106116219D02*
X152257333Y-106116219D01*
X152257333Y-106116219D02*
X152257333Y-105116219D01*
X153066857Y-106116219D02*
X153066857Y-105116219D01*
X153066857Y-105116219D02*
X153304952Y-105116219D01*
X153304952Y-105116219D02*
X153447809Y-105163838D01*
X153447809Y-105163838D02*
X153543047Y-105259076D01*
X153543047Y-105259076D02*
X153590666Y-105354314D01*
X153590666Y-105354314D02*
X153638285Y-105544790D01*
X153638285Y-105544790D02*
X153638285Y-105687647D01*
X153638285Y-105687647D02*
X153590666Y-105878123D01*
X153590666Y-105878123D02*
X153543047Y-105973361D01*
X153543047Y-105973361D02*
X153447809Y-106068600D01*
X153447809Y-106068600D02*
X153304952Y-106116219D01*
X153304952Y-106116219D02*
X153066857Y-106116219D01*
X154257333Y-105116219D02*
X154447809Y-105116219D01*
X154447809Y-105116219D02*
X154543047Y-105163838D01*
X154543047Y-105163838D02*
X154638285Y-105259076D01*
X154638285Y-105259076D02*
X154685904Y-105449552D01*
X154685904Y-105449552D02*
X154685904Y-105782885D01*
X154685904Y-105782885D02*
X154638285Y-105973361D01*
X154638285Y-105973361D02*
X154543047Y-106068600D01*
X154543047Y-106068600D02*
X154447809Y-106116219D01*
X154447809Y-106116219D02*
X154257333Y-106116219D01*
X154257333Y-106116219D02*
X154162095Y-106068600D01*
X154162095Y-106068600D02*
X154066857Y-105973361D01*
X154066857Y-105973361D02*
X154019238Y-105782885D01*
X154019238Y-105782885D02*
X154019238Y-105449552D01*
X154019238Y-105449552D02*
X154066857Y-105259076D01*
X154066857Y-105259076D02*
X154162095Y-105163838D01*
X154162095Y-105163838D02*
X154257333Y-105116219D01*
X155638285Y-106116219D02*
X155066857Y-106116219D01*
X155352571Y-106116219D02*
X155352571Y-105116219D01*
X155352571Y-105116219D02*
X155257333Y-105259076D01*
X155257333Y-105259076D02*
X155162095Y-105354314D01*
X155162095Y-105354314D02*
X155066857Y-105401933D01*
X150312219Y-95892857D02*
X149836028Y-96226190D01*
X150312219Y-96464285D02*
X149312219Y-96464285D01*
X149312219Y-96464285D02*
X149312219Y-96083333D01*
X149312219Y-96083333D02*
X149359838Y-95988095D01*
X149359838Y-95988095D02*
X149407457Y-95940476D01*
X149407457Y-95940476D02*
X149502695Y-95892857D01*
X149502695Y-95892857D02*
X149645552Y-95892857D01*
X149645552Y-95892857D02*
X149740790Y-95940476D01*
X149740790Y-95940476D02*
X149788409Y-95988095D01*
X149788409Y-95988095D02*
X149836028Y-96083333D01*
X149836028Y-96083333D02*
X149836028Y-96464285D01*
X150312219Y-94940476D02*
X150312219Y-95511904D01*
X150312219Y-95226190D02*
X149312219Y-95226190D01*
X149312219Y-95226190D02*
X149455076Y-95321428D01*
X149455076Y-95321428D02*
X149550314Y-95416666D01*
X149550314Y-95416666D02*
X149597933Y-95511904D01*
X149312219Y-94607142D02*
X149312219Y-93988095D01*
X149312219Y-93988095D02*
X149693171Y-94321428D01*
X149693171Y-94321428D02*
X149693171Y-94178571D01*
X149693171Y-94178571D02*
X149740790Y-94083333D01*
X149740790Y-94083333D02*
X149788409Y-94035714D01*
X149788409Y-94035714D02*
X149883647Y-93988095D01*
X149883647Y-93988095D02*
X150121742Y-93988095D01*
X150121742Y-93988095D02*
X150216980Y-94035714D01*
X150216980Y-94035714D02*
X150264600Y-94083333D01*
X150264600Y-94083333D02*
X150312219Y-94178571D01*
X150312219Y-94178571D02*
X150312219Y-94464285D01*
X150312219Y-94464285D02*
X150264600Y-94559523D01*
X150264600Y-94559523D02*
X150216980Y-94607142D01*
X165806219Y-101797863D02*
X164806219Y-101797863D01*
X164806219Y-101797863D02*
X164806219Y-101559768D01*
X164806219Y-101559768D02*
X164853838Y-101416911D01*
X164853838Y-101416911D02*
X164949076Y-101321673D01*
X164949076Y-101321673D02*
X165044314Y-101274054D01*
X165044314Y-101274054D02*
X165234790Y-101226435D01*
X165234790Y-101226435D02*
X165377647Y-101226435D01*
X165377647Y-101226435D02*
X165568123Y-101274054D01*
X165568123Y-101274054D02*
X165663361Y-101321673D01*
X165663361Y-101321673D02*
X165758600Y-101416911D01*
X165758600Y-101416911D02*
X165806219Y-101559768D01*
X165806219Y-101559768D02*
X165806219Y-101797863D01*
X165806219Y-100274054D02*
X165806219Y-100845482D01*
X165806219Y-100559768D02*
X164806219Y-100559768D01*
X164806219Y-100559768D02*
X164949076Y-100655006D01*
X164949076Y-100655006D02*
X165044314Y-100750244D01*
X165044314Y-100750244D02*
X165091933Y-100845482D01*
X148677333Y-108306980D02*
X148629714Y-108354600D01*
X148629714Y-108354600D02*
X148486857Y-108402219D01*
X148486857Y-108402219D02*
X148391619Y-108402219D01*
X148391619Y-108402219D02*
X148248762Y-108354600D01*
X148248762Y-108354600D02*
X148153524Y-108259361D01*
X148153524Y-108259361D02*
X148105905Y-108164123D01*
X148105905Y-108164123D02*
X148058286Y-107973647D01*
X148058286Y-107973647D02*
X148058286Y-107830790D01*
X148058286Y-107830790D02*
X148105905Y-107640314D01*
X148105905Y-107640314D02*
X148153524Y-107545076D01*
X148153524Y-107545076D02*
X148248762Y-107449838D01*
X148248762Y-107449838D02*
X148391619Y-107402219D01*
X148391619Y-107402219D02*
X148486857Y-107402219D01*
X148486857Y-107402219D02*
X148629714Y-107449838D01*
X148629714Y-107449838D02*
X148677333Y-107497457D01*
X149534476Y-107402219D02*
X149344000Y-107402219D01*
X149344000Y-107402219D02*
X149248762Y-107449838D01*
X149248762Y-107449838D02*
X149201143Y-107497457D01*
X149201143Y-107497457D02*
X149105905Y-107640314D01*
X149105905Y-107640314D02*
X149058286Y-107830790D01*
X149058286Y-107830790D02*
X149058286Y-108211742D01*
X149058286Y-108211742D02*
X149105905Y-108306980D01*
X149105905Y-108306980D02*
X149153524Y-108354600D01*
X149153524Y-108354600D02*
X149248762Y-108402219D01*
X149248762Y-108402219D02*
X149439238Y-108402219D01*
X149439238Y-108402219D02*
X149534476Y-108354600D01*
X149534476Y-108354600D02*
X149582095Y-108306980D01*
X149582095Y-108306980D02*
X149629714Y-108211742D01*
X149629714Y-108211742D02*
X149629714Y-107973647D01*
X149629714Y-107973647D02*
X149582095Y-107878409D01*
X149582095Y-107878409D02*
X149534476Y-107830790D01*
X149534476Y-107830790D02*
X149439238Y-107783171D01*
X149439238Y-107783171D02*
X149248762Y-107783171D01*
X149248762Y-107783171D02*
X149153524Y-107830790D01*
X149153524Y-107830790D02*
X149105905Y-107878409D01*
X149105905Y-107878409D02*
X149058286Y-107973647D01*
X152995333Y-109068980D02*
X152947714Y-109116600D01*
X152947714Y-109116600D02*
X152804857Y-109164219D01*
X152804857Y-109164219D02*
X152709619Y-109164219D01*
X152709619Y-109164219D02*
X152566762Y-109116600D01*
X152566762Y-109116600D02*
X152471524Y-109021361D01*
X152471524Y-109021361D02*
X152423905Y-108926123D01*
X152423905Y-108926123D02*
X152376286Y-108735647D01*
X152376286Y-108735647D02*
X152376286Y-108592790D01*
X152376286Y-108592790D02*
X152423905Y-108402314D01*
X152423905Y-108402314D02*
X152471524Y-108307076D01*
X152471524Y-108307076D02*
X152566762Y-108211838D01*
X152566762Y-108211838D02*
X152709619Y-108164219D01*
X152709619Y-108164219D02*
X152804857Y-108164219D01*
X152804857Y-108164219D02*
X152947714Y-108211838D01*
X152947714Y-108211838D02*
X152995333Y-108259457D01*
X153566762Y-108592790D02*
X153471524Y-108545171D01*
X153471524Y-108545171D02*
X153423905Y-108497552D01*
X153423905Y-108497552D02*
X153376286Y-108402314D01*
X153376286Y-108402314D02*
X153376286Y-108354695D01*
X153376286Y-108354695D02*
X153423905Y-108259457D01*
X153423905Y-108259457D02*
X153471524Y-108211838D01*
X153471524Y-108211838D02*
X153566762Y-108164219D01*
X153566762Y-108164219D02*
X153757238Y-108164219D01*
X153757238Y-108164219D02*
X153852476Y-108211838D01*
X153852476Y-108211838D02*
X153900095Y-108259457D01*
X153900095Y-108259457D02*
X153947714Y-108354695D01*
X153947714Y-108354695D02*
X153947714Y-108402314D01*
X153947714Y-108402314D02*
X153900095Y-108497552D01*
X153900095Y-108497552D02*
X153852476Y-108545171D01*
X153852476Y-108545171D02*
X153757238Y-108592790D01*
X153757238Y-108592790D02*
X153566762Y-108592790D01*
X153566762Y-108592790D02*
X153471524Y-108640409D01*
X153471524Y-108640409D02*
X153423905Y-108688028D01*
X153423905Y-108688028D02*
X153376286Y-108783266D01*
X153376286Y-108783266D02*
X153376286Y-108973742D01*
X153376286Y-108973742D02*
X153423905Y-109068980D01*
X153423905Y-109068980D02*
X153471524Y-109116600D01*
X153471524Y-109116600D02*
X153566762Y-109164219D01*
X153566762Y-109164219D02*
X153757238Y-109164219D01*
X153757238Y-109164219D02*
X153852476Y-109116600D01*
X153852476Y-109116600D02*
X153900095Y-109068980D01*
X153900095Y-109068980D02*
X153947714Y-108973742D01*
X153947714Y-108973742D02*
X153947714Y-108783266D01*
X153947714Y-108783266D02*
X153900095Y-108688028D01*
X153900095Y-108688028D02*
X153852476Y-108640409D01*
X153852476Y-108640409D02*
X153757238Y-108592790D01*
X146918142Y-97917980D02*
X146870523Y-97965600D01*
X146870523Y-97965600D02*
X146727666Y-98013219D01*
X146727666Y-98013219D02*
X146632428Y-98013219D01*
X146632428Y-98013219D02*
X146489571Y-97965600D01*
X146489571Y-97965600D02*
X146394333Y-97870361D01*
X146394333Y-97870361D02*
X146346714Y-97775123D01*
X146346714Y-97775123D02*
X146299095Y-97584647D01*
X146299095Y-97584647D02*
X146299095Y-97441790D01*
X146299095Y-97441790D02*
X146346714Y-97251314D01*
X146346714Y-97251314D02*
X146394333Y-97156076D01*
X146394333Y-97156076D02*
X146489571Y-97060838D01*
X146489571Y-97060838D02*
X146632428Y-97013219D01*
X146632428Y-97013219D02*
X146727666Y-97013219D01*
X146727666Y-97013219D02*
X146870523Y-97060838D01*
X146870523Y-97060838D02*
X146918142Y-97108457D01*
X147870523Y-98013219D02*
X147299095Y-98013219D01*
X147584809Y-98013219D02*
X147584809Y-97013219D01*
X147584809Y-97013219D02*
X147489571Y-97156076D01*
X147489571Y-97156076D02*
X147394333Y-97251314D01*
X147394333Y-97251314D02*
X147299095Y-97298933D01*
X148346714Y-98013219D02*
X148537190Y-98013219D01*
X148537190Y-98013219D02*
X148632428Y-97965600D01*
X148632428Y-97965600D02*
X148680047Y-97917980D01*
X148680047Y-97917980D02*
X148775285Y-97775123D01*
X148775285Y-97775123D02*
X148822904Y-97584647D01*
X148822904Y-97584647D02*
X148822904Y-97203695D01*
X148822904Y-97203695D02*
X148775285Y-97108457D01*
X148775285Y-97108457D02*
X148727666Y-97060838D01*
X148727666Y-97060838D02*
X148632428Y-97013219D01*
X148632428Y-97013219D02*
X148441952Y-97013219D01*
X148441952Y-97013219D02*
X148346714Y-97060838D01*
X148346714Y-97060838D02*
X148299095Y-97108457D01*
X148299095Y-97108457D02*
X148251476Y-97203695D01*
X148251476Y-97203695D02*
X148251476Y-97441790D01*
X148251476Y-97441790D02*
X148299095Y-97537028D01*
X148299095Y-97537028D02*
X148346714Y-97584647D01*
X148346714Y-97584647D02*
X148441952Y-97632266D01*
X148441952Y-97632266D02*
X148632428Y-97632266D01*
X148632428Y-97632266D02*
X148727666Y-97584647D01*
X148727666Y-97584647D02*
X148775285Y-97537028D01*
X148775285Y-97537028D02*
X148822904Y-97441790D01*
X158852980Y-100718857D02*
X158900600Y-100766476D01*
X158900600Y-100766476D02*
X158948219Y-100909333D01*
X158948219Y-100909333D02*
X158948219Y-101004571D01*
X158948219Y-101004571D02*
X158900600Y-101147428D01*
X158900600Y-101147428D02*
X158805361Y-101242666D01*
X158805361Y-101242666D02*
X158710123Y-101290285D01*
X158710123Y-101290285D02*
X158519647Y-101337904D01*
X158519647Y-101337904D02*
X158376790Y-101337904D01*
X158376790Y-101337904D02*
X158186314Y-101290285D01*
X158186314Y-101290285D02*
X158091076Y-101242666D01*
X158091076Y-101242666D02*
X157995838Y-101147428D01*
X157995838Y-101147428D02*
X157948219Y-101004571D01*
X157948219Y-101004571D02*
X157948219Y-100909333D01*
X157948219Y-100909333D02*
X157995838Y-100766476D01*
X157995838Y-100766476D02*
X158043457Y-100718857D01*
X158948219Y-99766476D02*
X158948219Y-100337904D01*
X158948219Y-100052190D02*
X157948219Y-100052190D01*
X157948219Y-100052190D02*
X158091076Y-100147428D01*
X158091076Y-100147428D02*
X158186314Y-100242666D01*
X158186314Y-100242666D02*
X158233933Y-100337904D01*
X158948219Y-98814095D02*
X158948219Y-99385523D01*
X158948219Y-99099809D02*
X157948219Y-99099809D01*
X157948219Y-99099809D02*
X158091076Y-99195047D01*
X158091076Y-99195047D02*
X158186314Y-99290285D01*
X158186314Y-99290285D02*
X158233933Y-99385523D01*
X157821333Y-96718219D02*
X157488000Y-96242028D01*
X157249905Y-96718219D02*
X157249905Y-95718219D01*
X157249905Y-95718219D02*
X157630857Y-95718219D01*
X157630857Y-95718219D02*
X157726095Y-95765838D01*
X157726095Y-95765838D02*
X157773714Y-95813457D01*
X157773714Y-95813457D02*
X157821333Y-95908695D01*
X157821333Y-95908695D02*
X157821333Y-96051552D01*
X157821333Y-96051552D02*
X157773714Y-96146790D01*
X157773714Y-96146790D02*
X157726095Y-96194409D01*
X157726095Y-96194409D02*
X157630857Y-96242028D01*
X157630857Y-96242028D02*
X157249905Y-96242028D01*
X158392762Y-96146790D02*
X158297524Y-96099171D01*
X158297524Y-96099171D02*
X158249905Y-96051552D01*
X158249905Y-96051552D02*
X158202286Y-95956314D01*
X158202286Y-95956314D02*
X158202286Y-95908695D01*
X158202286Y-95908695D02*
X158249905Y-95813457D01*
X158249905Y-95813457D02*
X158297524Y-95765838D01*
X158297524Y-95765838D02*
X158392762Y-95718219D01*
X158392762Y-95718219D02*
X158583238Y-95718219D01*
X158583238Y-95718219D02*
X158678476Y-95765838D01*
X158678476Y-95765838D02*
X158726095Y-95813457D01*
X158726095Y-95813457D02*
X158773714Y-95908695D01*
X158773714Y-95908695D02*
X158773714Y-95956314D01*
X158773714Y-95956314D02*
X158726095Y-96051552D01*
X158726095Y-96051552D02*
X158678476Y-96099171D01*
X158678476Y-96099171D02*
X158583238Y-96146790D01*
X158583238Y-96146790D02*
X158392762Y-96146790D01*
X158392762Y-96146790D02*
X158297524Y-96194409D01*
X158297524Y-96194409D02*
X158249905Y-96242028D01*
X158249905Y-96242028D02*
X158202286Y-96337266D01*
X158202286Y-96337266D02*
X158202286Y-96527742D01*
X158202286Y-96527742D02*
X158249905Y-96622980D01*
X158249905Y-96622980D02*
X158297524Y-96670600D01*
X158297524Y-96670600D02*
X158392762Y-96718219D01*
X158392762Y-96718219D02*
X158583238Y-96718219D01*
X158583238Y-96718219D02*
X158678476Y-96670600D01*
X158678476Y-96670600D02*
X158726095Y-96622980D01*
X158726095Y-96622980D02*
X158773714Y-96527742D01*
X158773714Y-96527742D02*
X158773714Y-96337266D01*
X158773714Y-96337266D02*
X158726095Y-96242028D01*
X158726095Y-96242028D02*
X158678476Y-96194409D01*
X158678476Y-96194409D02*
X158583238Y-96146790D01*
X145407142Y-99670980D02*
X145359523Y-99718600D01*
X145359523Y-99718600D02*
X145216666Y-99766219D01*
X145216666Y-99766219D02*
X145121428Y-99766219D01*
X145121428Y-99766219D02*
X144978571Y-99718600D01*
X144978571Y-99718600D02*
X144883333Y-99623361D01*
X144883333Y-99623361D02*
X144835714Y-99528123D01*
X144835714Y-99528123D02*
X144788095Y-99337647D01*
X144788095Y-99337647D02*
X144788095Y-99194790D01*
X144788095Y-99194790D02*
X144835714Y-99004314D01*
X144835714Y-99004314D02*
X144883333Y-98909076D01*
X144883333Y-98909076D02*
X144978571Y-98813838D01*
X144978571Y-98813838D02*
X145121428Y-98766219D01*
X145121428Y-98766219D02*
X145216666Y-98766219D01*
X145216666Y-98766219D02*
X145359523Y-98813838D01*
X145359523Y-98813838D02*
X145407142Y-98861457D01*
X146359523Y-99766219D02*
X145788095Y-99766219D01*
X146073809Y-99766219D02*
X146073809Y-98766219D01*
X146073809Y-98766219D02*
X145978571Y-98909076D01*
X145978571Y-98909076D02*
X145883333Y-99004314D01*
X145883333Y-99004314D02*
X145788095Y-99051933D01*
X146740476Y-98861457D02*
X146788095Y-98813838D01*
X146788095Y-98813838D02*
X146883333Y-98766219D01*
X146883333Y-98766219D02*
X147121428Y-98766219D01*
X147121428Y-98766219D02*
X147216666Y-98813838D01*
X147216666Y-98813838D02*
X147264285Y-98861457D01*
X147264285Y-98861457D02*
X147311904Y-98956695D01*
X147311904Y-98956695D02*
X147311904Y-99051933D01*
X147311904Y-99051933D02*
X147264285Y-99194790D01*
X147264285Y-99194790D02*
X146692857Y-99766219D01*
X146692857Y-99766219D02*
X147311904Y-99766219D01*
X143847863Y-105608219D02*
X143371673Y-105608219D01*
X143371673Y-105608219D02*
X143371673Y-104608219D01*
X144133578Y-104703457D02*
X144181197Y-104655838D01*
X144181197Y-104655838D02*
X144276435Y-104608219D01*
X144276435Y-104608219D02*
X144514530Y-104608219D01*
X144514530Y-104608219D02*
X144609768Y-104655838D01*
X144609768Y-104655838D02*
X144657387Y-104703457D01*
X144657387Y-104703457D02*
X144705006Y-104798695D01*
X144705006Y-104798695D02*
X144705006Y-104893933D01*
X144705006Y-104893933D02*
X144657387Y-105036790D01*
X144657387Y-105036790D02*
X144085959Y-105608219D01*
X144085959Y-105608219D02*
X144705006Y-105608219D01*
X157853142Y-98146980D02*
X157805523Y-98194600D01*
X157805523Y-98194600D02*
X157662666Y-98242219D01*
X157662666Y-98242219D02*
X157567428Y-98242219D01*
X157567428Y-98242219D02*
X157424571Y-98194600D01*
X157424571Y-98194600D02*
X157329333Y-98099361D01*
X157329333Y-98099361D02*
X157281714Y-98004123D01*
X157281714Y-98004123D02*
X157234095Y-97813647D01*
X157234095Y-97813647D02*
X157234095Y-97670790D01*
X157234095Y-97670790D02*
X157281714Y-97480314D01*
X157281714Y-97480314D02*
X157329333Y-97385076D01*
X157329333Y-97385076D02*
X157424571Y-97289838D01*
X157424571Y-97289838D02*
X157567428Y-97242219D01*
X157567428Y-97242219D02*
X157662666Y-97242219D01*
X157662666Y-97242219D02*
X157805523Y-97289838D01*
X157805523Y-97289838D02*
X157853142Y-97337457D01*
X158805523Y-98242219D02*
X158234095Y-98242219D01*
X158519809Y-98242219D02*
X158519809Y-97242219D01*
X158519809Y-97242219D02*
X158424571Y-97385076D01*
X158424571Y-97385076D02*
X158329333Y-97480314D01*
X158329333Y-97480314D02*
X158234095Y-97527933D01*
X159376952Y-97670790D02*
X159281714Y-97623171D01*
X159281714Y-97623171D02*
X159234095Y-97575552D01*
X159234095Y-97575552D02*
X159186476Y-97480314D01*
X159186476Y-97480314D02*
X159186476Y-97432695D01*
X159186476Y-97432695D02*
X159234095Y-97337457D01*
X159234095Y-97337457D02*
X159281714Y-97289838D01*
X159281714Y-97289838D02*
X159376952Y-97242219D01*
X159376952Y-97242219D02*
X159567428Y-97242219D01*
X159567428Y-97242219D02*
X159662666Y-97289838D01*
X159662666Y-97289838D02*
X159710285Y-97337457D01*
X159710285Y-97337457D02*
X159757904Y-97432695D01*
X159757904Y-97432695D02*
X159757904Y-97480314D01*
X159757904Y-97480314D02*
X159710285Y-97575552D01*
X159710285Y-97575552D02*
X159662666Y-97623171D01*
X159662666Y-97623171D02*
X159567428Y-97670790D01*
X159567428Y-97670790D02*
X159376952Y-97670790D01*
X159376952Y-97670790D02*
X159281714Y-97718409D01*
X159281714Y-97718409D02*
X159234095Y-97766028D01*
X159234095Y-97766028D02*
X159186476Y-97861266D01*
X159186476Y-97861266D02*
X159186476Y-98051742D01*
X159186476Y-98051742D02*
X159234095Y-98146980D01*
X159234095Y-98146980D02*
X159281714Y-98194600D01*
X159281714Y-98194600D02*
X159376952Y-98242219D01*
X159376952Y-98242219D02*
X159567428Y-98242219D01*
X159567428Y-98242219D02*
X159662666Y-98194600D01*
X159662666Y-98194600D02*
X159710285Y-98146980D01*
X159710285Y-98146980D02*
X159757904Y-98051742D01*
X159757904Y-98051742D02*
X159757904Y-97861266D01*
X159757904Y-97861266D02*
X159710285Y-97766028D01*
X159710285Y-97766028D02*
X159662666Y-97718409D01*
X159662666Y-97718409D02*
X159567428Y-97670790D01*
D11*
X150371742Y-98562500D02*
X150846258Y-98562500D01*
X150371742Y-99607500D02*
X150846258Y-99607500D01*
D12*
X136208557Y-108580128D02*
X136208557Y-106620000D01*
X142470290Y-108580128D02*
X136208557Y-108580128D01*
X136208557Y-91220000D02*
X136208557Y-89371891D01*
X136208557Y-89371891D02*
X142470290Y-89371891D01*
X142470290Y-89371891D02*
X142470290Y-108580128D01*
D10*
X158270000Y-102160000D02*
X161770000Y-102160000D01*
X158270000Y-108660000D02*
X158270000Y-102160000D01*
X161770000Y-102160000D02*
X161770000Y-108660000D01*
X161770000Y-108660000D02*
X158270000Y-108660000D01*
X155870000Y-103110000D02*
G75*
G03*
X155670000Y-103110000I-100000J0D01*
G01*
X155670000Y-103110000D02*
G75*
G03*
X155870000Y-103110000I100000J0D01*
G01*
D11*
X154161258Y-99836500D02*
X153686742Y-99836500D01*
X154161258Y-98791500D02*
X153686742Y-98791500D01*
D12*
X154360000Y-90954000D02*
X154360000Y-87354000D01*
X154360000Y-87354000D02*
X153280000Y-87354000D01*
X153280000Y-90954000D02*
X154360000Y-90954000D01*
X146440000Y-87354000D02*
X145360000Y-87354000D01*
X145360000Y-90954000D02*
X146440000Y-90954000D01*
X145360000Y-87354000D02*
X145360000Y-90954000D01*
D10*
X153800000Y-86404000D02*
G75*
G03*
X153600000Y-86404000I-100000J0D01*
G01*
X153600000Y-86404000D02*
G75*
G03*
X153800000Y-86404000I100000J0D01*
G01*
D11*
X148703420Y-103376000D02*
X148984580Y-103376000D01*
X148703420Y-104396000D02*
X148984580Y-104396000D01*
D12*
X151358000Y-104420000D02*
X151358000Y-101320000D01*
X154458000Y-104420000D02*
X154458000Y-101320000D01*
D10*
X151808000Y-105270000D02*
G75*
G03*
X151608000Y-105270000I-100000J0D01*
G01*
X151608000Y-105270000D02*
G75*
G03*
X151808000Y-105270000I100000J0D01*
G01*
D11*
X151906500Y-95012742D02*
X151906500Y-95487258D01*
X150861500Y-95012742D02*
X150861500Y-95487258D01*
D12*
X165897918Y-96214211D02*
G75*
G03*
X164173709Y-94490001I-2603217J-879007D01*
G01*
X164155749Y-99967957D02*
G75*
G03*
X165912799Y-98233409I-916739J2685827D01*
G01*
X162144172Y-94472042D02*
G75*
G03*
X162108251Y-99967957I930840J-2754159D01*
G01*
D11*
X148984580Y-106936000D02*
X148703420Y-106936000D01*
X148984580Y-105916000D02*
X148703420Y-105916000D01*
X153021420Y-106678000D02*
X153302580Y-106678000D01*
X153021420Y-107698000D02*
X153302580Y-107698000D01*
X150468420Y-97051000D02*
X150749580Y-97051000D01*
X150468420Y-98071000D02*
X150749580Y-98071000D01*
X157482000Y-99935420D02*
X157482000Y-100216580D01*
X156462000Y-99935420D02*
X156462000Y-100216580D01*
X155685258Y-96788500D02*
X155210742Y-96788500D01*
X155685258Y-95743500D02*
X155210742Y-95743500D01*
X148830000Y-100024420D02*
X148830000Y-100305580D01*
X147810000Y-100024420D02*
X147810000Y-100305580D01*
X155307420Y-97280000D02*
X155588580Y-97280000D01*
X155307420Y-98300000D02*
X155588580Y-98300000D01*
%LPC*%
D13*
X157620000Y-103760000D02*
X156320000Y-103760000D01*
X156320000Y-102460000D01*
X157620000Y-102460000D01*
X157620000Y-103760000D01*
G36*
X157620000Y-103760000D02*
G01*
X156320000Y-103760000D01*
X156320000Y-102460000D01*
X157620000Y-102460000D01*
X157620000Y-103760000D01*
G37*
X157620000Y-106060000D02*
X156320000Y-106060000D01*
X156320000Y-104760000D01*
X157620000Y-104760000D01*
X157620000Y-106060000D01*
G36*
X157620000Y-106060000D02*
G01*
X156320000Y-106060000D01*
X156320000Y-104760000D01*
X157620000Y-104760000D01*
X157620000Y-106060000D01*
G37*
X157620000Y-108360000D02*
X156320000Y-108360000D01*
X156320000Y-107060000D01*
X157620000Y-107060000D01*
X157620000Y-108360000D01*
G36*
X157620000Y-108360000D02*
G01*
X156320000Y-108360000D01*
X156320000Y-107060000D01*
X157620000Y-107060000D01*
X157620000Y-108360000D01*
G37*
X163720000Y-107210000D02*
X162420000Y-107210000D01*
X162420000Y-103610000D01*
X163720000Y-103610000D01*
X163720000Y-107210000D01*
G36*
X163720000Y-107210000D02*
G01*
X162420000Y-107210000D01*
X162420000Y-103610000D01*
X163720000Y-103610000D01*
X163720000Y-107210000D01*
G37*
D14*
X149784000Y-99085000D03*
X151434000Y-99085000D03*
D15*
X133858000Y-104902000D03*
D16*
X137752000Y-106680000D03*
X137752000Y-104140000D03*
X137752000Y-99060000D03*
X137752000Y-96520000D03*
X137752000Y-93980000D03*
D15*
X133858000Y-92202000D03*
X133858000Y-102362000D03*
D17*
X166632000Y-86220000D03*
D15*
X133858000Y-94680000D03*
X133858000Y-99760000D03*
D17*
X133660000Y-108236000D03*
D15*
X133858000Y-89662000D03*
X137922000Y-85852000D03*
D18*
X154749000Y-99314000D03*
X153099000Y-99314000D03*
D19*
X152360000Y-86404000D03*
X149860000Y-86404000D03*
X147360000Y-86404000D03*
X152360000Y-91904000D03*
X149860000Y-91904000D03*
X147360000Y-91904000D03*
D20*
X143889000Y-102616000D03*
X146179000Y-102616000D03*
D21*
X148069000Y-103886000D03*
X149619000Y-103886000D03*
D22*
X151908000Y-104305000D03*
X152408000Y-104305000D03*
X152908000Y-104305000D03*
X153408000Y-104305000D03*
X153908000Y-104305000D03*
D23*
X153908000Y-101435000D03*
X153408000Y-101435000D03*
X152908000Y-101435000D03*
X152408000Y-101435000D03*
X151908000Y-101435000D03*
D24*
X152908000Y-102870000D03*
D17*
X133632000Y-86220000D03*
D25*
X151384000Y-94425000D03*
X151384000Y-96075000D03*
D26*
X163132000Y-99778050D03*
D27*
X165690050Y-97220000D03*
D26*
X163132000Y-94661950D03*
D28*
X149619000Y-106426000D03*
X148069000Y-106426000D03*
D21*
X152387000Y-107188000D03*
X153937000Y-107188000D03*
X149834000Y-97561000D03*
X151384000Y-97561000D03*
D17*
X166632000Y-108236000D03*
D29*
X156972000Y-99301000D03*
X156972000Y-100851000D03*
D18*
X156273000Y-96266000D03*
X154623000Y-96266000D03*
D15*
X133858000Y-97220000D03*
D29*
X148320000Y-99390000D03*
X148320000Y-100940000D03*
D20*
X143889000Y-107442000D03*
X146179000Y-107442000D03*
D21*
X154673000Y-97790000D03*
X156223000Y-97790000D03*
D15*
X157480000Y-86106000D03*
%LPD*%
M02*
