G04 #@! TF.GenerationSoftware,KiCad,Pcbnew,7.0.10-7.0.10~ubuntu22.04.1*
G04 #@! TF.CreationDate,2025-03-17T18:56:05+01:00*
G04 #@! TF.ProjectId,prototype_adc2,70726f74-6f74-4797-9065-5f616463322e,rev?*
G04 #@! TF.SameCoordinates,Original*
G04 #@! TF.FileFunction,Paste,Top*
G04 #@! TF.FilePolarity,Positive*
%FSLAX46Y46*%
G04 Gerber Fmt 4.6, Leading zero omitted, Abs format (unit mm)*
G04 Created by KiCad (PCBNEW 7.0.10-7.0.10~ubuntu22.04.1) date 2025-03-17 18:56:05*
%MOMM*%
%LPD*%
G01*
G04 APERTURE LIST*
G04 Aperture macros list*
%AMRoundRect*
0 Rectangle with rounded corners*
0 $1 Rounding radius*
0 $2 $3 $4 $5 $6 $7 $8 $9 X,Y pos of 4 corners*
0 Add a 4 corners polygon primitive as box body*
4,1,4,$2,$3,$4,$5,$6,$7,$8,$9,$2,$3,0*
0 Add four circle primitives for the rounded corners*
1,1,$1+$1,$2,$3*
1,1,$1+$1,$4,$5*
1,1,$1+$1,$6,$7*
1,1,$1+$1,$8,$9*
0 Add four rect primitives between the rounded corners*
20,1,$1+$1,$2,$3,$4,$5,0*
20,1,$1+$1,$4,$5,$6,$7,0*
20,1,$1+$1,$6,$7,$8,$9,0*
20,1,$1+$1,$8,$9,$2,$3,0*%
G04 Aperture macros list end*
%ADD10C,0.010000*%
%ADD11RoundRect,0.200000X-0.200000X-0.275000X0.200000X-0.275000X0.200000X0.275000X-0.200000X0.275000X0*%
%ADD12RoundRect,0.200000X0.200000X0.275000X-0.200000X0.275000X-0.200000X-0.275000X0.200000X-0.275000X0*%
%ADD13R,1.200000X2.500000*%
%ADD14R,1.520000X3.050000*%
%ADD15RoundRect,0.225000X-0.225000X-0.250000X0.225000X-0.250000X0.225000X0.250000X-0.225000X0.250000X0*%
%ADD16RoundRect,0.065000X0.065000X-0.365000X0.065000X0.365000X-0.065000X0.365000X-0.065000X-0.365000X0*%
%ADD17RoundRect,0.065000X-0.065000X0.365000X-0.065000X-0.365000X0.065000X-0.365000X0.065000X0.365000X0*%
%ADD18RoundRect,0.200000X-0.275000X0.200000X-0.275000X-0.200000X0.275000X-0.200000X0.275000X0.200000X0*%
%ADD19RoundRect,0.225000X0.225000X0.250000X-0.225000X0.250000X-0.225000X-0.250000X0.225000X-0.250000X0*%
%ADD20RoundRect,0.225000X-0.250000X0.225000X-0.250000X-0.225000X0.250000X-0.225000X0.250000X0.225000X0*%
G04 APERTURE END LIST*
D10*
X157570000Y-103710000D02*
X156370000Y-103710000D01*
X156370000Y-102510000D01*
X157570000Y-102510000D01*
X157570000Y-103710000D01*
G36*
X157570000Y-103710000D02*
G01*
X156370000Y-103710000D01*
X156370000Y-102510000D01*
X157570000Y-102510000D01*
X157570000Y-103710000D01*
G37*
X157570000Y-106010000D02*
X156370000Y-106010000D01*
X156370000Y-104810000D01*
X157570000Y-104810000D01*
X157570000Y-106010000D01*
G36*
X157570000Y-106010000D02*
G01*
X156370000Y-106010000D01*
X156370000Y-104810000D01*
X157570000Y-104810000D01*
X157570000Y-106010000D01*
G37*
X157570000Y-108310000D02*
X156370000Y-108310000D01*
X156370000Y-107110000D01*
X157570000Y-107110000D01*
X157570000Y-108310000D01*
G36*
X157570000Y-108310000D02*
G01*
X156370000Y-108310000D01*
X156370000Y-107110000D01*
X157570000Y-107110000D01*
X157570000Y-108310000D01*
G37*
X163670000Y-105260000D02*
X162470000Y-105260000D01*
X162470000Y-103660000D01*
X163670000Y-103660000D01*
X163670000Y-105260000D01*
G36*
X163670000Y-105260000D02*
G01*
X162470000Y-105260000D01*
X162470000Y-103660000D01*
X163670000Y-103660000D01*
X163670000Y-105260000D01*
G37*
X163670000Y-107160000D02*
X162470000Y-107160000D01*
X162470000Y-105560000D01*
X163670000Y-105560000D01*
X163670000Y-107160000D01*
G36*
X163670000Y-107160000D02*
G01*
X162470000Y-107160000D01*
X162470000Y-105560000D01*
X163670000Y-105560000D01*
X163670000Y-107160000D01*
G37*
D11*
X149784000Y-99085000D03*
X151434000Y-99085000D03*
D12*
X154749000Y-99314000D03*
X153099000Y-99314000D03*
D13*
X152360000Y-86404000D03*
X149860000Y-86404000D03*
X147360000Y-86404000D03*
X152360000Y-91904000D03*
X149860000Y-91904000D03*
X147360000Y-91904000D03*
D14*
X143889000Y-102616000D03*
X146179000Y-102616000D03*
D15*
X148069000Y-103886000D03*
X149619000Y-103886000D03*
D16*
X151908000Y-104305000D03*
X152408000Y-104305000D03*
X152908000Y-104305000D03*
X153408000Y-104305000D03*
X153908000Y-104305000D03*
D17*
X153908000Y-101435000D03*
X153408000Y-101435000D03*
X152908000Y-101435000D03*
X152408000Y-101435000D03*
X151908000Y-101435000D03*
D18*
X151384000Y-94425000D03*
X151384000Y-96075000D03*
D19*
X149619000Y-106426000D03*
X148069000Y-106426000D03*
D15*
X152387000Y-107188000D03*
X153937000Y-107188000D03*
X149834000Y-97561000D03*
X151384000Y-97561000D03*
D20*
X156972000Y-99301000D03*
X156972000Y-100851000D03*
D12*
X156273000Y-96266000D03*
X154623000Y-96266000D03*
D20*
X148320000Y-99390000D03*
X148320000Y-100940000D03*
D14*
X143889000Y-107442000D03*
X146179000Y-107442000D03*
D15*
X154673000Y-97790000D03*
X156223000Y-97790000D03*
M02*
