M48
; DRILL file {KiCad 7.0.10-7.0.10~ubuntu22.04.1} date wo 17 jul 2024 19:08:52
; FORMAT={-:-/ absolute / metric / decimal}
; #@! TF.CreationDate,2024-07-17T19:08:52+02:00
; #@! TF.GenerationSoftware,Kicad,Pcbnew,7.0.10-7.0.10~ubuntu22.04.1
; #@! TF.FileFunction,Plated,1,4,PTH
FMAT,2
METRIC
; #@! TA.AperFunction,Plated,PTH,ViaDrill
T1C0.300
; #@! TA.AperFunction,Plated,PTH,ViaDrill
T2C0.400
; #@! TA.AperFunction,Plated,PTH,ComponentDrill
T3C0.813
; #@! TA.AperFunction,Plated,PTH,ComponentDrill
T4C1.000
; #@! TA.AperFunction,Plated,PTH,ComponentDrill
T5C1.200
%
G90
G05
T1
X139.446Y-90.17
X140.208Y-87.63
X140.716Y-92.964
X142.875Y-95.758
X146.558Y-100.584
X147.574Y-93.98
X152.654Y-88.392
X157.734Y-105.41
X157.734Y-107.71
X158.75Y-103.124
X161.798Y-90.932
T2
X144.484Y-90.932
X145.948Y-92.113
X146.387Y-105.147
X151.586Y-100.227
X152.146Y-103.0
X152.527Y-93.853
X153.5Y-102.6
X153.67Y-92.964
X154.94Y-100.584
X155.194Y-86.36
X156.464Y-89.662
X161.163Y-92.329
T3
X163.132Y-95.424
X163.132Y-99.016
X164.928Y-97.22
T4
X137.752Y-93.98
X137.752Y-96.52
X137.752Y-99.06
X137.752Y-104.14
X137.752Y-106.68
T5
X133.858Y-89.662
X133.858Y-92.202
X133.858Y-94.68
X133.858Y-97.22
X133.858Y-99.76
X133.858Y-102.362
X133.858Y-104.902
X137.922Y-85.852
X157.48Y-86.106
M30
