G04 #@! TF.GenerationSoftware,KiCad,Pcbnew,7.0.10-7.0.10~ubuntu22.04.1*
G04 #@! TF.CreationDate,2024-07-17T19:08:48+02:00*
G04 #@! TF.ProjectId,prototype_adc2,70726f74-6f74-4797-9065-5f616463322e,rev?*
G04 #@! TF.SameCoordinates,Original*
G04 #@! TF.FileFunction,Copper,L1,Top*
G04 #@! TF.FilePolarity,Positive*
%FSLAX46Y46*%
G04 Gerber Fmt 4.6, Leading zero omitted, Abs format (unit mm)*
G04 Created by KiCad (PCBNEW 7.0.10-7.0.10~ubuntu22.04.1) date 2024-07-17 19:08:48*
%MOMM*%
%LPD*%
G01*
G04 APERTURE LIST*
G04 Aperture macros list*
%AMRoundRect*
0 Rectangle with rounded corners*
0 $1 Rounding radius*
0 $2 $3 $4 $5 $6 $7 $8 $9 X,Y pos of 4 corners*
0 Add a 4 corners polygon primitive as box body*
4,1,4,$2,$3,$4,$5,$6,$7,$8,$9,$2,$3,0*
0 Add four circle primitives for the rounded corners*
1,1,$1+$1,$2,$3*
1,1,$1+$1,$4,$5*
1,1,$1+$1,$6,$7*
1,1,$1+$1,$8,$9*
0 Add four rect primitives between the rounded corners*
20,1,$1+$1,$2,$3,$4,$5,0*
20,1,$1+$1,$4,$5,$6,$7,0*
20,1,$1+$1,$6,$7,$8,$9,0*
20,1,$1+$1,$8,$9,$2,$3,0*%
G04 Aperture macros list end*
G04 #@! TA.AperFunction,SMDPad,CuDef*
%ADD10RoundRect,0.200000X-0.200000X-0.275000X0.200000X-0.275000X0.200000X0.275000X-0.200000X0.275000X0*%
G04 #@! TD*
G04 #@! TA.AperFunction,ComponentPad*
%ADD11C,2.000000*%
G04 #@! TD*
G04 #@! TA.AperFunction,ComponentPad*
%ADD12C,1.500000*%
G04 #@! TD*
G04 #@! TA.AperFunction,SMDPad,CuDef*
%ADD13R,1.300000X1.300000*%
G04 #@! TD*
G04 #@! TA.AperFunction,SMDPad,CuDef*
%ADD14R,1.300000X3.600000*%
G04 #@! TD*
G04 #@! TA.AperFunction,SMDPad,CuDef*
%ADD15RoundRect,0.200000X0.200000X0.275000X-0.200000X0.275000X-0.200000X-0.275000X0.200000X-0.275000X0*%
G04 #@! TD*
G04 #@! TA.AperFunction,SMDPad,CuDef*
%ADD16R,1.200000X2.500000*%
G04 #@! TD*
G04 #@! TA.AperFunction,SMDPad,CuDef*
%ADD17R,1.520000X3.050000*%
G04 #@! TD*
G04 #@! TA.AperFunction,SMDPad,CuDef*
%ADD18RoundRect,0.225000X-0.225000X-0.250000X0.225000X-0.250000X0.225000X0.250000X-0.225000X0.250000X0*%
G04 #@! TD*
G04 #@! TA.AperFunction,SMDPad,CuDef*
%ADD19RoundRect,0.065000X0.065000X-0.365000X0.065000X0.365000X-0.065000X0.365000X-0.065000X-0.365000X0*%
G04 #@! TD*
G04 #@! TA.AperFunction,SMDPad,CuDef*
%ADD20RoundRect,0.065000X-0.065000X0.365000X-0.065000X-0.365000X0.065000X-0.365000X0.065000X0.365000X0*%
G04 #@! TD*
G04 #@! TA.AperFunction,SMDPad,CuDef*
%ADD21R,2.400000X1.400000*%
G04 #@! TD*
G04 #@! TA.AperFunction,SMDPad,CuDef*
%ADD22RoundRect,0.200000X-0.275000X0.200000X-0.275000X-0.200000X0.275000X-0.200000X0.275000X0.200000X0*%
G04 #@! TD*
G04 #@! TA.AperFunction,ComponentPad*
%ADD23O,1.524000X3.048000*%
G04 #@! TD*
G04 #@! TA.AperFunction,ComponentPad*
%ADD24O,3.048000X1.524000*%
G04 #@! TD*
G04 #@! TA.AperFunction,SMDPad,CuDef*
%ADD25RoundRect,0.225000X0.225000X0.250000X-0.225000X0.250000X-0.225000X-0.250000X0.225000X-0.250000X0*%
G04 #@! TD*
G04 #@! TA.AperFunction,SMDPad,CuDef*
%ADD26RoundRect,0.225000X-0.250000X0.225000X-0.250000X-0.225000X0.250000X-0.225000X0.250000X0.225000X0*%
G04 #@! TD*
G04 #@! TA.AperFunction,ViaPad*
%ADD27C,0.800000*%
G04 #@! TD*
G04 #@! TA.AperFunction,ViaPad*
%ADD28C,0.600000*%
G04 #@! TD*
G04 #@! TA.AperFunction,Conductor*
%ADD29C,0.500000*%
G04 #@! TD*
G04 #@! TA.AperFunction,Conductor*
%ADD30C,0.200000*%
G04 #@! TD*
G04 #@! TA.AperFunction,Conductor*
%ADD31C,1.000000*%
G04 #@! TD*
G04 APERTURE END LIST*
D10*
X149784000Y-99085000D03*
X151434000Y-99085000D03*
D11*
X133858000Y-104902000D03*
D12*
X137752000Y-106680000D03*
X137752000Y-104140000D03*
X137752000Y-99060000D03*
X137752000Y-96520000D03*
X137752000Y-93980000D03*
D11*
X133858000Y-92202000D03*
X133858000Y-102362000D03*
X133858000Y-94680000D03*
X133858000Y-99760000D03*
X133858000Y-89662000D03*
D13*
X156970000Y-103110000D03*
X156970000Y-105410000D03*
X156970000Y-107710000D03*
D14*
X163070000Y-105410000D03*
D11*
X137922000Y-85852000D03*
D15*
X154749000Y-99314000D03*
X153099000Y-99314000D03*
D16*
X152360000Y-86404000D03*
X149860000Y-86404000D03*
X147360000Y-86404000D03*
X152360000Y-91904000D03*
X149860000Y-91904000D03*
X147360000Y-91904000D03*
D17*
X143889000Y-102616000D03*
X146179000Y-102616000D03*
D18*
X148069000Y-103886000D03*
X149619000Y-103886000D03*
D19*
X151908000Y-104305000D03*
X152408000Y-104305000D03*
X152908000Y-104305000D03*
X153408000Y-104305000D03*
X153908000Y-104305000D03*
D20*
X153908000Y-101435000D03*
X153408000Y-101435000D03*
X152908000Y-101435000D03*
X152408000Y-101435000D03*
X151908000Y-101435000D03*
D21*
X152908000Y-102870000D03*
D22*
X151384000Y-94425000D03*
X151384000Y-96075000D03*
D23*
X163132000Y-99778050D03*
D24*
X165690050Y-97220000D03*
D23*
X163132000Y-94661950D03*
D25*
X149619000Y-106426000D03*
X148069000Y-106426000D03*
D18*
X152387000Y-107188000D03*
X153937000Y-107188000D03*
X149834000Y-97561000D03*
X151384000Y-97561000D03*
D26*
X156972000Y-99301000D03*
X156972000Y-100851000D03*
D15*
X156273000Y-96266000D03*
X154623000Y-96266000D03*
D11*
X133858000Y-97220000D03*
D26*
X148320000Y-99390000D03*
X148320000Y-100940000D03*
D17*
X143889000Y-107442000D03*
X146179000Y-107442000D03*
D18*
X154673000Y-97790000D03*
X156223000Y-97790000D03*
D11*
X157480000Y-86106000D03*
D27*
X153500000Y-102600000D03*
D28*
X139446000Y-90170000D03*
X157734000Y-107710000D03*
D27*
X152527000Y-93853000D03*
D28*
X146558000Y-100584000D03*
X161798000Y-90932000D03*
D27*
X152146000Y-103000000D03*
X146386665Y-105146693D03*
X155194000Y-86360000D03*
X156464000Y-89662000D03*
D28*
X142875000Y-95758000D03*
X140208000Y-87630000D03*
D27*
X151586002Y-100226953D03*
D28*
X158750000Y-103124000D03*
X152654000Y-88392000D03*
D27*
X154940000Y-100584000D03*
X145948459Y-92113459D03*
X161163000Y-92329000D03*
X144483759Y-90932000D03*
D28*
X140716000Y-92964000D03*
X157734000Y-105410000D03*
X147574000Y-93980000D03*
D27*
X153670000Y-92964000D03*
D29*
X163132000Y-95423950D02*
X163161050Y-95423950D01*
X152908000Y-102870000D02*
X154953000Y-102870000D01*
D30*
X153408000Y-106659000D02*
X153937000Y-107188000D01*
D29*
X149619000Y-105410000D02*
X149619000Y-103886000D01*
X147752000Y-99390000D02*
X148320000Y-99390000D01*
X149609693Y-105146693D02*
X146386665Y-105146693D01*
X151955000Y-94425000D02*
X151384000Y-94425000D01*
X146558000Y-100584000D02*
X147752000Y-99390000D01*
X149619000Y-105410000D02*
X149619000Y-105156000D01*
D30*
X153408000Y-103370000D02*
X153408000Y-104305000D01*
D29*
X149619000Y-106426000D02*
X149619000Y-105410000D01*
D30*
X153408000Y-104305000D02*
X153408000Y-106659000D01*
D29*
X157734000Y-107710000D02*
X156970000Y-107710000D01*
X152527000Y-93853000D02*
X151955000Y-94425000D01*
X154953000Y-102870000D02*
X156972000Y-100851000D01*
X149619000Y-105156000D02*
X149609693Y-105146693D01*
X149797000Y-99885000D02*
X149797000Y-99314000D01*
D30*
X151908000Y-100548951D02*
X151908000Y-101435000D01*
X149797000Y-99324000D02*
X149797000Y-99314000D01*
D29*
X149847000Y-99264000D02*
X149797000Y-99314000D01*
X148320000Y-100940000D02*
X148742000Y-100940000D01*
D30*
X151586002Y-100226953D02*
X151908000Y-100548951D01*
X151586002Y-100226953D02*
X150709953Y-100226953D01*
D29*
X164599050Y-97549000D02*
X164928050Y-97220000D01*
X149834000Y-97561000D02*
X149834000Y-99035000D01*
D30*
X150709953Y-100226953D02*
X149797000Y-99314000D01*
D29*
X158750000Y-103124000D02*
X158736000Y-103110000D01*
X148742000Y-100940000D02*
X149797000Y-99885000D01*
X158736000Y-103110000D02*
X156970000Y-103110000D01*
D30*
X153908000Y-101435000D02*
X153908000Y-100854000D01*
D29*
X156273000Y-97740000D02*
X156223000Y-97790000D01*
X156223000Y-98552000D02*
X156972000Y-99301000D01*
X155194000Y-100584000D02*
X154940000Y-100584000D01*
X156972000Y-99301000D02*
X156477000Y-99301000D01*
X156223000Y-97790000D02*
X156223000Y-98552000D01*
D30*
X154178000Y-100584000D02*
X154940000Y-100584000D01*
X153908000Y-100854000D02*
X154178000Y-100584000D01*
D29*
X156273000Y-96266000D02*
X156273000Y-97740000D01*
X156477000Y-99301000D02*
X155194000Y-100584000D01*
D31*
X133858000Y-104902000D02*
X135128000Y-104902000D01*
X135128000Y-104902000D02*
X136906000Y-106680000D01*
X136906000Y-106680000D02*
X137752000Y-106680000D01*
D29*
X145499759Y-89916000D02*
X148336000Y-89916000D01*
X144483759Y-90932000D02*
X145499759Y-89916000D01*
X149860000Y-91440000D02*
X149860000Y-91904000D01*
X148336000Y-89916000D02*
X149860000Y-91440000D01*
D31*
X139700000Y-99568000D02*
X139700000Y-95928000D01*
X142748000Y-102616000D02*
X139700000Y-99568000D01*
X139700000Y-95928000D02*
X137752000Y-93980000D01*
X143889000Y-102616000D02*
X142748000Y-102616000D01*
X137752000Y-100797000D02*
X143889000Y-106934000D01*
X143889000Y-106934000D02*
X143889000Y-107442000D01*
X137752000Y-99060000D02*
X137752000Y-100797000D01*
D29*
X140716000Y-92964000D02*
X147276000Y-86404000D01*
X147276000Y-86404000D02*
X147360000Y-86404000D01*
D31*
X163070000Y-99078050D02*
X163132000Y-99016050D01*
X163070000Y-105410000D02*
X163070000Y-99078050D01*
D29*
X157734000Y-105410000D02*
X156970000Y-105410000D01*
X147574000Y-92118000D02*
X147360000Y-91904000D01*
X147574000Y-93980000D02*
X147574000Y-92118000D01*
X147360000Y-92416000D02*
X147360000Y-91904000D01*
X149860000Y-86404000D02*
X149860000Y-88900000D01*
X153670000Y-92964000D02*
X153420000Y-92964000D01*
X153420000Y-92964000D02*
X152360000Y-91904000D01*
X152360000Y-91400000D02*
X152360000Y-91904000D01*
X149860000Y-88900000D02*
X152360000Y-91400000D01*
X146304000Y-103249000D02*
X146179000Y-103124000D01*
X146068000Y-103013000D02*
X146179000Y-103124000D01*
X146304000Y-103249000D02*
X146304000Y-103886000D01*
D30*
X152908000Y-106667000D02*
X152387000Y-107188000D01*
X152908000Y-104305000D02*
X152908000Y-106667000D01*
D29*
X154749000Y-99314000D02*
X154749000Y-97866000D01*
X154673000Y-96316000D02*
X154623000Y-96266000D01*
D30*
X153408000Y-100655000D02*
X154749000Y-99314000D01*
D29*
X154673000Y-97790000D02*
X154673000Y-96316000D01*
D30*
X153408000Y-101435000D02*
X153408000Y-100655000D01*
D29*
X154749000Y-97866000D02*
X154673000Y-97790000D01*
D30*
X152408000Y-100059000D02*
X151447000Y-99098000D01*
X152408000Y-101435000D02*
X152408000Y-100059000D01*
D29*
X151397000Y-99264000D02*
X151447000Y-99314000D01*
X151384000Y-97561000D02*
X151384000Y-96075000D01*
X151384000Y-97561000D02*
X151384000Y-99035000D01*
D30*
X152908000Y-101435000D02*
X152908000Y-99505000D01*
X152908000Y-99505000D02*
X153099000Y-99314000D01*
G04 #@! TA.AperFunction,Conductor*
G36*
X154239918Y-103974528D02*
G01*
X154283342Y-104006391D01*
X155888820Y-105841223D01*
X155918151Y-105904638D01*
X155919500Y-105922877D01*
X155919500Y-106091517D01*
X155922877Y-106112837D01*
X155934354Y-106185304D01*
X155942484Y-106201261D01*
X155956000Y-106257555D01*
X155956000Y-106862444D01*
X155942485Y-106918738D01*
X155934352Y-106934698D01*
X155919500Y-107028475D01*
X155919500Y-108189137D01*
X155899815Y-108256176D01*
X155883181Y-108276818D01*
X155230319Y-108929681D01*
X155168996Y-108963166D01*
X155142638Y-108966000D01*
X145666000Y-108966000D01*
X145598961Y-108946315D01*
X145553206Y-108893511D01*
X145542000Y-108842000D01*
X145542000Y-106042000D01*
X145561685Y-105974961D01*
X145614489Y-105929206D01*
X145666000Y-105918000D01*
X146146157Y-105918000D01*
X146187109Y-105924958D01*
X146197478Y-105928585D01*
X146207410Y-105932061D01*
X146207417Y-105932061D01*
X146207418Y-105932062D01*
X146386661Y-105952258D01*
X146386665Y-105952258D01*
X146386669Y-105952258D01*
X146565911Y-105932062D01*
X146565910Y-105932062D01*
X146565920Y-105932061D01*
X146578151Y-105927781D01*
X146586221Y-105924958D01*
X146627173Y-105918000D01*
X148252048Y-105918000D01*
X148319087Y-105937685D01*
X148364842Y-105990489D01*
X148367179Y-105995948D01*
X148843999Y-107187999D01*
X148844000Y-107188000D01*
X148997043Y-107188000D01*
X149060163Y-107205267D01*
X149143610Y-107254618D01*
X149295373Y-107298709D01*
X149330837Y-107301500D01*
X149907162Y-107301499D01*
X149942627Y-107298709D01*
X150094390Y-107254618D01*
X150177836Y-107205267D01*
X150240957Y-107188000D01*
X151412501Y-107188000D01*
X151479540Y-107207685D01*
X151525295Y-107260489D01*
X151536501Y-107312000D01*
X151536501Y-107501175D01*
X151539291Y-107536627D01*
X151583380Y-107688385D01*
X151583382Y-107688390D01*
X151663827Y-107824416D01*
X151663834Y-107824425D01*
X151775574Y-107936165D01*
X151775578Y-107936168D01*
X151775580Y-107936170D01*
X151911610Y-108016618D01*
X152063373Y-108060709D01*
X152098837Y-108063500D01*
X152675162Y-108063499D01*
X152710627Y-108060709D01*
X152862390Y-108016618D01*
X152998420Y-107936170D01*
X152998425Y-107936165D01*
X153074319Y-107860272D01*
X153135642Y-107826787D01*
X153205334Y-107831771D01*
X153249681Y-107860272D01*
X153325574Y-107936165D01*
X153325578Y-107936168D01*
X153325580Y-107936170D01*
X153461610Y-108016618D01*
X153613373Y-108060709D01*
X153648837Y-108063500D01*
X154225162Y-108063499D01*
X154260627Y-108060709D01*
X154412390Y-108016618D01*
X154548420Y-107936170D01*
X154660170Y-107824420D01*
X154740618Y-107688390D01*
X154784709Y-107536627D01*
X154787500Y-107501163D01*
X154787499Y-106874838D01*
X154784709Y-106839373D01*
X154740618Y-106687610D01*
X154660170Y-106551580D01*
X154660168Y-106551578D01*
X154660165Y-106551574D01*
X154548425Y-106439834D01*
X154548416Y-106439827D01*
X154412390Y-106359382D01*
X154412385Y-106359380D01*
X154260633Y-106315292D01*
X154260620Y-106315290D01*
X154225170Y-106312500D01*
X154225163Y-106312500D01*
X154032500Y-106312500D01*
X153965461Y-106292815D01*
X153919706Y-106240011D01*
X153908500Y-106188500D01*
X153908500Y-104855892D01*
X153915459Y-104814937D01*
X153921676Y-104797171D01*
X153935551Y-104757519D01*
X153938500Y-104726071D01*
X153938499Y-104094498D01*
X153958183Y-104027460D01*
X154010987Y-103981705D01*
X154062499Y-103970499D01*
X154139522Y-103970499D01*
X154170624Y-103965573D01*
X154239918Y-103974528D01*
G37*
G04 #@! TD.AperFunction*
G04 #@! TA.AperFunction,Conductor*
G36*
X147487907Y-101111685D02*
G01*
X147533662Y-101164489D01*
X147543151Y-101202573D01*
X147544059Y-101202465D01*
X147544500Y-101206137D01*
X147544500Y-101206144D01*
X147549505Y-101247822D01*
X147554640Y-101290588D01*
X147607636Y-101424976D01*
X147694921Y-101540078D01*
X147810023Y-101627363D01*
X147810024Y-101627363D01*
X147810025Y-101627364D01*
X147944410Y-101680359D01*
X148028856Y-101690500D01*
X148028862Y-101690500D01*
X148611138Y-101690500D01*
X148611144Y-101690500D01*
X148695590Y-101680359D01*
X148829975Y-101627364D01*
X148945078Y-101540078D01*
X148988461Y-101482869D01*
X149044652Y-101441347D01*
X149114373Y-101436795D01*
X149126463Y-101440154D01*
X149692746Y-101628915D01*
X149699465Y-101631373D01*
X150012246Y-101756196D01*
X150025247Y-101762279D01*
X150318321Y-101920723D01*
X150330537Y-101928273D01*
X150603316Y-102119545D01*
X150614580Y-102128460D01*
X150866095Y-102352389D01*
X150871321Y-102357321D01*
X151371181Y-102857181D01*
X151404666Y-102918504D01*
X151407500Y-102944862D01*
X151407500Y-103614856D01*
X151407502Y-103614882D01*
X151410413Y-103639987D01*
X151410415Y-103639991D01*
X151455793Y-103742764D01*
X151455794Y-103742765D01*
X151535235Y-103822206D01*
X151638009Y-103867585D01*
X151663135Y-103870500D01*
X152304267Y-103870499D01*
X152371306Y-103890183D01*
X152402641Y-103919010D01*
X152414368Y-103934292D01*
X152430555Y-103962328D01*
X152468061Y-104052876D01*
X152477500Y-104100327D01*
X152477500Y-104452297D01*
X152457815Y-104519336D01*
X152456600Y-104521191D01*
X152447706Y-104534501D01*
X152413498Y-104568709D01*
X152351510Y-104610129D01*
X152306809Y-104628644D01*
X152221480Y-104645617D01*
X152197289Y-104648000D01*
X151832687Y-104648000D01*
X151824327Y-104647718D01*
X151801726Y-104646190D01*
X151568953Y-104630460D01*
X151552385Y-104628210D01*
X151305775Y-104577598D01*
X151289659Y-104573140D01*
X151052093Y-104489806D01*
X151036724Y-104483220D01*
X150812529Y-104368682D01*
X150798186Y-104360088D01*
X150588006Y-104214043D01*
X150581312Y-104209049D01*
X150416038Y-104076830D01*
X150375986Y-104019579D01*
X150369500Y-103980002D01*
X150369500Y-103594862D01*
X150369500Y-103594856D01*
X150359359Y-103510410D01*
X150306364Y-103376025D01*
X150306363Y-103376024D01*
X150306363Y-103376023D01*
X150219078Y-103260921D01*
X150103976Y-103173636D01*
X149969588Y-103120640D01*
X149926242Y-103115435D01*
X149885144Y-103110500D01*
X149352856Y-103110500D01*
X149314841Y-103115065D01*
X149268411Y-103120640D01*
X149134023Y-103173636D01*
X149018921Y-103260921D01*
X148931636Y-103376023D01*
X148878640Y-103510411D01*
X148873065Y-103556841D01*
X148868500Y-103594856D01*
X148868500Y-103594862D01*
X148868500Y-103609891D01*
X148862008Y-103632000D01*
X148844000Y-103632000D01*
X148463000Y-103886000D01*
X148277585Y-103990811D01*
X148261117Y-103998584D01*
X148070875Y-104071826D01*
X148053444Y-104077104D01*
X147854519Y-104121692D01*
X147836504Y-104124359D01*
X147628645Y-104139665D01*
X147619539Y-104140000D01*
X146817412Y-104140000D01*
X146806605Y-104139528D01*
X146775897Y-104136841D01*
X146602274Y-104121651D01*
X146580988Y-104117898D01*
X146388112Y-104066217D01*
X146367801Y-104058824D01*
X146186834Y-103974437D01*
X146168116Y-103963630D01*
X146004543Y-103849095D01*
X145987985Y-103835201D01*
X145846798Y-103694014D01*
X145832904Y-103677456D01*
X145718369Y-103513883D01*
X145707562Y-103495165D01*
X145623175Y-103314198D01*
X145615782Y-103293887D01*
X145566644Y-103110500D01*
X145564099Y-103101004D01*
X145560348Y-103079724D01*
X145548549Y-102944862D01*
X145542472Y-102875395D01*
X145542000Y-102864588D01*
X145542000Y-102367411D01*
X145542472Y-102356604D01*
X145560348Y-102152275D01*
X145564099Y-102130996D01*
X145615783Y-101938107D01*
X145623175Y-101917801D01*
X145707563Y-101736831D01*
X145718369Y-101718116D01*
X145832904Y-101554543D01*
X145846792Y-101537991D01*
X145987991Y-101396792D01*
X146004543Y-101382904D01*
X146168116Y-101268369D01*
X146186831Y-101257563D01*
X146349316Y-101181794D01*
X146417904Y-101171238D01*
X146508453Y-101183159D01*
X146557999Y-101189682D01*
X146558000Y-101189682D01*
X146558001Y-101189682D01*
X146610254Y-101182802D01*
X146714762Y-101169044D01*
X146791992Y-101137054D01*
X146868351Y-101105426D01*
X146868776Y-101106452D01*
X146922708Y-101092000D01*
X147420868Y-101092000D01*
X147487907Y-101111685D01*
G37*
G04 #@! TD.AperFunction*
M02*
