G04 #@! TF.GenerationSoftware,KiCad,Pcbnew,7.0.10-7.0.10~ubuntu22.04.1*
G04 #@! TF.CreationDate,2024-07-17T19:08:49+02:00*
G04 #@! TF.ProjectId,prototype_adc2,70726f74-6f74-4797-9065-5f616463322e,rev?*
G04 #@! TF.SameCoordinates,Original*
G04 #@! TF.FileFunction,Legend,Bot*
G04 #@! TF.FilePolarity,Positive*
%FSLAX46Y46*%
G04 Gerber Fmt 4.6, Leading zero omitted, Abs format (unit mm)*
G04 Created by KiCad (PCBNEW 7.0.10-7.0.10~ubuntu22.04.1) date 2024-07-17 19:08:49*
%MOMM*%
%LPD*%
G01*
G04 APERTURE LIST*
G04 Aperture macros list*
%AMRoundRect*
0 Rectangle with rounded corners*
0 $1 Rounding radius*
0 $2 $3 $4 $5 $6 $7 $8 $9 X,Y pos of 4 corners*
0 Add a 4 corners polygon primitive as box body*
4,1,4,$2,$3,$4,$5,$6,$7,$8,$9,$2,$3,0*
0 Add four circle primitives for the rounded corners*
1,1,$1+$1,$2,$3*
1,1,$1+$1,$4,$5*
1,1,$1+$1,$6,$7*
1,1,$1+$1,$8,$9*
0 Add four rect primitives between the rounded corners*
20,1,$1+$1,$2,$3,$4,$5,0*
20,1,$1+$1,$4,$5,$6,$7,0*
20,1,$1+$1,$6,$7,$8,$9,0*
20,1,$1+$1,$8,$9,$2,$3,0*%
G04 Aperture macros list end*
%ADD10C,0.200000*%
%ADD11C,0.120000*%
%ADD12C,0.152400*%
%ADD13C,0.100000*%
%ADD14C,0.127000*%
%ADD15C,2.000000*%
%ADD16C,1.627000*%
%ADD17C,1.500000*%
%ADD18O,1.651000X3.175000*%
%ADD19O,3.175000X1.651000*%
%ADD20RoundRect,0.225000X0.250000X-0.225000X0.250000X0.225000X-0.250000X0.225000X-0.250000X-0.225000X0*%
%ADD21RoundRect,0.200000X0.200000X0.275000X-0.200000X0.275000X-0.200000X-0.275000X0.200000X-0.275000X0*%
%ADD22RoundRect,0.200000X-0.200000X-0.275000X0.200000X-0.275000X0.200000X0.275000X-0.200000X0.275000X0*%
%ADD23RoundRect,0.225000X-0.250000X0.225000X-0.250000X-0.225000X0.250000X-0.225000X0.250000X0.225000X0*%
%ADD24RoundRect,0.225000X0.225000X0.250000X-0.225000X0.250000X-0.225000X-0.250000X0.225000X-0.250000X0*%
%ADD25RoundRect,0.063500X0.990600X0.279400X-0.990600X0.279400X-0.990600X-0.279400X0.990600X-0.279400X0*%
%ADD26RoundRect,0.100500X0.951500X0.301500X-0.951500X0.301500X-0.951500X-0.301500X0.951500X-0.301500X0*%
%ADD27RoundRect,0.200000X0.275000X-0.200000X0.275000X0.200000X-0.275000X0.200000X-0.275000X-0.200000X0*%
%ADD28RoundRect,0.225000X-0.225000X-0.250000X0.225000X-0.250000X0.225000X0.250000X-0.225000X0.250000X0*%
%ADD29RoundRect,0.063500X0.279400X-0.990600X0.279400X0.990600X-0.279400X0.990600X-0.279400X-0.990600X0*%
%ADD30RoundRect,0.200000X-0.275000X0.200000X-0.275000X-0.200000X0.275000X-0.200000X0.275000X0.200000X0*%
%ADD31RoundRect,0.102000X0.635000X-0.279400X0.635000X0.279400X-0.635000X0.279400X-0.635000X-0.279400X0*%
G04 APERTURE END LIST*
D10*
X136652000Y-97536000D02*
X136652000Y-95504000D01*
X132334000Y-103378000D02*
X132334000Y-101346000D01*
X136652000Y-105156000D02*
X136652000Y-103124000D01*
X132334000Y-93218000D02*
X132334000Y-88646000D01*
X146235945Y-94069504D02*
X145759755Y-94069504D01*
X146331183Y-94355219D02*
X145997850Y-93355219D01*
X145997850Y-93355219D02*
X145664517Y-94355219D01*
X145378802Y-94069504D02*
X144902612Y-94069504D01*
X145474040Y-94355219D02*
X145140707Y-93355219D01*
X145140707Y-93355219D02*
X144807374Y-94355219D01*
X147505945Y-103467504D02*
X147029755Y-103467504D01*
X147601183Y-103753219D02*
X147267850Y-102753219D01*
X147267850Y-102753219D02*
X146934517Y-103753219D01*
X146601183Y-103753219D02*
X146601183Y-102753219D01*
X146601183Y-102753219D02*
X146363088Y-102753219D01*
X146363088Y-102753219D02*
X146220231Y-102800838D01*
X146220231Y-102800838D02*
X146124993Y-102896076D01*
X146124993Y-102896076D02*
X146077374Y-102991314D01*
X146077374Y-102991314D02*
X146029755Y-103181790D01*
X146029755Y-103181790D02*
X146029755Y-103324647D01*
X146029755Y-103324647D02*
X146077374Y-103515123D01*
X146077374Y-103515123D02*
X146124993Y-103610361D01*
X146124993Y-103610361D02*
X146220231Y-103705600D01*
X146220231Y-103705600D02*
X146363088Y-103753219D01*
X146363088Y-103753219D02*
X146601183Y-103753219D01*
X145029755Y-103657980D02*
X145077374Y-103705600D01*
X145077374Y-103705600D02*
X145220231Y-103753219D01*
X145220231Y-103753219D02*
X145315469Y-103753219D01*
X145315469Y-103753219D02*
X145458326Y-103705600D01*
X145458326Y-103705600D02*
X145553564Y-103610361D01*
X145553564Y-103610361D02*
X145601183Y-103515123D01*
X145601183Y-103515123D02*
X145648802Y-103324647D01*
X145648802Y-103324647D02*
X145648802Y-103181790D01*
X145648802Y-103181790D02*
X145601183Y-102991314D01*
X145601183Y-102991314D02*
X145553564Y-102896076D01*
X145553564Y-102896076D02*
X145458326Y-102800838D01*
X145458326Y-102800838D02*
X145315469Y-102753219D01*
X145315469Y-102753219D02*
X145220231Y-102753219D01*
X145220231Y-102753219D02*
X145077374Y-102800838D01*
X145077374Y-102800838D02*
X145029755Y-102848457D01*
X142933945Y-86179600D02*
X142791088Y-86227219D01*
X142791088Y-86227219D02*
X142552993Y-86227219D01*
X142552993Y-86227219D02*
X142457755Y-86179600D01*
X142457755Y-86179600D02*
X142410136Y-86131980D01*
X142410136Y-86131980D02*
X142362517Y-86036742D01*
X142362517Y-86036742D02*
X142362517Y-85941504D01*
X142362517Y-85941504D02*
X142410136Y-85846266D01*
X142410136Y-85846266D02*
X142457755Y-85798647D01*
X142457755Y-85798647D02*
X142552993Y-85751028D01*
X142552993Y-85751028D02*
X142743469Y-85703409D01*
X142743469Y-85703409D02*
X142838707Y-85655790D01*
X142838707Y-85655790D02*
X142886326Y-85608171D01*
X142886326Y-85608171D02*
X142933945Y-85512933D01*
X142933945Y-85512933D02*
X142933945Y-85417695D01*
X142933945Y-85417695D02*
X142886326Y-85322457D01*
X142886326Y-85322457D02*
X142838707Y-85274838D01*
X142838707Y-85274838D02*
X142743469Y-85227219D01*
X142743469Y-85227219D02*
X142505374Y-85227219D01*
X142505374Y-85227219D02*
X142362517Y-85274838D01*
X141981564Y-85941504D02*
X141505374Y-85941504D01*
X142076802Y-86227219D02*
X141743469Y-85227219D01*
X141743469Y-85227219D02*
X141410136Y-86227219D01*
X135292495Y-88831945D02*
X135292495Y-88355755D01*
X135006780Y-88927183D02*
X136006780Y-88593850D01*
X136006780Y-88593850D02*
X135006780Y-88260517D01*
X137916266Y-90031673D02*
X137916266Y-90793578D01*
X138297219Y-90412625D02*
X137535314Y-90412625D01*
X137297219Y-91745958D02*
X137297219Y-91269768D01*
X137297219Y-91269768D02*
X137773409Y-91222149D01*
X137773409Y-91222149D02*
X137725790Y-91269768D01*
X137725790Y-91269768D02*
X137678171Y-91365006D01*
X137678171Y-91365006D02*
X137678171Y-91603101D01*
X137678171Y-91603101D02*
X137725790Y-91698339D01*
X137725790Y-91698339D02*
X137773409Y-91745958D01*
X137773409Y-91745958D02*
X137868647Y-91793577D01*
X137868647Y-91793577D02*
X138106742Y-91793577D01*
X138106742Y-91793577D02*
X138201980Y-91745958D01*
X138201980Y-91745958D02*
X138249600Y-91698339D01*
X138249600Y-91698339D02*
X138297219Y-91603101D01*
X138297219Y-91603101D02*
X138297219Y-91365006D01*
X138297219Y-91365006D02*
X138249600Y-91269768D01*
X138249600Y-91269768D02*
X138201980Y-91222149D01*
X137297219Y-92079292D02*
X138297219Y-92412625D01*
X138297219Y-92412625D02*
X137297219Y-92745958D01*
X135360457Y-103700054D02*
X135312838Y-103747673D01*
X135312838Y-103747673D02*
X135265219Y-103842911D01*
X135265219Y-103842911D02*
X135265219Y-104081006D01*
X135265219Y-104081006D02*
X135312838Y-104176244D01*
X135312838Y-104176244D02*
X135360457Y-104223863D01*
X135360457Y-104223863D02*
X135455695Y-104271482D01*
X135455695Y-104271482D02*
X135550933Y-104271482D01*
X135550933Y-104271482D02*
X135693790Y-104223863D01*
X135693790Y-104223863D02*
X136265219Y-103652435D01*
X136265219Y-103652435D02*
X136265219Y-104271482D01*
X135598552Y-105128625D02*
X136265219Y-105128625D01*
X135217600Y-104890530D02*
X135931885Y-104652435D01*
X135931885Y-104652435D02*
X135931885Y-105271482D01*
X135265219Y-105509578D02*
X136265219Y-105842911D01*
X136265219Y-105842911D02*
X135265219Y-106176244D01*
X135006780Y-97674326D02*
X136006780Y-97674326D01*
X136006780Y-97674326D02*
X136006780Y-97436231D01*
X136006780Y-97436231D02*
X135959161Y-97293374D01*
X135959161Y-97293374D02*
X135863923Y-97198136D01*
X135863923Y-97198136D02*
X135768685Y-97150517D01*
X135768685Y-97150517D02*
X135578209Y-97102898D01*
X135578209Y-97102898D02*
X135435352Y-97102898D01*
X135435352Y-97102898D02*
X135244876Y-97150517D01*
X135244876Y-97150517D02*
X135149638Y-97198136D01*
X135149638Y-97198136D02*
X135054400Y-97293374D01*
X135054400Y-97293374D02*
X135006780Y-97436231D01*
X135006780Y-97436231D02*
X135006780Y-97674326D01*
X137916266Y-100191673D02*
X137916266Y-100953578D01*
X137297219Y-101905958D02*
X137297219Y-101429768D01*
X137297219Y-101429768D02*
X137773409Y-101382149D01*
X137773409Y-101382149D02*
X137725790Y-101429768D01*
X137725790Y-101429768D02*
X137678171Y-101525006D01*
X137678171Y-101525006D02*
X137678171Y-101763101D01*
X137678171Y-101763101D02*
X137725790Y-101858339D01*
X137725790Y-101858339D02*
X137773409Y-101905958D01*
X137773409Y-101905958D02*
X137868647Y-101953577D01*
X137868647Y-101953577D02*
X138106742Y-101953577D01*
X138106742Y-101953577D02*
X138201980Y-101905958D01*
X138201980Y-101905958D02*
X138249600Y-101858339D01*
X138249600Y-101858339D02*
X138297219Y-101763101D01*
X138297219Y-101763101D02*
X138297219Y-101525006D01*
X138297219Y-101525006D02*
X138249600Y-101429768D01*
X138249600Y-101429768D02*
X138201980Y-101382149D01*
X137297219Y-102239292D02*
X138297219Y-102572625D01*
X138297219Y-102572625D02*
X137297219Y-102905958D01*
X135102019Y-94816898D02*
X135054400Y-94864517D01*
X135054400Y-94864517D02*
X135006780Y-95007374D01*
X135006780Y-95007374D02*
X135006780Y-95102612D01*
X135006780Y-95102612D02*
X135054400Y-95245469D01*
X135054400Y-95245469D02*
X135149638Y-95340707D01*
X135149638Y-95340707D02*
X135244876Y-95388326D01*
X135244876Y-95388326D02*
X135435352Y-95435945D01*
X135435352Y-95435945D02*
X135578209Y-95435945D01*
X135578209Y-95435945D02*
X135768685Y-95388326D01*
X135768685Y-95388326D02*
X135863923Y-95340707D01*
X135863923Y-95340707D02*
X135959161Y-95245469D01*
X135959161Y-95245469D02*
X136006780Y-95102612D01*
X136006780Y-95102612D02*
X136006780Y-95007374D01*
X136006780Y-95007374D02*
X135959161Y-94864517D01*
X135959161Y-94864517D02*
X135911542Y-94816898D01*
X135006780Y-94388326D02*
X136006780Y-94388326D01*
X135006780Y-93816898D02*
X135578209Y-94245469D01*
X136006780Y-93816898D02*
X135435352Y-94388326D01*
X166651183Y-88783219D02*
X166079755Y-88783219D01*
X166365469Y-89783219D02*
X166365469Y-88783219D01*
X165746421Y-89783219D02*
X165746421Y-88783219D01*
X165317850Y-89497504D02*
X164841660Y-89497504D01*
X165413088Y-89783219D02*
X165079755Y-88783219D01*
X165079755Y-88783219D02*
X164746422Y-89783219D01*
X135102019Y-99896898D02*
X135054400Y-99944517D01*
X135054400Y-99944517D02*
X135006780Y-100087374D01*
X135006780Y-100087374D02*
X135006780Y-100182612D01*
X135006780Y-100182612D02*
X135054400Y-100325469D01*
X135054400Y-100325469D02*
X135149638Y-100420707D01*
X135149638Y-100420707D02*
X135244876Y-100468326D01*
X135244876Y-100468326D02*
X135435352Y-100515945D01*
X135435352Y-100515945D02*
X135578209Y-100515945D01*
X135578209Y-100515945D02*
X135768685Y-100468326D01*
X135768685Y-100468326D02*
X135863923Y-100420707D01*
X135863923Y-100420707D02*
X135959161Y-100325469D01*
X135959161Y-100325469D02*
X136006780Y-100182612D01*
X136006780Y-100182612D02*
X136006780Y-100087374D01*
X136006780Y-100087374D02*
X135959161Y-99944517D01*
X135959161Y-99944517D02*
X135911542Y-99896898D01*
X135054400Y-99515945D02*
X135006780Y-99373088D01*
X135006780Y-99373088D02*
X135006780Y-99134993D01*
X135006780Y-99134993D02*
X135054400Y-99039755D01*
X135054400Y-99039755D02*
X135102019Y-98992136D01*
X135102019Y-98992136D02*
X135197257Y-98944517D01*
X135197257Y-98944517D02*
X135292495Y-98944517D01*
X135292495Y-98944517D02*
X135387733Y-98992136D01*
X135387733Y-98992136D02*
X135435352Y-99039755D01*
X135435352Y-99039755D02*
X135482971Y-99134993D01*
X135482971Y-99134993D02*
X135530590Y-99325469D01*
X135530590Y-99325469D02*
X135578209Y-99420707D01*
X135578209Y-99420707D02*
X135625828Y-99468326D01*
X135625828Y-99468326D02*
X135721066Y-99515945D01*
X135721066Y-99515945D02*
X135816304Y-99515945D01*
X135816304Y-99515945D02*
X135911542Y-99468326D01*
X135911542Y-99468326D02*
X135959161Y-99420707D01*
X135959161Y-99420707D02*
X136006780Y-99325469D01*
X136006780Y-99325469D02*
X136006780Y-99087374D01*
X136006780Y-99087374D02*
X135959161Y-98944517D01*
X156820980Y-87971333D02*
X156868600Y-87923714D01*
X156868600Y-87923714D02*
X156916219Y-87780857D01*
X156916219Y-87780857D02*
X156916219Y-87685619D01*
X156916219Y-87685619D02*
X156868600Y-87542762D01*
X156868600Y-87542762D02*
X156773361Y-87447524D01*
X156773361Y-87447524D02*
X156678123Y-87399905D01*
X156678123Y-87399905D02*
X156487647Y-87352286D01*
X156487647Y-87352286D02*
X156344790Y-87352286D01*
X156344790Y-87352286D02*
X156154314Y-87399905D01*
X156154314Y-87399905D02*
X156059076Y-87447524D01*
X156059076Y-87447524D02*
X155963838Y-87542762D01*
X155963838Y-87542762D02*
X155916219Y-87685619D01*
X155916219Y-87685619D02*
X155916219Y-87780857D01*
X155916219Y-87780857D02*
X155963838Y-87923714D01*
X155963838Y-87923714D02*
X156011457Y-87971333D01*
X156011457Y-88352286D02*
X155963838Y-88399905D01*
X155963838Y-88399905D02*
X155916219Y-88495143D01*
X155916219Y-88495143D02*
X155916219Y-88733238D01*
X155916219Y-88733238D02*
X155963838Y-88828476D01*
X155963838Y-88828476D02*
X156011457Y-88876095D01*
X156011457Y-88876095D02*
X156106695Y-88923714D01*
X156106695Y-88923714D02*
X156201933Y-88923714D01*
X156201933Y-88923714D02*
X156344790Y-88876095D01*
X156344790Y-88876095D02*
X156916219Y-88304667D01*
X156916219Y-88304667D02*
X156916219Y-88923714D01*
X153328666Y-85796219D02*
X153661999Y-85320028D01*
X153900094Y-85796219D02*
X153900094Y-84796219D01*
X153900094Y-84796219D02*
X153519142Y-84796219D01*
X153519142Y-84796219D02*
X153423904Y-84843838D01*
X153423904Y-84843838D02*
X153376285Y-84891457D01*
X153376285Y-84891457D02*
X153328666Y-84986695D01*
X153328666Y-84986695D02*
X153328666Y-85129552D01*
X153328666Y-85129552D02*
X153376285Y-85224790D01*
X153376285Y-85224790D02*
X153423904Y-85272409D01*
X153423904Y-85272409D02*
X153519142Y-85320028D01*
X153519142Y-85320028D02*
X153900094Y-85320028D01*
X152423904Y-84796219D02*
X152900094Y-84796219D01*
X152900094Y-84796219D02*
X152947713Y-85272409D01*
X152947713Y-85272409D02*
X152900094Y-85224790D01*
X152900094Y-85224790D02*
X152804856Y-85177171D01*
X152804856Y-85177171D02*
X152566761Y-85177171D01*
X152566761Y-85177171D02*
X152471523Y-85224790D01*
X152471523Y-85224790D02*
X152423904Y-85272409D01*
X152423904Y-85272409D02*
X152376285Y-85367647D01*
X152376285Y-85367647D02*
X152376285Y-85605742D01*
X152376285Y-85605742D02*
X152423904Y-85700980D01*
X152423904Y-85700980D02*
X152471523Y-85748600D01*
X152471523Y-85748600D02*
X152566761Y-85796219D01*
X152566761Y-85796219D02*
X152804856Y-85796219D01*
X152804856Y-85796219D02*
X152900094Y-85748600D01*
X152900094Y-85748600D02*
X152947713Y-85700980D01*
X153328666Y-90368219D02*
X153661999Y-89892028D01*
X153900094Y-90368219D02*
X153900094Y-89368219D01*
X153900094Y-89368219D02*
X153519142Y-89368219D01*
X153519142Y-89368219D02*
X153423904Y-89415838D01*
X153423904Y-89415838D02*
X153376285Y-89463457D01*
X153376285Y-89463457D02*
X153328666Y-89558695D01*
X153328666Y-89558695D02*
X153328666Y-89701552D01*
X153328666Y-89701552D02*
X153376285Y-89796790D01*
X153376285Y-89796790D02*
X153423904Y-89844409D01*
X153423904Y-89844409D02*
X153519142Y-89892028D01*
X153519142Y-89892028D02*
X153900094Y-89892028D01*
X152471523Y-89701552D02*
X152471523Y-90368219D01*
X152709618Y-89320600D02*
X152947713Y-90034885D01*
X152947713Y-90034885D02*
X152328666Y-90034885D01*
X150470980Y-95369142D02*
X150518600Y-95321523D01*
X150518600Y-95321523D02*
X150566219Y-95178666D01*
X150566219Y-95178666D02*
X150566219Y-95083428D01*
X150566219Y-95083428D02*
X150518600Y-94940571D01*
X150518600Y-94940571D02*
X150423361Y-94845333D01*
X150423361Y-94845333D02*
X150328123Y-94797714D01*
X150328123Y-94797714D02*
X150137647Y-94750095D01*
X150137647Y-94750095D02*
X149994790Y-94750095D01*
X149994790Y-94750095D02*
X149804314Y-94797714D01*
X149804314Y-94797714D02*
X149709076Y-94845333D01*
X149709076Y-94845333D02*
X149613838Y-94940571D01*
X149613838Y-94940571D02*
X149566219Y-95083428D01*
X149566219Y-95083428D02*
X149566219Y-95178666D01*
X149566219Y-95178666D02*
X149613838Y-95321523D01*
X149613838Y-95321523D02*
X149661457Y-95369142D01*
X150566219Y-96321523D02*
X150566219Y-95750095D01*
X150566219Y-96035809D02*
X149566219Y-96035809D01*
X149566219Y-96035809D02*
X149709076Y-95940571D01*
X149709076Y-95940571D02*
X149804314Y-95845333D01*
X149804314Y-95845333D02*
X149851933Y-95750095D01*
X149566219Y-96654857D02*
X149566219Y-97273904D01*
X149566219Y-97273904D02*
X149947171Y-96940571D01*
X149947171Y-96940571D02*
X149947171Y-97083428D01*
X149947171Y-97083428D02*
X149994790Y-97178666D01*
X149994790Y-97178666D02*
X150042409Y-97226285D01*
X150042409Y-97226285D02*
X150137647Y-97273904D01*
X150137647Y-97273904D02*
X150375742Y-97273904D01*
X150375742Y-97273904D02*
X150470980Y-97226285D01*
X150470980Y-97226285D02*
X150518600Y-97178666D01*
X150518600Y-97178666D02*
X150566219Y-97083428D01*
X150566219Y-97083428D02*
X150566219Y-96797714D01*
X150566219Y-96797714D02*
X150518600Y-96702476D01*
X150518600Y-96702476D02*
X150470980Y-96654857D01*
X142342980Y-106291142D02*
X142390600Y-106243523D01*
X142390600Y-106243523D02*
X142438219Y-106100666D01*
X142438219Y-106100666D02*
X142438219Y-106005428D01*
X142438219Y-106005428D02*
X142390600Y-105862571D01*
X142390600Y-105862571D02*
X142295361Y-105767333D01*
X142295361Y-105767333D02*
X142200123Y-105719714D01*
X142200123Y-105719714D02*
X142009647Y-105672095D01*
X142009647Y-105672095D02*
X141866790Y-105672095D01*
X141866790Y-105672095D02*
X141676314Y-105719714D01*
X141676314Y-105719714D02*
X141581076Y-105767333D01*
X141581076Y-105767333D02*
X141485838Y-105862571D01*
X141485838Y-105862571D02*
X141438219Y-106005428D01*
X141438219Y-106005428D02*
X141438219Y-106100666D01*
X141438219Y-106100666D02*
X141485838Y-106243523D01*
X141485838Y-106243523D02*
X141533457Y-106291142D01*
X142438219Y-107243523D02*
X142438219Y-106672095D01*
X142438219Y-106957809D02*
X141438219Y-106957809D01*
X141438219Y-106957809D02*
X141581076Y-106862571D01*
X141581076Y-106862571D02*
X141676314Y-106767333D01*
X141676314Y-106767333D02*
X141723933Y-106672095D01*
X141438219Y-107576857D02*
X141438219Y-108243523D01*
X141438219Y-108243523D02*
X142438219Y-107814952D01*
X140818980Y-106291142D02*
X140866600Y-106243523D01*
X140866600Y-106243523D02*
X140914219Y-106100666D01*
X140914219Y-106100666D02*
X140914219Y-106005428D01*
X140914219Y-106005428D02*
X140866600Y-105862571D01*
X140866600Y-105862571D02*
X140771361Y-105767333D01*
X140771361Y-105767333D02*
X140676123Y-105719714D01*
X140676123Y-105719714D02*
X140485647Y-105672095D01*
X140485647Y-105672095D02*
X140342790Y-105672095D01*
X140342790Y-105672095D02*
X140152314Y-105719714D01*
X140152314Y-105719714D02*
X140057076Y-105767333D01*
X140057076Y-105767333D02*
X139961838Y-105862571D01*
X139961838Y-105862571D02*
X139914219Y-106005428D01*
X139914219Y-106005428D02*
X139914219Y-106100666D01*
X139914219Y-106100666D02*
X139961838Y-106243523D01*
X139961838Y-106243523D02*
X140009457Y-106291142D01*
X140009457Y-106672095D02*
X139961838Y-106719714D01*
X139961838Y-106719714D02*
X139914219Y-106814952D01*
X139914219Y-106814952D02*
X139914219Y-107053047D01*
X139914219Y-107053047D02*
X139961838Y-107148285D01*
X139961838Y-107148285D02*
X140009457Y-107195904D01*
X140009457Y-107195904D02*
X140104695Y-107243523D01*
X140104695Y-107243523D02*
X140199933Y-107243523D01*
X140199933Y-107243523D02*
X140342790Y-107195904D01*
X140342790Y-107195904D02*
X140914219Y-106624476D01*
X140914219Y-106624476D02*
X140914219Y-107243523D01*
X139914219Y-107862571D02*
X139914219Y-107957809D01*
X139914219Y-107957809D02*
X139961838Y-108053047D01*
X139961838Y-108053047D02*
X140009457Y-108100666D01*
X140009457Y-108100666D02*
X140104695Y-108148285D01*
X140104695Y-108148285D02*
X140295171Y-108195904D01*
X140295171Y-108195904D02*
X140533266Y-108195904D01*
X140533266Y-108195904D02*
X140723742Y-108148285D01*
X140723742Y-108148285D02*
X140818980Y-108100666D01*
X140818980Y-108100666D02*
X140866600Y-108053047D01*
X140866600Y-108053047D02*
X140914219Y-107957809D01*
X140914219Y-107957809D02*
X140914219Y-107862571D01*
X140914219Y-107862571D02*
X140866600Y-107767333D01*
X140866600Y-107767333D02*
X140818980Y-107719714D01*
X140818980Y-107719714D02*
X140723742Y-107672095D01*
X140723742Y-107672095D02*
X140533266Y-107624476D01*
X140533266Y-107624476D02*
X140295171Y-107624476D01*
X140295171Y-107624476D02*
X140104695Y-107672095D01*
X140104695Y-107672095D02*
X140009457Y-107719714D01*
X140009457Y-107719714D02*
X139961838Y-107767333D01*
X139961838Y-107767333D02*
X139914219Y-107862571D01*
X147486666Y-86050219D02*
X147819999Y-85574028D01*
X148058094Y-86050219D02*
X148058094Y-85050219D01*
X148058094Y-85050219D02*
X147677142Y-85050219D01*
X147677142Y-85050219D02*
X147581904Y-85097838D01*
X147581904Y-85097838D02*
X147534285Y-85145457D01*
X147534285Y-85145457D02*
X147486666Y-85240695D01*
X147486666Y-85240695D02*
X147486666Y-85383552D01*
X147486666Y-85383552D02*
X147534285Y-85478790D01*
X147534285Y-85478790D02*
X147581904Y-85526409D01*
X147581904Y-85526409D02*
X147677142Y-85574028D01*
X147677142Y-85574028D02*
X148058094Y-85574028D01*
X146629523Y-85050219D02*
X146819999Y-85050219D01*
X146819999Y-85050219D02*
X146915237Y-85097838D01*
X146915237Y-85097838D02*
X146962856Y-85145457D01*
X146962856Y-85145457D02*
X147058094Y-85288314D01*
X147058094Y-85288314D02*
X147105713Y-85478790D01*
X147105713Y-85478790D02*
X147105713Y-85859742D01*
X147105713Y-85859742D02*
X147058094Y-85954980D01*
X147058094Y-85954980D02*
X147010475Y-86002600D01*
X147010475Y-86002600D02*
X146915237Y-86050219D01*
X146915237Y-86050219D02*
X146724761Y-86050219D01*
X146724761Y-86050219D02*
X146629523Y-86002600D01*
X146629523Y-86002600D02*
X146581904Y-85954980D01*
X146581904Y-85954980D02*
X146534285Y-85859742D01*
X146534285Y-85859742D02*
X146534285Y-85621647D01*
X146534285Y-85621647D02*
X146581904Y-85526409D01*
X146581904Y-85526409D02*
X146629523Y-85478790D01*
X146629523Y-85478790D02*
X146724761Y-85431171D01*
X146724761Y-85431171D02*
X146915237Y-85431171D01*
X146915237Y-85431171D02*
X147010475Y-85478790D01*
X147010475Y-85478790D02*
X147058094Y-85526409D01*
X147058094Y-85526409D02*
X147105713Y-85621647D01*
X163564666Y-87224980D02*
X163612285Y-87272600D01*
X163612285Y-87272600D02*
X163755142Y-87320219D01*
X163755142Y-87320219D02*
X163850380Y-87320219D01*
X163850380Y-87320219D02*
X163993237Y-87272600D01*
X163993237Y-87272600D02*
X164088475Y-87177361D01*
X164088475Y-87177361D02*
X164136094Y-87082123D01*
X164136094Y-87082123D02*
X164183713Y-86891647D01*
X164183713Y-86891647D02*
X164183713Y-86748790D01*
X164183713Y-86748790D02*
X164136094Y-86558314D01*
X164136094Y-86558314D02*
X164088475Y-86463076D01*
X164088475Y-86463076D02*
X163993237Y-86367838D01*
X163993237Y-86367838D02*
X163850380Y-86320219D01*
X163850380Y-86320219D02*
X163755142Y-86320219D01*
X163755142Y-86320219D02*
X163612285Y-86367838D01*
X163612285Y-86367838D02*
X163564666Y-86415457D01*
X162612285Y-87320219D02*
X163183713Y-87320219D01*
X162897999Y-87320219D02*
X162897999Y-86320219D01*
X162897999Y-86320219D02*
X162993237Y-86463076D01*
X162993237Y-86463076D02*
X163088475Y-86558314D01*
X163088475Y-86558314D02*
X163183713Y-86605933D01*
X163551666Y-85796219D02*
X163884999Y-85320028D01*
X164123094Y-85796219D02*
X164123094Y-84796219D01*
X164123094Y-84796219D02*
X163742142Y-84796219D01*
X163742142Y-84796219D02*
X163646904Y-84843838D01*
X163646904Y-84843838D02*
X163599285Y-84891457D01*
X163599285Y-84891457D02*
X163551666Y-84986695D01*
X163551666Y-84986695D02*
X163551666Y-85129552D01*
X163551666Y-85129552D02*
X163599285Y-85224790D01*
X163599285Y-85224790D02*
X163646904Y-85272409D01*
X163646904Y-85272409D02*
X163742142Y-85320028D01*
X163742142Y-85320028D02*
X164123094Y-85320028D01*
X163170713Y-84891457D02*
X163123094Y-84843838D01*
X163123094Y-84843838D02*
X163027856Y-84796219D01*
X163027856Y-84796219D02*
X162789761Y-84796219D01*
X162789761Y-84796219D02*
X162694523Y-84843838D01*
X162694523Y-84843838D02*
X162646904Y-84891457D01*
X162646904Y-84891457D02*
X162599285Y-84986695D01*
X162599285Y-84986695D02*
X162599285Y-85081933D01*
X162599285Y-85081933D02*
X162646904Y-85224790D01*
X162646904Y-85224790D02*
X163218332Y-85796219D01*
X163218332Y-85796219D02*
X162599285Y-85796219D01*
X151042666Y-87320219D02*
X151375999Y-86844028D01*
X151614094Y-87320219D02*
X151614094Y-86320219D01*
X151614094Y-86320219D02*
X151233142Y-86320219D01*
X151233142Y-86320219D02*
X151137904Y-86367838D01*
X151137904Y-86367838D02*
X151090285Y-86415457D01*
X151090285Y-86415457D02*
X151042666Y-86510695D01*
X151042666Y-86510695D02*
X151042666Y-86653552D01*
X151042666Y-86653552D02*
X151090285Y-86748790D01*
X151090285Y-86748790D02*
X151137904Y-86796409D01*
X151137904Y-86796409D02*
X151233142Y-86844028D01*
X151233142Y-86844028D02*
X151614094Y-86844028D01*
X150709332Y-86320219D02*
X150090285Y-86320219D01*
X150090285Y-86320219D02*
X150423618Y-86701171D01*
X150423618Y-86701171D02*
X150280761Y-86701171D01*
X150280761Y-86701171D02*
X150185523Y-86748790D01*
X150185523Y-86748790D02*
X150137904Y-86796409D01*
X150137904Y-86796409D02*
X150090285Y-86891647D01*
X150090285Y-86891647D02*
X150090285Y-87129742D01*
X150090285Y-87129742D02*
X150137904Y-87224980D01*
X150137904Y-87224980D02*
X150185523Y-87272600D01*
X150185523Y-87272600D02*
X150280761Y-87320219D01*
X150280761Y-87320219D02*
X150566475Y-87320219D01*
X150566475Y-87320219D02*
X150661713Y-87272600D01*
X150661713Y-87272600D02*
X150709332Y-87224980D01*
X155868666Y-93066980D02*
X155916285Y-93114600D01*
X155916285Y-93114600D02*
X156059142Y-93162219D01*
X156059142Y-93162219D02*
X156154380Y-93162219D01*
X156154380Y-93162219D02*
X156297237Y-93114600D01*
X156297237Y-93114600D02*
X156392475Y-93019361D01*
X156392475Y-93019361D02*
X156440094Y-92924123D01*
X156440094Y-92924123D02*
X156487713Y-92733647D01*
X156487713Y-92733647D02*
X156487713Y-92590790D01*
X156487713Y-92590790D02*
X156440094Y-92400314D01*
X156440094Y-92400314D02*
X156392475Y-92305076D01*
X156392475Y-92305076D02*
X156297237Y-92209838D01*
X156297237Y-92209838D02*
X156154380Y-92162219D01*
X156154380Y-92162219D02*
X156059142Y-92162219D01*
X156059142Y-92162219D02*
X155916285Y-92209838D01*
X155916285Y-92209838D02*
X155868666Y-92257457D01*
X155011523Y-92495552D02*
X155011523Y-93162219D01*
X155249618Y-92114600D02*
X155487713Y-92828885D01*
X155487713Y-92828885D02*
X154868666Y-92828885D01*
X158154666Y-94082980D02*
X158202285Y-94130600D01*
X158202285Y-94130600D02*
X158345142Y-94178219D01*
X158345142Y-94178219D02*
X158440380Y-94178219D01*
X158440380Y-94178219D02*
X158583237Y-94130600D01*
X158583237Y-94130600D02*
X158678475Y-94035361D01*
X158678475Y-94035361D02*
X158726094Y-93940123D01*
X158726094Y-93940123D02*
X158773713Y-93749647D01*
X158773713Y-93749647D02*
X158773713Y-93606790D01*
X158773713Y-93606790D02*
X158726094Y-93416314D01*
X158726094Y-93416314D02*
X158678475Y-93321076D01*
X158678475Y-93321076D02*
X158583237Y-93225838D01*
X158583237Y-93225838D02*
X158440380Y-93178219D01*
X158440380Y-93178219D02*
X158345142Y-93178219D01*
X158345142Y-93178219D02*
X158202285Y-93225838D01*
X158202285Y-93225838D02*
X158154666Y-93273457D01*
X157821332Y-93178219D02*
X157202285Y-93178219D01*
X157202285Y-93178219D02*
X157535618Y-93559171D01*
X157535618Y-93559171D02*
X157392761Y-93559171D01*
X157392761Y-93559171D02*
X157297523Y-93606790D01*
X157297523Y-93606790D02*
X157249904Y-93654409D01*
X157249904Y-93654409D02*
X157202285Y-93749647D01*
X157202285Y-93749647D02*
X157202285Y-93987742D01*
X157202285Y-93987742D02*
X157249904Y-94082980D01*
X157249904Y-94082980D02*
X157297523Y-94130600D01*
X157297523Y-94130600D02*
X157392761Y-94178219D01*
X157392761Y-94178219D02*
X157678475Y-94178219D01*
X157678475Y-94178219D02*
X157773713Y-94130600D01*
X157773713Y-94130600D02*
X157821332Y-94082980D01*
X147772219Y-95369142D02*
X147296028Y-95035809D01*
X147772219Y-94797714D02*
X146772219Y-94797714D01*
X146772219Y-94797714D02*
X146772219Y-95178666D01*
X146772219Y-95178666D02*
X146819838Y-95273904D01*
X146819838Y-95273904D02*
X146867457Y-95321523D01*
X146867457Y-95321523D02*
X146962695Y-95369142D01*
X146962695Y-95369142D02*
X147105552Y-95369142D01*
X147105552Y-95369142D02*
X147200790Y-95321523D01*
X147200790Y-95321523D02*
X147248409Y-95273904D01*
X147248409Y-95273904D02*
X147296028Y-95178666D01*
X147296028Y-95178666D02*
X147296028Y-94797714D01*
X147772219Y-96321523D02*
X147772219Y-95750095D01*
X147772219Y-96035809D02*
X146772219Y-96035809D01*
X146772219Y-96035809D02*
X146915076Y-95940571D01*
X146915076Y-95940571D02*
X147010314Y-95845333D01*
X147010314Y-95845333D02*
X147057933Y-95750095D01*
X146867457Y-96702476D02*
X146819838Y-96750095D01*
X146819838Y-96750095D02*
X146772219Y-96845333D01*
X146772219Y-96845333D02*
X146772219Y-97083428D01*
X146772219Y-97083428D02*
X146819838Y-97178666D01*
X146819838Y-97178666D02*
X146867457Y-97226285D01*
X146867457Y-97226285D02*
X146962695Y-97273904D01*
X146962695Y-97273904D02*
X147057933Y-97273904D01*
X147057933Y-97273904D02*
X147200790Y-97226285D01*
X147200790Y-97226285D02*
X147772219Y-96654857D01*
X147772219Y-96654857D02*
X147772219Y-97273904D01*
X153328666Y-91796980D02*
X153376285Y-91844600D01*
X153376285Y-91844600D02*
X153519142Y-91892219D01*
X153519142Y-91892219D02*
X153614380Y-91892219D01*
X153614380Y-91892219D02*
X153757237Y-91844600D01*
X153757237Y-91844600D02*
X153852475Y-91749361D01*
X153852475Y-91749361D02*
X153900094Y-91654123D01*
X153900094Y-91654123D02*
X153947713Y-91463647D01*
X153947713Y-91463647D02*
X153947713Y-91320790D01*
X153947713Y-91320790D02*
X153900094Y-91130314D01*
X153900094Y-91130314D02*
X153852475Y-91035076D01*
X153852475Y-91035076D02*
X153757237Y-90939838D01*
X153757237Y-90939838D02*
X153614380Y-90892219D01*
X153614380Y-90892219D02*
X153519142Y-90892219D01*
X153519142Y-90892219D02*
X153376285Y-90939838D01*
X153376285Y-90939838D02*
X153328666Y-90987457D01*
X152995332Y-90892219D02*
X152328666Y-90892219D01*
X152328666Y-90892219D02*
X152757237Y-91892219D01*
X139040980Y-88479333D02*
X139088600Y-88431714D01*
X139088600Y-88431714D02*
X139136219Y-88288857D01*
X139136219Y-88288857D02*
X139136219Y-88193619D01*
X139136219Y-88193619D02*
X139088600Y-88050762D01*
X139088600Y-88050762D02*
X138993361Y-87955524D01*
X138993361Y-87955524D02*
X138898123Y-87907905D01*
X138898123Y-87907905D02*
X138707647Y-87860286D01*
X138707647Y-87860286D02*
X138564790Y-87860286D01*
X138564790Y-87860286D02*
X138374314Y-87907905D01*
X138374314Y-87907905D02*
X138279076Y-87955524D01*
X138279076Y-87955524D02*
X138183838Y-88050762D01*
X138183838Y-88050762D02*
X138136219Y-88193619D01*
X138136219Y-88193619D02*
X138136219Y-88288857D01*
X138136219Y-88288857D02*
X138183838Y-88431714D01*
X138183838Y-88431714D02*
X138231457Y-88479333D01*
X139136219Y-88955524D02*
X139136219Y-89146000D01*
X139136219Y-89146000D02*
X139088600Y-89241238D01*
X139088600Y-89241238D02*
X139040980Y-89288857D01*
X139040980Y-89288857D02*
X138898123Y-89384095D01*
X138898123Y-89384095D02*
X138707647Y-89431714D01*
X138707647Y-89431714D02*
X138326695Y-89431714D01*
X138326695Y-89431714D02*
X138231457Y-89384095D01*
X138231457Y-89384095D02*
X138183838Y-89336476D01*
X138183838Y-89336476D02*
X138136219Y-89241238D01*
X138136219Y-89241238D02*
X138136219Y-89050762D01*
X138136219Y-89050762D02*
X138183838Y-88955524D01*
X138183838Y-88955524D02*
X138231457Y-88907905D01*
X138231457Y-88907905D02*
X138326695Y-88860286D01*
X138326695Y-88860286D02*
X138564790Y-88860286D01*
X138564790Y-88860286D02*
X138660028Y-88907905D01*
X138660028Y-88907905D02*
X138707647Y-88955524D01*
X138707647Y-88955524D02*
X138755266Y-89050762D01*
X138755266Y-89050762D02*
X138755266Y-89241238D01*
X138755266Y-89241238D02*
X138707647Y-89336476D01*
X138707647Y-89336476D02*
X138660028Y-89384095D01*
X138660028Y-89384095D02*
X138564790Y-89431714D01*
X153106219Y-96607333D02*
X152630028Y-96274000D01*
X153106219Y-96035905D02*
X152106219Y-96035905D01*
X152106219Y-96035905D02*
X152106219Y-96416857D01*
X152106219Y-96416857D02*
X152153838Y-96512095D01*
X152153838Y-96512095D02*
X152201457Y-96559714D01*
X152201457Y-96559714D02*
X152296695Y-96607333D01*
X152296695Y-96607333D02*
X152439552Y-96607333D01*
X152439552Y-96607333D02*
X152534790Y-96559714D01*
X152534790Y-96559714D02*
X152582409Y-96512095D01*
X152582409Y-96512095D02*
X152630028Y-96416857D01*
X152630028Y-96416857D02*
X152630028Y-96035905D01*
X153106219Y-97083524D02*
X153106219Y-97274000D01*
X153106219Y-97274000D02*
X153058600Y-97369238D01*
X153058600Y-97369238D02*
X153010980Y-97416857D01*
X153010980Y-97416857D02*
X152868123Y-97512095D01*
X152868123Y-97512095D02*
X152677647Y-97559714D01*
X152677647Y-97559714D02*
X152296695Y-97559714D01*
X152296695Y-97559714D02*
X152201457Y-97512095D01*
X152201457Y-97512095D02*
X152153838Y-97464476D01*
X152153838Y-97464476D02*
X152106219Y-97369238D01*
X152106219Y-97369238D02*
X152106219Y-97178762D01*
X152106219Y-97178762D02*
X152153838Y-97083524D01*
X152153838Y-97083524D02*
X152201457Y-97035905D01*
X152201457Y-97035905D02*
X152296695Y-96988286D01*
X152296695Y-96988286D02*
X152534790Y-96988286D01*
X152534790Y-96988286D02*
X152630028Y-97035905D01*
X152630028Y-97035905D02*
X152677647Y-97083524D01*
X152677647Y-97083524D02*
X152725266Y-97178762D01*
X152725266Y-97178762D02*
X152725266Y-97369238D01*
X152725266Y-97369238D02*
X152677647Y-97464476D01*
X152677647Y-97464476D02*
X152630028Y-97512095D01*
X152630028Y-97512095D02*
X152534790Y-97559714D01*
X147772219Y-98417142D02*
X147296028Y-98083809D01*
X147772219Y-97845714D02*
X146772219Y-97845714D01*
X146772219Y-97845714D02*
X146772219Y-98226666D01*
X146772219Y-98226666D02*
X146819838Y-98321904D01*
X146819838Y-98321904D02*
X146867457Y-98369523D01*
X146867457Y-98369523D02*
X146962695Y-98417142D01*
X146962695Y-98417142D02*
X147105552Y-98417142D01*
X147105552Y-98417142D02*
X147200790Y-98369523D01*
X147200790Y-98369523D02*
X147248409Y-98321904D01*
X147248409Y-98321904D02*
X147296028Y-98226666D01*
X147296028Y-98226666D02*
X147296028Y-97845714D01*
X147772219Y-99369523D02*
X147772219Y-98798095D01*
X147772219Y-99083809D02*
X146772219Y-99083809D01*
X146772219Y-99083809D02*
X146915076Y-98988571D01*
X146915076Y-98988571D02*
X147010314Y-98893333D01*
X147010314Y-98893333D02*
X147057933Y-98798095D01*
X147772219Y-100321904D02*
X147772219Y-99750476D01*
X147772219Y-100036190D02*
X146772219Y-100036190D01*
X146772219Y-100036190D02*
X146915076Y-99940952D01*
X146915076Y-99940952D02*
X147010314Y-99845714D01*
X147010314Y-99845714D02*
X147057933Y-99750476D01*
X152280857Y-102014865D02*
X152328476Y-102062485D01*
X152328476Y-102062485D02*
X152471333Y-102110104D01*
X152471333Y-102110104D02*
X152566571Y-102110104D01*
X152566571Y-102110104D02*
X152709428Y-102062485D01*
X152709428Y-102062485D02*
X152804666Y-101967246D01*
X152804666Y-101967246D02*
X152852285Y-101872008D01*
X152852285Y-101872008D02*
X152899904Y-101681532D01*
X152899904Y-101681532D02*
X152899904Y-101538675D01*
X152899904Y-101538675D02*
X152852285Y-101348199D01*
X152852285Y-101348199D02*
X152804666Y-101252961D01*
X152804666Y-101252961D02*
X152709428Y-101157723D01*
X152709428Y-101157723D02*
X152566571Y-101110104D01*
X152566571Y-101110104D02*
X152471333Y-101110104D01*
X152471333Y-101110104D02*
X152328476Y-101157723D01*
X152328476Y-101157723D02*
X152280857Y-101205342D01*
X151328476Y-102110104D02*
X151899904Y-102110104D01*
X151614190Y-102110104D02*
X151614190Y-101110104D01*
X151614190Y-101110104D02*
X151709428Y-101252961D01*
X151709428Y-101252961D02*
X151804666Y-101348199D01*
X151804666Y-101348199D02*
X151899904Y-101395818D01*
X150471333Y-101110104D02*
X150661809Y-101110104D01*
X150661809Y-101110104D02*
X150757047Y-101157723D01*
X150757047Y-101157723D02*
X150804666Y-101205342D01*
X150804666Y-101205342D02*
X150899904Y-101348199D01*
X150899904Y-101348199D02*
X150947523Y-101538675D01*
X150947523Y-101538675D02*
X150947523Y-101919627D01*
X150947523Y-101919627D02*
X150899904Y-102014865D01*
X150899904Y-102014865D02*
X150852285Y-102062485D01*
X150852285Y-102062485D02*
X150757047Y-102110104D01*
X150757047Y-102110104D02*
X150566571Y-102110104D01*
X150566571Y-102110104D02*
X150471333Y-102062485D01*
X150471333Y-102062485D02*
X150423714Y-102014865D01*
X150423714Y-102014865D02*
X150376095Y-101919627D01*
X150376095Y-101919627D02*
X150376095Y-101681532D01*
X150376095Y-101681532D02*
X150423714Y-101586294D01*
X150423714Y-101586294D02*
X150471333Y-101538675D01*
X150471333Y-101538675D02*
X150566571Y-101491056D01*
X150566571Y-101491056D02*
X150757047Y-101491056D01*
X150757047Y-101491056D02*
X150852285Y-101538675D01*
X150852285Y-101538675D02*
X150899904Y-101586294D01*
X150899904Y-101586294D02*
X150947523Y-101681532D01*
X160472219Y-106259333D02*
X159996028Y-105926000D01*
X160472219Y-105687905D02*
X159472219Y-105687905D01*
X159472219Y-105687905D02*
X159472219Y-106068857D01*
X159472219Y-106068857D02*
X159519838Y-106164095D01*
X159519838Y-106164095D02*
X159567457Y-106211714D01*
X159567457Y-106211714D02*
X159662695Y-106259333D01*
X159662695Y-106259333D02*
X159805552Y-106259333D01*
X159805552Y-106259333D02*
X159900790Y-106211714D01*
X159900790Y-106211714D02*
X159948409Y-106164095D01*
X159948409Y-106164095D02*
X159996028Y-106068857D01*
X159996028Y-106068857D02*
X159996028Y-105687905D01*
X160472219Y-107211714D02*
X160472219Y-106640286D01*
X160472219Y-106926000D02*
X159472219Y-106926000D01*
X159472219Y-106926000D02*
X159615076Y-106830762D01*
X159615076Y-106830762D02*
X159710314Y-106735524D01*
X159710314Y-106735524D02*
X159757933Y-106640286D01*
X154392219Y-101346095D02*
X155201742Y-101346095D01*
X155201742Y-101346095D02*
X155296980Y-101393714D01*
X155296980Y-101393714D02*
X155344600Y-101441333D01*
X155344600Y-101441333D02*
X155392219Y-101536571D01*
X155392219Y-101536571D02*
X155392219Y-101727047D01*
X155392219Y-101727047D02*
X155344600Y-101822285D01*
X155344600Y-101822285D02*
X155296980Y-101869904D01*
X155296980Y-101869904D02*
X155201742Y-101917523D01*
X155201742Y-101917523D02*
X154392219Y-101917523D01*
X154487457Y-102346095D02*
X154439838Y-102393714D01*
X154439838Y-102393714D02*
X154392219Y-102488952D01*
X154392219Y-102488952D02*
X154392219Y-102727047D01*
X154392219Y-102727047D02*
X154439838Y-102822285D01*
X154439838Y-102822285D02*
X154487457Y-102869904D01*
X154487457Y-102869904D02*
X154582695Y-102917523D01*
X154582695Y-102917523D02*
X154677933Y-102917523D01*
X154677933Y-102917523D02*
X154820790Y-102869904D01*
X154820790Y-102869904D02*
X155392219Y-102298476D01*
X155392219Y-102298476D02*
X155392219Y-102917523D01*
X150566219Y-98417142D02*
X150090028Y-98083809D01*
X150566219Y-97845714D02*
X149566219Y-97845714D01*
X149566219Y-97845714D02*
X149566219Y-98226666D01*
X149566219Y-98226666D02*
X149613838Y-98321904D01*
X149613838Y-98321904D02*
X149661457Y-98369523D01*
X149661457Y-98369523D02*
X149756695Y-98417142D01*
X149756695Y-98417142D02*
X149899552Y-98417142D01*
X149899552Y-98417142D02*
X149994790Y-98369523D01*
X149994790Y-98369523D02*
X150042409Y-98321904D01*
X150042409Y-98321904D02*
X150090028Y-98226666D01*
X150090028Y-98226666D02*
X150090028Y-97845714D01*
X150566219Y-99369523D02*
X150566219Y-98798095D01*
X150566219Y-99083809D02*
X149566219Y-99083809D01*
X149566219Y-99083809D02*
X149709076Y-98988571D01*
X149709076Y-98988571D02*
X149804314Y-98893333D01*
X149804314Y-98893333D02*
X149851933Y-98798095D01*
X149566219Y-99988571D02*
X149566219Y-100083809D01*
X149566219Y-100083809D02*
X149613838Y-100179047D01*
X149613838Y-100179047D02*
X149661457Y-100226666D01*
X149661457Y-100226666D02*
X149756695Y-100274285D01*
X149756695Y-100274285D02*
X149947171Y-100321904D01*
X149947171Y-100321904D02*
X150185266Y-100321904D01*
X150185266Y-100321904D02*
X150375742Y-100274285D01*
X150375742Y-100274285D02*
X150470980Y-100226666D01*
X150470980Y-100226666D02*
X150518600Y-100179047D01*
X150518600Y-100179047D02*
X150566219Y-100083809D01*
X150566219Y-100083809D02*
X150566219Y-99988571D01*
X150566219Y-99988571D02*
X150518600Y-99893333D01*
X150518600Y-99893333D02*
X150470980Y-99845714D01*
X150470980Y-99845714D02*
X150375742Y-99798095D01*
X150375742Y-99798095D02*
X150185266Y-99750476D01*
X150185266Y-99750476D02*
X149947171Y-99750476D01*
X149947171Y-99750476D02*
X149756695Y-99798095D01*
X149756695Y-99798095D02*
X149661457Y-99845714D01*
X149661457Y-99845714D02*
X149613838Y-99893333D01*
X149613838Y-99893333D02*
X149566219Y-99988571D01*
X145676857Y-102210980D02*
X145724476Y-102258600D01*
X145724476Y-102258600D02*
X145867333Y-102306219D01*
X145867333Y-102306219D02*
X145962571Y-102306219D01*
X145962571Y-102306219D02*
X146105428Y-102258600D01*
X146105428Y-102258600D02*
X146200666Y-102163361D01*
X146200666Y-102163361D02*
X146248285Y-102068123D01*
X146248285Y-102068123D02*
X146295904Y-101877647D01*
X146295904Y-101877647D02*
X146295904Y-101734790D01*
X146295904Y-101734790D02*
X146248285Y-101544314D01*
X146248285Y-101544314D02*
X146200666Y-101449076D01*
X146200666Y-101449076D02*
X146105428Y-101353838D01*
X146105428Y-101353838D02*
X145962571Y-101306219D01*
X145962571Y-101306219D02*
X145867333Y-101306219D01*
X145867333Y-101306219D02*
X145724476Y-101353838D01*
X145724476Y-101353838D02*
X145676857Y-101401457D01*
X144724476Y-102306219D02*
X145295904Y-102306219D01*
X145010190Y-102306219D02*
X145010190Y-101306219D01*
X145010190Y-101306219D02*
X145105428Y-101449076D01*
X145105428Y-101449076D02*
X145200666Y-101544314D01*
X145200666Y-101544314D02*
X145295904Y-101591933D01*
X143867333Y-101639552D02*
X143867333Y-102306219D01*
X144105428Y-101258600D02*
X144343523Y-101972885D01*
X144343523Y-101972885D02*
X143724476Y-101972885D01*
X152248980Y-107249257D02*
X152296600Y-107201638D01*
X152296600Y-107201638D02*
X152344219Y-107058781D01*
X152344219Y-107058781D02*
X152344219Y-106963543D01*
X152344219Y-106963543D02*
X152296600Y-106820686D01*
X152296600Y-106820686D02*
X152201361Y-106725448D01*
X152201361Y-106725448D02*
X152106123Y-106677829D01*
X152106123Y-106677829D02*
X151915647Y-106630210D01*
X151915647Y-106630210D02*
X151772790Y-106630210D01*
X151772790Y-106630210D02*
X151582314Y-106677829D01*
X151582314Y-106677829D02*
X151487076Y-106725448D01*
X151487076Y-106725448D02*
X151391838Y-106820686D01*
X151391838Y-106820686D02*
X151344219Y-106963543D01*
X151344219Y-106963543D02*
X151344219Y-107058781D01*
X151344219Y-107058781D02*
X151391838Y-107201638D01*
X151391838Y-107201638D02*
X151439457Y-107249257D01*
X152344219Y-108201638D02*
X152344219Y-107630210D01*
X152344219Y-107915924D02*
X151344219Y-107915924D01*
X151344219Y-107915924D02*
X151487076Y-107820686D01*
X151487076Y-107820686D02*
X151582314Y-107725448D01*
X151582314Y-107725448D02*
X151629933Y-107630210D01*
X151344219Y-109106400D02*
X151344219Y-108630210D01*
X151344219Y-108630210D02*
X151820409Y-108582591D01*
X151820409Y-108582591D02*
X151772790Y-108630210D01*
X151772790Y-108630210D02*
X151725171Y-108725448D01*
X151725171Y-108725448D02*
X151725171Y-108963543D01*
X151725171Y-108963543D02*
X151772790Y-109058781D01*
X151772790Y-109058781D02*
X151820409Y-109106400D01*
X151820409Y-109106400D02*
X151915647Y-109154019D01*
X151915647Y-109154019D02*
X152153742Y-109154019D01*
X152153742Y-109154019D02*
X152248980Y-109106400D01*
X152248980Y-109106400D02*
X152296600Y-109058781D01*
X152296600Y-109058781D02*
X152344219Y-108963543D01*
X152344219Y-108963543D02*
X152344219Y-108725448D01*
X152344219Y-108725448D02*
X152296600Y-108630210D01*
X152296600Y-108630210D02*
X152248980Y-108582591D01*
X151518857Y-93320980D02*
X151566476Y-93368600D01*
X151566476Y-93368600D02*
X151709333Y-93416219D01*
X151709333Y-93416219D02*
X151804571Y-93416219D01*
X151804571Y-93416219D02*
X151947428Y-93368600D01*
X151947428Y-93368600D02*
X152042666Y-93273361D01*
X152042666Y-93273361D02*
X152090285Y-93178123D01*
X152090285Y-93178123D02*
X152137904Y-92987647D01*
X152137904Y-92987647D02*
X152137904Y-92844790D01*
X152137904Y-92844790D02*
X152090285Y-92654314D01*
X152090285Y-92654314D02*
X152042666Y-92559076D01*
X152042666Y-92559076D02*
X151947428Y-92463838D01*
X151947428Y-92463838D02*
X151804571Y-92416219D01*
X151804571Y-92416219D02*
X151709333Y-92416219D01*
X151709333Y-92416219D02*
X151566476Y-92463838D01*
X151566476Y-92463838D02*
X151518857Y-92511457D01*
X150566476Y-93416219D02*
X151137904Y-93416219D01*
X150852190Y-93416219D02*
X150852190Y-92416219D01*
X150852190Y-92416219D02*
X150947428Y-92559076D01*
X150947428Y-92559076D02*
X151042666Y-92654314D01*
X151042666Y-92654314D02*
X151137904Y-92701933D01*
X149947428Y-92416219D02*
X149852190Y-92416219D01*
X149852190Y-92416219D02*
X149756952Y-92463838D01*
X149756952Y-92463838D02*
X149709333Y-92511457D01*
X149709333Y-92511457D02*
X149661714Y-92606695D01*
X149661714Y-92606695D02*
X149614095Y-92797171D01*
X149614095Y-92797171D02*
X149614095Y-93035266D01*
X149614095Y-93035266D02*
X149661714Y-93225742D01*
X149661714Y-93225742D02*
X149709333Y-93320980D01*
X149709333Y-93320980D02*
X149756952Y-93368600D01*
X149756952Y-93368600D02*
X149852190Y-93416219D01*
X149852190Y-93416219D02*
X149947428Y-93416219D01*
X149947428Y-93416219D02*
X150042666Y-93368600D01*
X150042666Y-93368600D02*
X150090285Y-93320980D01*
X150090285Y-93320980D02*
X150137904Y-93225742D01*
X150137904Y-93225742D02*
X150185523Y-93035266D01*
X150185523Y-93035266D02*
X150185523Y-92797171D01*
X150185523Y-92797171D02*
X150137904Y-92606695D01*
X150137904Y-92606695D02*
X150090285Y-92511457D01*
X150090285Y-92511457D02*
X150042666Y-92463838D01*
X150042666Y-92463838D02*
X149947428Y-92416219D01*
D11*
X154684000Y-88024580D02*
X154684000Y-87743420D01*
X155704000Y-88024580D02*
X155704000Y-87743420D01*
X151113258Y-85866500D02*
X150638742Y-85866500D01*
X151113258Y-84821500D02*
X150638742Y-84821500D01*
X150638742Y-89393500D02*
X151113258Y-89393500D01*
X150638742Y-90438500D02*
X151113258Y-90438500D01*
X149354000Y-95871420D02*
X149354000Y-96152580D01*
X148334000Y-95871420D02*
X148334000Y-96152580D01*
X141476000Y-104280580D02*
X141476000Y-103999420D01*
X142496000Y-104280580D02*
X142496000Y-103999420D01*
X139952000Y-104280580D02*
X139952000Y-103999420D01*
X140972000Y-104280580D02*
X140972000Y-103999420D01*
X145208258Y-86120500D02*
X144733742Y-86120500D01*
X145208258Y-85075500D02*
X144733742Y-85075500D01*
X160998580Y-87378000D02*
X160717420Y-87378000D01*
X160998580Y-86358000D02*
X160717420Y-86358000D01*
X161082258Y-85866500D02*
X160607742Y-85866500D01*
X161082258Y-84821500D02*
X160607742Y-84821500D01*
D12*
X146405600Y-91643200D02*
X143662400Y-91643200D01*
X145338800Y-86664800D02*
X146405600Y-86664800D01*
X144729200Y-86664800D02*
X145338800Y-86664800D01*
X143662400Y-86664800D02*
X144729200Y-86664800D01*
D13*
X144729200Y-86664800D02*
G75*
G03*
X145338800Y-86664800I304800J0D01*
G01*
D10*
X147834000Y-86454000D02*
G75*
G03*
X147634000Y-86454000I-100000J0D01*
G01*
X147634000Y-86454000D02*
G75*
G03*
X147834000Y-86454000I100000J0D01*
G01*
D11*
X151113258Y-88660500D02*
X150638742Y-88660500D01*
X151113258Y-87615500D02*
X150638742Y-87615500D01*
X155842580Y-91696000D02*
X155561420Y-91696000D01*
X155842580Y-90676000D02*
X155561420Y-90676000D01*
X160414580Y-94236000D02*
X160133420Y-94236000D01*
X160414580Y-93216000D02*
X160133420Y-93216000D01*
D14*
X148508000Y-109147115D02*
X144608000Y-109147115D01*
X148508000Y-104097115D02*
X144608000Y-104097115D01*
D10*
X149458000Y-103822115D02*
G75*
G03*
X149258000Y-103822115I-100000J0D01*
G01*
X149258000Y-103822115D02*
G75*
G03*
X149458000Y-103822115I100000J0D01*
G01*
D11*
X145527500Y-96249258D02*
X145527500Y-95774742D01*
X146572500Y-96249258D02*
X146572500Y-95774742D01*
X150735420Y-90930000D02*
X151016580Y-90930000D01*
X150735420Y-91950000D02*
X151016580Y-91950000D01*
X140718000Y-89013420D02*
X140718000Y-89294580D01*
X139698000Y-89013420D02*
X139698000Y-89294580D01*
D12*
X139750800Y-98462600D02*
X139750800Y-95719400D01*
X144729200Y-97395800D02*
X144729200Y-98462600D01*
X144729200Y-96786200D02*
X144729200Y-97395800D01*
X144729200Y-95719400D02*
X144729200Y-96786200D01*
D13*
X144729200Y-96786200D02*
G75*
G03*
X144729200Y-97395800I0J-304800D01*
G01*
D10*
X145040000Y-99791000D02*
G75*
G03*
X144840000Y-99791000I-100000J0D01*
G01*
X144840000Y-99791000D02*
G75*
G03*
X145040000Y-99791000I100000J0D01*
G01*
D11*
X151906500Y-96536742D02*
X151906500Y-97011258D01*
X150861500Y-96536742D02*
X150861500Y-97011258D01*
X145527500Y-99297258D02*
X145527500Y-98822742D01*
X146572500Y-99297258D02*
X146572500Y-98822742D01*
X150620000Y-103772580D02*
X150620000Y-103491420D01*
X151640000Y-103772580D02*
X151640000Y-103491420D01*
D12*
X162153600Y-92913200D02*
X159410400Y-92913200D01*
X161086800Y-87934800D02*
X162153600Y-87934800D01*
X160477200Y-87934800D02*
X161086800Y-87934800D01*
X159410400Y-87934800D02*
X160477200Y-87934800D01*
D13*
X160477200Y-87934800D02*
G75*
G03*
X161086800Y-87934800I304800J0D01*
G01*
D10*
X163582000Y-87724000D02*
G75*
G03*
X163382000Y-87724000I-100000J0D01*
G01*
X163382000Y-87724000D02*
G75*
G03*
X163582000Y-87724000I100000J0D01*
G01*
D11*
X157973500Y-106663258D02*
X157973500Y-106188742D01*
X159018500Y-106663258D02*
X159018500Y-106188742D01*
D12*
X154889200Y-106368115D02*
X153924000Y-106368115D01*
X154889200Y-105453715D02*
X154889200Y-106368115D01*
X153924000Y-103320115D02*
X154889200Y-103320115D01*
X154889200Y-103320115D02*
X154889200Y-104234515D01*
D11*
X149366500Y-98822742D02*
X149366500Y-99297258D01*
X148321500Y-98822742D02*
X148321500Y-99297258D01*
X142380580Y-102427000D02*
X142099420Y-102427000D01*
X142380580Y-101407000D02*
X142099420Y-101407000D01*
X153672000Y-107751535D02*
X153672000Y-108032695D01*
X152652000Y-107751535D02*
X152652000Y-108032695D01*
X147687420Y-92200000D02*
X147968580Y-92200000D01*
X147687420Y-93220000D02*
X147968580Y-93220000D01*
%LPC*%
D15*
X133858000Y-104902000D03*
D16*
X137752000Y-106680000D03*
X137752000Y-104140000D03*
X137752000Y-99060000D03*
X137752000Y-96520000D03*
X137752000Y-93980000D03*
D15*
X133858000Y-92202000D03*
X133858000Y-102362000D03*
D17*
X166632000Y-86220000D03*
D15*
X133858000Y-94680000D03*
X133858000Y-99760000D03*
D17*
X133660000Y-108236000D03*
D15*
X133858000Y-89662000D03*
X137922000Y-85852000D03*
D17*
X133632000Y-86220000D03*
D18*
X163132000Y-99778050D03*
D19*
X165690050Y-97220000D03*
D18*
X163132000Y-94661950D03*
D17*
X166632000Y-108236000D03*
D15*
X133858000Y-97220000D03*
X157480000Y-86106000D03*
D20*
X155194000Y-88659000D03*
X155194000Y-87109000D03*
D21*
X151701000Y-85344000D03*
X150051000Y-85344000D03*
D22*
X150051000Y-89916000D03*
X151701000Y-89916000D03*
D23*
X148844000Y-95237000D03*
X148844000Y-96787000D03*
D20*
X141986000Y-104915000D03*
X141986000Y-103365000D03*
X140462000Y-104915000D03*
X140462000Y-103365000D03*
D21*
X145796000Y-85598000D03*
X144146000Y-85598000D03*
D24*
X161633000Y-86868000D03*
X160083000Y-86868000D03*
D21*
X161670000Y-85344000D03*
X160020000Y-85344000D03*
D25*
X147497800Y-87249000D03*
X147497800Y-88519000D03*
X147497800Y-89789000D03*
X147497800Y-91059000D03*
X142570200Y-91059000D03*
X142570200Y-89789000D03*
X142570200Y-88519000D03*
X142570200Y-87249000D03*
D21*
X151701000Y-88138000D03*
X150051000Y-88138000D03*
D24*
X156477000Y-91186000D03*
X154927000Y-91186000D03*
X161049000Y-93726000D03*
X159499000Y-93726000D03*
D26*
X149013000Y-104717115D03*
X149013000Y-105987115D03*
X149013000Y-107257115D03*
X149013000Y-108527115D03*
X144103000Y-108527115D03*
X144103000Y-107257115D03*
X144103000Y-105987115D03*
X144103000Y-104717115D03*
D27*
X146050000Y-96837000D03*
X146050000Y-95187000D03*
D28*
X150101000Y-91440000D03*
X151651000Y-91440000D03*
D23*
X140208000Y-88379000D03*
X140208000Y-89929000D03*
D29*
X144145000Y-99554800D03*
X142875000Y-99554800D03*
X141605000Y-99554800D03*
X140335000Y-99554800D03*
X140335000Y-94627200D03*
X141605000Y-94627200D03*
X142875000Y-94627200D03*
X144145000Y-94627200D03*
D30*
X151384000Y-95949000D03*
X151384000Y-97599000D03*
D27*
X146050000Y-99885000D03*
X146050000Y-98235000D03*
D20*
X151130000Y-104407000D03*
X151130000Y-102857000D03*
D25*
X163245800Y-88519000D03*
X163245800Y-89789000D03*
X163245800Y-91059000D03*
X163245800Y-92329000D03*
X158318200Y-92329000D03*
X158318200Y-91059000D03*
X158318200Y-89789000D03*
X158318200Y-88519000D03*
D27*
X158496000Y-107251000D03*
X158496000Y-105601000D03*
D31*
X153136600Y-105783915D03*
X153136600Y-103904315D03*
X155219400Y-104844115D03*
D30*
X148844000Y-98235000D03*
X148844000Y-99885000D03*
D24*
X143015000Y-101917000D03*
X141465000Y-101917000D03*
D23*
X153162000Y-107117115D03*
X153162000Y-108667115D03*
D28*
X147053000Y-92710000D03*
X148603000Y-92710000D03*
%LPD*%
M02*
