G04 #@! TF.GenerationSoftware,KiCad,Pcbnew,7.0.10-7.0.10~ubuntu22.04.1*
G04 #@! TF.CreationDate,2024-07-17T19:08:49+02:00*
G04 #@! TF.ProjectId,prototype_adc2,70726f74-6f74-4797-9065-5f616463322e,rev?*
G04 #@! TF.SameCoordinates,Original*
G04 #@! TF.FileFunction,Copper,L3,Inr*
G04 #@! TF.FilePolarity,Positive*
%FSLAX46Y46*%
G04 Gerber Fmt 4.6, Leading zero omitted, Abs format (unit mm)*
G04 Created by KiCad (PCBNEW 7.0.10-7.0.10~ubuntu22.04.1) date 2024-07-17 19:08:49*
%MOMM*%
%LPD*%
G01*
G04 APERTURE LIST*
G04 #@! TA.AperFunction,ComponentPad*
%ADD10C,2.000000*%
G04 #@! TD*
G04 #@! TA.AperFunction,ComponentPad*
%ADD11C,1.500000*%
G04 #@! TD*
G04 #@! TA.AperFunction,ComponentPad*
%ADD12O,1.524000X3.048000*%
G04 #@! TD*
G04 #@! TA.AperFunction,ComponentPad*
%ADD13O,3.048000X1.524000*%
G04 #@! TD*
G04 #@! TA.AperFunction,ViaPad*
%ADD14C,0.800000*%
G04 #@! TD*
G04 #@! TA.AperFunction,ViaPad*
%ADD15C,0.600000*%
G04 #@! TD*
G04 APERTURE END LIST*
D10*
X133858000Y-104902000D03*
D11*
X137752000Y-106680000D03*
X137752000Y-104140000D03*
X137752000Y-99060000D03*
X137752000Y-96520000D03*
X137752000Y-93980000D03*
D10*
X133858000Y-92202000D03*
X133858000Y-102362000D03*
X133858000Y-94680000D03*
X133858000Y-99760000D03*
X133858000Y-89662000D03*
X137922000Y-85852000D03*
D12*
X163132000Y-99778050D03*
D13*
X165690050Y-97220000D03*
D12*
X163132000Y-94661950D03*
D10*
X133858000Y-97220000D03*
X157480000Y-86106000D03*
D14*
X153500000Y-102600000D03*
D15*
X139446000Y-90170000D03*
X157734000Y-107710000D03*
D14*
X152527000Y-93853000D03*
D15*
X146558000Y-100584000D03*
X161798000Y-90932000D03*
D14*
X152146000Y-103000000D03*
X146386665Y-105146693D03*
X155194000Y-86360000D03*
X156464000Y-89662000D03*
D15*
X142875000Y-95758000D03*
X140208000Y-87630000D03*
D14*
X151586002Y-100226953D03*
D15*
X158750000Y-103124000D03*
X152654000Y-88392000D03*
D14*
X154940000Y-100584000D03*
X145948459Y-92113459D03*
X161163000Y-92329000D03*
X144483759Y-90932000D03*
D15*
X140716000Y-92964000D03*
X157734000Y-105410000D03*
X147574000Y-93980000D03*
D14*
X153670000Y-92964000D03*
G04 #@! TA.AperFunction,Conductor*
G36*
X136708478Y-84740185D02*
G01*
X136754233Y-84792989D01*
X136764177Y-84862147D01*
X136736485Y-84922782D01*
X136736984Y-84923170D01*
X136735350Y-84925268D01*
X136735152Y-84925703D01*
X136734065Y-84926919D01*
X136733836Y-84927213D01*
X136597826Y-85135393D01*
X136497936Y-85363118D01*
X136436892Y-85604175D01*
X136436890Y-85604187D01*
X136416357Y-85851994D01*
X136416357Y-85852005D01*
X136436890Y-86099812D01*
X136436892Y-86099824D01*
X136497936Y-86340881D01*
X136597826Y-86568606D01*
X136733833Y-86776782D01*
X136733836Y-86776785D01*
X136902256Y-86959738D01*
X137098491Y-87112474D01*
X137317190Y-87230828D01*
X137552386Y-87311571D01*
X137797665Y-87352500D01*
X138046335Y-87352500D01*
X138291614Y-87311571D01*
X138526810Y-87230828D01*
X138745509Y-87112474D01*
X138941744Y-86959738D01*
X139110164Y-86776785D01*
X139246173Y-86568607D01*
X139346063Y-86340881D01*
X139407108Y-86099821D01*
X139407109Y-86099812D01*
X139427643Y-85852005D01*
X139427643Y-85851994D01*
X139407109Y-85604187D01*
X139407107Y-85604175D01*
X139346063Y-85363118D01*
X139246173Y-85135393D01*
X139110163Y-84927213D01*
X139107016Y-84923170D01*
X139108239Y-84922218D01*
X139080409Y-84865828D01*
X139088269Y-84796402D01*
X139132417Y-84742247D01*
X139198834Y-84720556D01*
X139202561Y-84720500D01*
X156455925Y-84720500D01*
X156522964Y-84740185D01*
X156568719Y-84792989D01*
X156578663Y-84862147D01*
X156549638Y-84925703D01*
X156532087Y-84942353D01*
X156460262Y-84998256D01*
X156460259Y-84998259D01*
X156291833Y-85181217D01*
X156155826Y-85389393D01*
X156055936Y-85617118D01*
X155994892Y-85858175D01*
X155994890Y-85858187D01*
X155974357Y-86105994D01*
X155974357Y-86106005D01*
X155994890Y-86353812D01*
X155994892Y-86353824D01*
X156055936Y-86594881D01*
X156155826Y-86822606D01*
X156291833Y-87030782D01*
X156324245Y-87065991D01*
X156460256Y-87213738D01*
X156656491Y-87366474D01*
X156875190Y-87484828D01*
X157110386Y-87565571D01*
X157355665Y-87606500D01*
X157604335Y-87606500D01*
X157849614Y-87565571D01*
X158084810Y-87484828D01*
X158303509Y-87366474D01*
X158499744Y-87213738D01*
X158668164Y-87030785D01*
X158804173Y-86822607D01*
X158904063Y-86594881D01*
X158965108Y-86353821D01*
X158985643Y-86106000D01*
X158985131Y-86099824D01*
X158965109Y-85858187D01*
X158965107Y-85858175D01*
X158904063Y-85617118D01*
X158804173Y-85389393D01*
X158668166Y-85181217D01*
X158625982Y-85135393D01*
X158499744Y-84998262D01*
X158499739Y-84998258D01*
X158499737Y-84998256D01*
X158427913Y-84942353D01*
X158387100Y-84885643D01*
X158383425Y-84815870D01*
X158418057Y-84755187D01*
X158479998Y-84722860D01*
X158504075Y-84720500D01*
X166261588Y-84720500D01*
X166328627Y-84740185D01*
X166374382Y-84792989D01*
X166384326Y-84862147D01*
X166355301Y-84925703D01*
X166296523Y-84963477D01*
X166293681Y-84964275D01*
X166185511Y-84993258D01*
X166185502Y-84993261D01*
X165979267Y-85089431D01*
X165979265Y-85089432D01*
X165792858Y-85219954D01*
X165631954Y-85380858D01*
X165501432Y-85567265D01*
X165501431Y-85567267D01*
X165405261Y-85773502D01*
X165405258Y-85773511D01*
X165346366Y-85993302D01*
X165346364Y-85993313D01*
X165326532Y-86219998D01*
X165326532Y-86220001D01*
X165346364Y-86446686D01*
X165346366Y-86446697D01*
X165405258Y-86666488D01*
X165405261Y-86666497D01*
X165501431Y-86872732D01*
X165501432Y-86872734D01*
X165631954Y-87059141D01*
X165792858Y-87220045D01*
X165808258Y-87230828D01*
X165979266Y-87350568D01*
X166185504Y-87446739D01*
X166185509Y-87446740D01*
X166185511Y-87446741D01*
X166200473Y-87450750D01*
X166405308Y-87505635D01*
X166575214Y-87520499D01*
X166575215Y-87520500D01*
X166575216Y-87520500D01*
X166688785Y-87520500D01*
X166688785Y-87520499D01*
X166858692Y-87505635D01*
X167078496Y-87446739D01*
X167284734Y-87350568D01*
X167471139Y-87220047D01*
X167632047Y-87059139D01*
X167762568Y-86872734D01*
X167858739Y-86666496D01*
X167887725Y-86558317D01*
X167924090Y-86498657D01*
X167986936Y-86468128D01*
X168056312Y-86476422D01*
X168110190Y-86520908D01*
X168131465Y-86587459D01*
X168131500Y-86590411D01*
X168131500Y-107865588D01*
X168111815Y-107932627D01*
X168059011Y-107978382D01*
X167989853Y-107988326D01*
X167926297Y-107959301D01*
X167888523Y-107900523D01*
X167887725Y-107897681D01*
X167858741Y-107789511D01*
X167858738Y-107789502D01*
X167848293Y-107767102D01*
X167762568Y-107583266D01*
X167632047Y-107396861D01*
X167632045Y-107396858D01*
X167471141Y-107235954D01*
X167284734Y-107105432D01*
X167284732Y-107105431D01*
X167078497Y-107009261D01*
X167078488Y-107009258D01*
X166858697Y-106950366D01*
X166858687Y-106950364D01*
X166688785Y-106935500D01*
X166688784Y-106935500D01*
X166575216Y-106935500D01*
X166575215Y-106935500D01*
X166405312Y-106950364D01*
X166405302Y-106950366D01*
X166185511Y-107009258D01*
X166185502Y-107009261D01*
X165979267Y-107105431D01*
X165979265Y-107105432D01*
X165792858Y-107235954D01*
X165631954Y-107396858D01*
X165501432Y-107583265D01*
X165501431Y-107583267D01*
X165405261Y-107789502D01*
X165405258Y-107789511D01*
X165346366Y-108009302D01*
X165346364Y-108009313D01*
X165326532Y-108235998D01*
X165326532Y-108236001D01*
X165346364Y-108462686D01*
X165346366Y-108462697D01*
X165405258Y-108682488D01*
X165405261Y-108682497D01*
X165501431Y-108888732D01*
X165501432Y-108888734D01*
X165631954Y-109075141D01*
X165792858Y-109236045D01*
X165792861Y-109236047D01*
X165979266Y-109366568D01*
X166185504Y-109462739D01*
X166185509Y-109462740D01*
X166185511Y-109462741D01*
X166233968Y-109475725D01*
X166293629Y-109512090D01*
X166324158Y-109574937D01*
X166315864Y-109644312D01*
X166271378Y-109698190D01*
X166204826Y-109719465D01*
X166201875Y-109719500D01*
X134090125Y-109719500D01*
X134023086Y-109699815D01*
X133977331Y-109647011D01*
X133967387Y-109577853D01*
X133996412Y-109514297D01*
X134055190Y-109476523D01*
X134058032Y-109475725D01*
X134084814Y-109468548D01*
X134106496Y-109462739D01*
X134312734Y-109366568D01*
X134499139Y-109236047D01*
X134660047Y-109075139D01*
X134790568Y-108888734D01*
X134886739Y-108682496D01*
X134945635Y-108462692D01*
X134965468Y-108236000D01*
X134945635Y-108009308D01*
X134886739Y-107789504D01*
X134790568Y-107583266D01*
X134660047Y-107396861D01*
X134660045Y-107396858D01*
X134499141Y-107235954D01*
X134312734Y-107105432D01*
X134312732Y-107105431D01*
X134106497Y-107009261D01*
X134106488Y-107009258D01*
X133886697Y-106950366D01*
X133886687Y-106950364D01*
X133716785Y-106935500D01*
X133716784Y-106935500D01*
X133603216Y-106935500D01*
X133603215Y-106935500D01*
X133433312Y-106950364D01*
X133433302Y-106950366D01*
X133213511Y-107009258D01*
X133213502Y-107009261D01*
X133007267Y-107105431D01*
X133007265Y-107105432D01*
X132820858Y-107235954D01*
X132659954Y-107396858D01*
X132529432Y-107583265D01*
X132529431Y-107583267D01*
X132433261Y-107789502D01*
X132433258Y-107789511D01*
X132376275Y-108002180D01*
X132339910Y-108061841D01*
X132277063Y-108092370D01*
X132207688Y-108084075D01*
X132153810Y-108039590D01*
X132132535Y-107973038D01*
X132132500Y-107970087D01*
X132132500Y-106680002D01*
X136496723Y-106680002D01*
X136515793Y-106897975D01*
X136515793Y-106897979D01*
X136572422Y-107109322D01*
X136572424Y-107109326D01*
X136572425Y-107109330D01*
X136618661Y-107208484D01*
X136664897Y-107307638D01*
X136664898Y-107307639D01*
X136790402Y-107486877D01*
X136945123Y-107641598D01*
X137124361Y-107767102D01*
X137322670Y-107859575D01*
X137534023Y-107916207D01*
X137716926Y-107932208D01*
X137751998Y-107935277D01*
X137752000Y-107935277D01*
X137752002Y-107935277D01*
X137782290Y-107932627D01*
X137969977Y-107916207D01*
X138181330Y-107859575D01*
X138379639Y-107767102D01*
X138558877Y-107641598D01*
X138713598Y-107486877D01*
X138839102Y-107307639D01*
X138931575Y-107109330D01*
X138988207Y-106897977D01*
X139007277Y-106680000D01*
X138988207Y-106462023D01*
X138931575Y-106250670D01*
X138839102Y-106052362D01*
X138839100Y-106052359D01*
X138839099Y-106052357D01*
X138713599Y-105873124D01*
X138667257Y-105826782D01*
X138558877Y-105718402D01*
X138379639Y-105592898D01*
X138379640Y-105592898D01*
X138379638Y-105592897D01*
X138280484Y-105546661D01*
X138181330Y-105500425D01*
X138181326Y-105500424D01*
X138181322Y-105500422D01*
X137969977Y-105443793D01*
X137752002Y-105424723D01*
X137751998Y-105424723D01*
X137606682Y-105437436D01*
X137534023Y-105443793D01*
X137534020Y-105443793D01*
X137322677Y-105500422D01*
X137322668Y-105500426D01*
X137124361Y-105592898D01*
X137124357Y-105592900D01*
X136945121Y-105718402D01*
X136790402Y-105873121D01*
X136664900Y-106052357D01*
X136664898Y-106052361D01*
X136572426Y-106250668D01*
X136572422Y-106250677D01*
X136515793Y-106462020D01*
X136515793Y-106462024D01*
X136496723Y-106679997D01*
X136496723Y-106680002D01*
X132132500Y-106680002D01*
X132132500Y-105195322D01*
X132152185Y-105128283D01*
X132204989Y-105082528D01*
X132274147Y-105072584D01*
X132337703Y-105101609D01*
X132375477Y-105160387D01*
X132376706Y-105164882D01*
X132433936Y-105390881D01*
X132533826Y-105618606D01*
X132669833Y-105826782D01*
X132669836Y-105826785D01*
X132838256Y-106009738D01*
X133034491Y-106162474D01*
X133253190Y-106280828D01*
X133488386Y-106361571D01*
X133733665Y-106402500D01*
X133982335Y-106402500D01*
X134227614Y-106361571D01*
X134462810Y-106280828D01*
X134681509Y-106162474D01*
X134877744Y-106009738D01*
X135046164Y-105826785D01*
X135182173Y-105618607D01*
X135273675Y-105410003D01*
X156928435Y-105410003D01*
X156948630Y-105589249D01*
X156948631Y-105589254D01*
X157008211Y-105759523D01*
X157050473Y-105826782D01*
X157104184Y-105912262D01*
X157231738Y-106039816D01*
X157384478Y-106135789D01*
X157554745Y-106195368D01*
X157554750Y-106195369D01*
X157733996Y-106215565D01*
X157734000Y-106215565D01*
X157734004Y-106215565D01*
X157913249Y-106195369D01*
X157913252Y-106195368D01*
X157913255Y-106195368D01*
X158083522Y-106135789D01*
X158236262Y-106039816D01*
X158363816Y-105912262D01*
X158459789Y-105759522D01*
X158519368Y-105589255D01*
X158529377Y-105500422D01*
X158539565Y-105410003D01*
X158539565Y-105409996D01*
X158519369Y-105230750D01*
X158519368Y-105230745D01*
X158506973Y-105195322D01*
X158459789Y-105060478D01*
X158363816Y-104907738D01*
X158236262Y-104780184D01*
X158083523Y-104684211D01*
X157913254Y-104624631D01*
X157913249Y-104624630D01*
X157734004Y-104604435D01*
X157733996Y-104604435D01*
X157554750Y-104624630D01*
X157554745Y-104624631D01*
X157384476Y-104684211D01*
X157231737Y-104780184D01*
X157104184Y-104907737D01*
X157008211Y-105060476D01*
X156948631Y-105230745D01*
X156948630Y-105230750D01*
X156928435Y-105409996D01*
X156928435Y-105410003D01*
X135273675Y-105410003D01*
X135282063Y-105390881D01*
X135343108Y-105149821D01*
X135350511Y-105060478D01*
X135363643Y-104902005D01*
X135363643Y-104901994D01*
X135343109Y-104654187D01*
X135343107Y-104654175D01*
X135282063Y-104413118D01*
X135182173Y-104185393D01*
X135046166Y-103977217D01*
X134983706Y-103909368D01*
X134877744Y-103794262D01*
X134681509Y-103641526D01*
X134681507Y-103641525D01*
X134681506Y-103641524D01*
X134462811Y-103523172D01*
X134462802Y-103523169D01*
X134227616Y-103442429D01*
X133982335Y-103401500D01*
X133733665Y-103401500D01*
X133488383Y-103442429D01*
X133253197Y-103523169D01*
X133253188Y-103523172D01*
X133034493Y-103641524D01*
X132838257Y-103794261D01*
X132669833Y-103977217D01*
X132533826Y-104185393D01*
X132433936Y-104413118D01*
X132376706Y-104639117D01*
X132341166Y-104699273D01*
X132278746Y-104730665D01*
X132209262Y-104723327D01*
X132154777Y-104679588D01*
X132132588Y-104613335D01*
X132132500Y-104608677D01*
X132132500Y-103124003D01*
X157944435Y-103124003D01*
X157964630Y-103303249D01*
X157964631Y-103303254D01*
X158024211Y-103473523D01*
X158055406Y-103523169D01*
X158120184Y-103626262D01*
X158247738Y-103753816D01*
X158400478Y-103849789D01*
X158570745Y-103909368D01*
X158570750Y-103909369D01*
X158749996Y-103929565D01*
X158750000Y-103929565D01*
X158750004Y-103929565D01*
X158929249Y-103909369D01*
X158929252Y-103909368D01*
X158929255Y-103909368D01*
X159099522Y-103849789D01*
X159252262Y-103753816D01*
X159379816Y-103626262D01*
X159475789Y-103473522D01*
X159535368Y-103303255D01*
X159555565Y-103124000D01*
X159535368Y-102944745D01*
X159475789Y-102774478D01*
X159379816Y-102621738D01*
X159252262Y-102494184D01*
X159099523Y-102398211D01*
X158929254Y-102338631D01*
X158929249Y-102338630D01*
X158750004Y-102318435D01*
X158749996Y-102318435D01*
X158570750Y-102338630D01*
X158570745Y-102338631D01*
X158400476Y-102398211D01*
X158247737Y-102494184D01*
X158120184Y-102621737D01*
X158024211Y-102774476D01*
X157964631Y-102944745D01*
X157964630Y-102944750D01*
X157944435Y-103123996D01*
X157944435Y-103124003D01*
X132132500Y-103124003D01*
X132132500Y-100053322D01*
X132152185Y-99986283D01*
X132204989Y-99940528D01*
X132274147Y-99930584D01*
X132337703Y-99959609D01*
X132375477Y-100018387D01*
X132376706Y-100022882D01*
X132433936Y-100248881D01*
X132533826Y-100476606D01*
X132669833Y-100684782D01*
X132669836Y-100684785D01*
X132838256Y-100867738D01*
X133034491Y-101020474D01*
X133253190Y-101138828D01*
X133488386Y-101219571D01*
X133733665Y-101260500D01*
X133982335Y-101260500D01*
X134227614Y-101219571D01*
X134462810Y-101138828D01*
X134681509Y-101020474D01*
X134877744Y-100867738D01*
X135046164Y-100684785D01*
X135182173Y-100476607D01*
X135282063Y-100248881D01*
X135343108Y-100007821D01*
X135355467Y-99858669D01*
X135363643Y-99760005D01*
X135363643Y-99759994D01*
X135343109Y-99512187D01*
X135343107Y-99512175D01*
X135282063Y-99271118D01*
X135189458Y-99060002D01*
X136496723Y-99060002D01*
X136515793Y-99277975D01*
X136515793Y-99277979D01*
X136572422Y-99489322D01*
X136572424Y-99489326D01*
X136572425Y-99489330D01*
X136615324Y-99581327D01*
X136664897Y-99687638D01*
X136664898Y-99687639D01*
X136790402Y-99866877D01*
X136945123Y-100021598D01*
X137124361Y-100147102D01*
X137322670Y-100239575D01*
X137534023Y-100296207D01*
X137716926Y-100312208D01*
X137751998Y-100315277D01*
X137752000Y-100315277D01*
X137752002Y-100315277D01*
X137780254Y-100312805D01*
X137969977Y-100296207D01*
X138181330Y-100239575D01*
X138379639Y-100147102D01*
X138558877Y-100021598D01*
X138713598Y-99866877D01*
X138839102Y-99687639D01*
X138931575Y-99489330D01*
X138988207Y-99277977D01*
X139007277Y-99060000D01*
X138988207Y-98842023D01*
X138931575Y-98630670D01*
X138839102Y-98432362D01*
X138839100Y-98432359D01*
X138839099Y-98432357D01*
X138713599Y-98253124D01*
X138642520Y-98182045D01*
X138558877Y-98098402D01*
X138379639Y-97972898D01*
X138379640Y-97972898D01*
X138379638Y-97972897D01*
X138222888Y-97899804D01*
X138181330Y-97880425D01*
X138181326Y-97880424D01*
X138181322Y-97880422D01*
X137969977Y-97823793D01*
X137752002Y-97804723D01*
X137751998Y-97804723D01*
X137606682Y-97817436D01*
X137534023Y-97823793D01*
X137534020Y-97823793D01*
X137322677Y-97880422D01*
X137322668Y-97880426D01*
X137124361Y-97972898D01*
X137124357Y-97972900D01*
X136945121Y-98098402D01*
X136790402Y-98253121D01*
X136664900Y-98432357D01*
X136664898Y-98432361D01*
X136572426Y-98630668D01*
X136572422Y-98630677D01*
X136515793Y-98842020D01*
X136515793Y-98842024D01*
X136496723Y-99059997D01*
X136496723Y-99060002D01*
X135189458Y-99060002D01*
X135182173Y-99043393D01*
X135046166Y-98835217D01*
X135024557Y-98811744D01*
X134877744Y-98652262D01*
X134794991Y-98587852D01*
X134754179Y-98531143D01*
X134750504Y-98461370D01*
X134785136Y-98400687D01*
X134794985Y-98392151D01*
X134877744Y-98327738D01*
X135046164Y-98144785D01*
X135182173Y-97936607D01*
X135282063Y-97708881D01*
X135343108Y-97467821D01*
X135349508Y-97390584D01*
X135363643Y-97220005D01*
X135363643Y-97219994D01*
X135343109Y-96972187D01*
X135343107Y-96972175D01*
X135282063Y-96731118D01*
X135182173Y-96503393D01*
X135046166Y-96295217D01*
X135018721Y-96265404D01*
X134877744Y-96112262D01*
X134794991Y-96047852D01*
X134754179Y-95991143D01*
X134750504Y-95921370D01*
X134785136Y-95860687D01*
X134794985Y-95852151D01*
X134877744Y-95787738D01*
X135046164Y-95604785D01*
X135182173Y-95396607D01*
X135282063Y-95168881D01*
X135343108Y-94927821D01*
X135356569Y-94765369D01*
X135363643Y-94680005D01*
X135363643Y-94679994D01*
X135343109Y-94432187D01*
X135343107Y-94432175D01*
X135282063Y-94191118D01*
X135182173Y-93963393D01*
X135046166Y-93755217D01*
X135024557Y-93731744D01*
X134877744Y-93572262D01*
X134681509Y-93419526D01*
X134681507Y-93419525D01*
X134681506Y-93419524D01*
X134462811Y-93301172D01*
X134462802Y-93301169D01*
X134227616Y-93220429D01*
X133982335Y-93179500D01*
X133733665Y-93179500D01*
X133488383Y-93220429D01*
X133253197Y-93301169D01*
X133253188Y-93301172D01*
X133034493Y-93419524D01*
X132838257Y-93572261D01*
X132669833Y-93755217D01*
X132533826Y-93963393D01*
X132433936Y-94191118D01*
X132376706Y-94417117D01*
X132341166Y-94477273D01*
X132278746Y-94508665D01*
X132209262Y-94501327D01*
X132154777Y-94457588D01*
X132132588Y-94391335D01*
X132132500Y-94386677D01*
X132132500Y-91310000D01*
X132152185Y-91242961D01*
X132204989Y-91197206D01*
X132256500Y-91186000D01*
X136600638Y-91186000D01*
X136667677Y-91205685D01*
X136688319Y-91222319D01*
X137991884Y-92525884D01*
X138025369Y-92587207D01*
X138020385Y-92656899D01*
X137978513Y-92712832D01*
X137913049Y-92737249D01*
X137893396Y-92737093D01*
X137752002Y-92724723D01*
X137751998Y-92724723D01*
X137610606Y-92737093D01*
X137534023Y-92743793D01*
X137534020Y-92743793D01*
X137322677Y-92800422D01*
X137322668Y-92800426D01*
X137124361Y-92892898D01*
X137124357Y-92892900D01*
X136945121Y-93018402D01*
X136790402Y-93173121D01*
X136664900Y-93352357D01*
X136664898Y-93352361D01*
X136572426Y-93550668D01*
X136572422Y-93550677D01*
X136515793Y-93762020D01*
X136515793Y-93762024D01*
X136496723Y-93979997D01*
X136496723Y-93980002D01*
X136515793Y-94197975D01*
X136515793Y-94197979D01*
X136572422Y-94409322D01*
X136572424Y-94409326D01*
X136572425Y-94409330D01*
X136606434Y-94482262D01*
X136664897Y-94607638D01*
X136666422Y-94609816D01*
X136790402Y-94786877D01*
X136945123Y-94941598D01*
X137124361Y-95067102D01*
X137322670Y-95159575D01*
X137534023Y-95216207D01*
X137716926Y-95232208D01*
X137751998Y-95235277D01*
X137752000Y-95235277D01*
X137752002Y-95235277D01*
X137780254Y-95232805D01*
X137969977Y-95216207D01*
X138181330Y-95159575D01*
X138379639Y-95067102D01*
X138558877Y-94941598D01*
X138713598Y-94786877D01*
X138839102Y-94607639D01*
X138931575Y-94409330D01*
X138988207Y-94197977D01*
X139004805Y-94008254D01*
X139007277Y-93980002D01*
X139007277Y-93979999D01*
X139005824Y-93963393D01*
X138994906Y-93838601D01*
X139008672Y-93770104D01*
X139057287Y-93719921D01*
X139125316Y-93703987D01*
X139191160Y-93727362D01*
X139206115Y-93740115D01*
X139409681Y-93943681D01*
X139443166Y-94005004D01*
X139446000Y-94031362D01*
X139446000Y-102362000D01*
X150622000Y-102362000D01*
X150622000Y-101600000D01*
X140332000Y-101600000D01*
X140264961Y-101580315D01*
X140219206Y-101527511D01*
X140208000Y-101476000D01*
X140208000Y-100226953D01*
X150680542Y-100226953D01*
X150700328Y-100415209D01*
X150700329Y-100415212D01*
X150758820Y-100595230D01*
X150758823Y-100595237D01*
X150853469Y-100759169D01*
X150951225Y-100867738D01*
X150980131Y-100899841D01*
X151133267Y-101011101D01*
X151133272Y-101011104D01*
X151306194Y-101088095D01*
X151306199Y-101088097D01*
X151491356Y-101127453D01*
X151491357Y-101127453D01*
X151680646Y-101127453D01*
X151680648Y-101127453D01*
X151865805Y-101088097D01*
X152038732Y-101011104D01*
X152191873Y-100899841D01*
X152318535Y-100759169D01*
X152413181Y-100595237D01*
X152416832Y-100584000D01*
X154034540Y-100584000D01*
X154054326Y-100772256D01*
X154054327Y-100772259D01*
X154112818Y-100952277D01*
X154112821Y-100952284D01*
X154207467Y-101116216D01*
X154300528Y-101219570D01*
X154334129Y-101256888D01*
X154487265Y-101368148D01*
X154487270Y-101368151D01*
X154660192Y-101445142D01*
X154660197Y-101445144D01*
X154845354Y-101484500D01*
X154845355Y-101484500D01*
X155034644Y-101484500D01*
X155034646Y-101484500D01*
X155219803Y-101445144D01*
X155392730Y-101368151D01*
X155545871Y-101256888D01*
X155672533Y-101116216D01*
X155767179Y-100952284D01*
X155825674Y-100772256D01*
X155844120Y-100596745D01*
X161869500Y-100596745D01*
X161884767Y-100766390D01*
X161945221Y-100985442D01*
X161945227Y-100985457D01*
X162043824Y-101190196D01*
X162043828Y-101190204D01*
X162177399Y-101374049D01*
X162177405Y-101374057D01*
X162284030Y-101476000D01*
X162341662Y-101531102D01*
X162416217Y-101580315D01*
X162531319Y-101656294D01*
X162531321Y-101656295D01*
X162531323Y-101656296D01*
X162740289Y-101745612D01*
X162961846Y-101796181D01*
X163188871Y-101806377D01*
X163414068Y-101775872D01*
X163630200Y-101705646D01*
X163830319Y-101597958D01*
X164007993Y-101456267D01*
X164157512Y-101285128D01*
X164274071Y-101090042D01*
X164353922Y-100877279D01*
X164372981Y-100772256D01*
X164394500Y-100653680D01*
X164394500Y-98959356D01*
X164394500Y-98959351D01*
X164379232Y-98789711D01*
X164379232Y-98789709D01*
X164318778Y-98570657D01*
X164318775Y-98570651D01*
X164318774Y-98570646D01*
X164317218Y-98567416D01*
X164316950Y-98565790D01*
X164316819Y-98565439D01*
X164316888Y-98565412D01*
X164305863Y-98498478D01*
X164333582Y-98434342D01*
X164391575Y-98395373D01*
X164461430Y-98393944D01*
X164472503Y-98397516D01*
X164497180Y-98406778D01*
X164590821Y-98441922D01*
X164814419Y-98482500D01*
X164814423Y-98482500D01*
X166508743Y-98482500D01*
X166508749Y-98482500D01*
X166667860Y-98468179D01*
X166678390Y-98467232D01*
X166897442Y-98406778D01*
X166897447Y-98406775D01*
X166897454Y-98406774D01*
X167102203Y-98308172D01*
X167286055Y-98174596D01*
X167443102Y-98010338D01*
X167568296Y-97820677D01*
X167657612Y-97611711D01*
X167708181Y-97390154D01*
X167718377Y-97163129D01*
X167687872Y-96937932D01*
X167617646Y-96721800D01*
X167509958Y-96521681D01*
X167424884Y-96415002D01*
X167368267Y-96344006D01*
X167197134Y-96194493D01*
X167197132Y-96194491D01*
X167197128Y-96194488D01*
X167148356Y-96165348D01*
X167002048Y-96077932D01*
X167002045Y-96077930D01*
X167002042Y-96077929D01*
X166888140Y-96035181D01*
X166789278Y-95998077D01*
X166565681Y-95957500D01*
X166565677Y-95957500D01*
X164871351Y-95957500D01*
X164839764Y-95960342D01*
X164701709Y-95972767D01*
X164482657Y-96033221D01*
X164482645Y-96033226D01*
X164479407Y-96034786D01*
X164477776Y-96035054D01*
X164477439Y-96035181D01*
X164477413Y-96035114D01*
X164410466Y-96046135D01*
X164346332Y-96018409D01*
X164307370Y-95960412D01*
X164305948Y-95890557D01*
X164309514Y-95879502D01*
X164353922Y-95761179D01*
X164370153Y-95671738D01*
X164394500Y-95537580D01*
X164394500Y-93843256D01*
X164394500Y-93843251D01*
X164379232Y-93673611D01*
X164379232Y-93673609D01*
X164318778Y-93454557D01*
X164318772Y-93454542D01*
X164220175Y-93249803D01*
X164220171Y-93249795D01*
X164086600Y-93065950D01*
X164086594Y-93065942D01*
X163922339Y-92908899D01*
X163922338Y-92908898D01*
X163821057Y-92842043D01*
X163732680Y-92783705D01*
X163639300Y-92743793D01*
X163523711Y-92694388D01*
X163523704Y-92694386D01*
X163523700Y-92694385D01*
X163302159Y-92643820D01*
X163302155Y-92643819D01*
X163302154Y-92643819D01*
X163302153Y-92643818D01*
X163302148Y-92643818D01*
X163075132Y-92633623D01*
X163075131Y-92633623D01*
X163075129Y-92633623D01*
X162986158Y-92645675D01*
X162849929Y-92664128D01*
X162633797Y-92734355D01*
X162433679Y-92842043D01*
X162256006Y-92983732D01*
X162106493Y-93154865D01*
X162106487Y-93154873D01*
X161989932Y-93349951D01*
X161989930Y-93349956D01*
X161910077Y-93562721D01*
X161910077Y-93562722D01*
X161869500Y-93786319D01*
X161869500Y-95480645D01*
X161884767Y-95650290D01*
X161945221Y-95869342D01*
X161945227Y-95869357D01*
X162043824Y-96074096D01*
X162043828Y-96074104D01*
X162177399Y-96257949D01*
X162177405Y-96257957D01*
X162267406Y-96344006D01*
X162341662Y-96415002D01*
X162439322Y-96479467D01*
X162531319Y-96540194D01*
X162531321Y-96540195D01*
X162531323Y-96540196D01*
X162740289Y-96629512D01*
X162961846Y-96680081D01*
X163188871Y-96690277D01*
X163414068Y-96659772D01*
X163596241Y-96600579D01*
X163666079Y-96598585D01*
X163725912Y-96634665D01*
X163756741Y-96697365D01*
X163748777Y-96766780D01*
X163748579Y-96767245D01*
X163722489Y-96828286D01*
X163722485Y-96828299D01*
X163671920Y-97049840D01*
X163671918Y-97049851D01*
X163666831Y-97163129D01*
X163661723Y-97276871D01*
X163692228Y-97502068D01*
X163692229Y-97502071D01*
X163751419Y-97684239D01*
X163753414Y-97754080D01*
X163717334Y-97813913D01*
X163654633Y-97844741D01*
X163585219Y-97836776D01*
X163584754Y-97836579D01*
X163523711Y-97810488D01*
X163523706Y-97810486D01*
X163523700Y-97810485D01*
X163302159Y-97759920D01*
X163302155Y-97759919D01*
X163302154Y-97759919D01*
X163302153Y-97759918D01*
X163302148Y-97759918D01*
X163075132Y-97749723D01*
X163075131Y-97749723D01*
X163075129Y-97749723D01*
X162962530Y-97764975D01*
X162849929Y-97780228D01*
X162633797Y-97850455D01*
X162433679Y-97958143D01*
X162256006Y-98099832D01*
X162106493Y-98270965D01*
X162106487Y-98270973D01*
X161989932Y-98466051D01*
X161989929Y-98466056D01*
X161989929Y-98466058D01*
X161977762Y-98498478D01*
X161910077Y-98678821D01*
X161910077Y-98678822D01*
X161869500Y-98902419D01*
X161869500Y-100596745D01*
X155844120Y-100596745D01*
X155845460Y-100584000D01*
X155825674Y-100395744D01*
X155767179Y-100215716D01*
X155672533Y-100051784D01*
X155545871Y-99911112D01*
X155545870Y-99911111D01*
X155392734Y-99799851D01*
X155392729Y-99799848D01*
X155219807Y-99722857D01*
X155219802Y-99722855D01*
X155074001Y-99691865D01*
X155034646Y-99683500D01*
X154845354Y-99683500D01*
X154812897Y-99690398D01*
X154660197Y-99722855D01*
X154660192Y-99722857D01*
X154487270Y-99799848D01*
X154487265Y-99799851D01*
X154334129Y-99911111D01*
X154207466Y-100051785D01*
X154112821Y-100215715D01*
X154112818Y-100215722D01*
X154080471Y-100315277D01*
X154054326Y-100395744D01*
X154034540Y-100584000D01*
X152416832Y-100584000D01*
X152471676Y-100415209D01*
X152491462Y-100226953D01*
X152471676Y-100038697D01*
X152413181Y-99858669D01*
X152318535Y-99694737D01*
X152191873Y-99554065D01*
X152191872Y-99554064D01*
X152038736Y-99442804D01*
X152038731Y-99442801D01*
X151865809Y-99365810D01*
X151865804Y-99365808D01*
X151720003Y-99334818D01*
X151680648Y-99326453D01*
X151491356Y-99326453D01*
X151458899Y-99333351D01*
X151306199Y-99365808D01*
X151306194Y-99365810D01*
X151133272Y-99442801D01*
X151133267Y-99442804D01*
X150980131Y-99554064D01*
X150853468Y-99694738D01*
X150758823Y-99858668D01*
X150758820Y-99858675D01*
X150700329Y-100038693D01*
X150700328Y-100038697D01*
X150680542Y-100226953D01*
X140208000Y-100226953D01*
X140208000Y-95758003D01*
X142069435Y-95758003D01*
X142089630Y-95937249D01*
X142089631Y-95937254D01*
X142149211Y-96107523D01*
X142243731Y-96257949D01*
X142245184Y-96260262D01*
X142372738Y-96387816D01*
X142463080Y-96444582D01*
X142522404Y-96481858D01*
X142525478Y-96483789D01*
X142633767Y-96521681D01*
X142695745Y-96543368D01*
X142695750Y-96543369D01*
X142874996Y-96563565D01*
X142875000Y-96563565D01*
X142875004Y-96563565D01*
X143054249Y-96543369D01*
X143054252Y-96543368D01*
X143054255Y-96543368D01*
X143224522Y-96483789D01*
X143377262Y-96387816D01*
X143504816Y-96260262D01*
X143600789Y-96107522D01*
X143660368Y-95937255D01*
X143665630Y-95890557D01*
X143680565Y-95758003D01*
X143680565Y-95757996D01*
X143660369Y-95578750D01*
X143660368Y-95578745D01*
X143600788Y-95408476D01*
X143504815Y-95255737D01*
X143377262Y-95128184D01*
X143224523Y-95032211D01*
X143054254Y-94972631D01*
X143054249Y-94972630D01*
X142875004Y-94952435D01*
X142874996Y-94952435D01*
X142695750Y-94972630D01*
X142695745Y-94972631D01*
X142525476Y-95032211D01*
X142372737Y-95128184D01*
X142245184Y-95255737D01*
X142149211Y-95408476D01*
X142089631Y-95578745D01*
X142089630Y-95578750D01*
X142069435Y-95757996D01*
X142069435Y-95758003D01*
X140208000Y-95758003D01*
X140208000Y-93980003D01*
X146768435Y-93980003D01*
X146788630Y-94159249D01*
X146788631Y-94159254D01*
X146848211Y-94329523D01*
X146912712Y-94432175D01*
X146944184Y-94482262D01*
X147071738Y-94609816D01*
X147162080Y-94666582D01*
X147183425Y-94679994D01*
X147224478Y-94705789D01*
X147394745Y-94765368D01*
X147394750Y-94765369D01*
X147573996Y-94785565D01*
X147574000Y-94785565D01*
X147574004Y-94785565D01*
X147753249Y-94765369D01*
X147753252Y-94765368D01*
X147753255Y-94765368D01*
X147923522Y-94705789D01*
X148076262Y-94609816D01*
X148203816Y-94482262D01*
X148299789Y-94329522D01*
X148359368Y-94159255D01*
X148379565Y-93980000D01*
X148366551Y-93864500D01*
X148359369Y-93800750D01*
X148359368Y-93800745D01*
X148299789Y-93630478D01*
X148203816Y-93477738D01*
X148076262Y-93350184D01*
X148075891Y-93349951D01*
X147923523Y-93254211D01*
X147753254Y-93194631D01*
X147753249Y-93194630D01*
X147574004Y-93174435D01*
X147573996Y-93174435D01*
X147394750Y-93194630D01*
X147394745Y-93194631D01*
X147224476Y-93254211D01*
X147071737Y-93350184D01*
X146944184Y-93477737D01*
X146848211Y-93630476D01*
X146788631Y-93800745D01*
X146788630Y-93800750D01*
X146768435Y-93979996D01*
X146768435Y-93980003D01*
X140208000Y-93980003D01*
X140208000Y-93809097D01*
X140227685Y-93742058D01*
X140280489Y-93696303D01*
X140349647Y-93686359D01*
X140372955Y-93692056D01*
X140536737Y-93749366D01*
X140536743Y-93749367D01*
X140536745Y-93749368D01*
X140536746Y-93749368D01*
X140536750Y-93749369D01*
X140715996Y-93769565D01*
X140716000Y-93769565D01*
X140716004Y-93769565D01*
X140895249Y-93749369D01*
X140895252Y-93749368D01*
X140895255Y-93749368D01*
X141065522Y-93689789D01*
X141218262Y-93593816D01*
X141345816Y-93466262D01*
X141441789Y-93313522D01*
X141501368Y-93143255D01*
X141504760Y-93113151D01*
X141521565Y-92964003D01*
X141521565Y-92963996D01*
X141501369Y-92784750D01*
X141501368Y-92784745D01*
X141480365Y-92724723D01*
X141441789Y-92614478D01*
X141429999Y-92595715D01*
X141358386Y-92481743D01*
X141345816Y-92461738D01*
X141218262Y-92334184D01*
X141166588Y-92301715D01*
X141065523Y-92238211D01*
X140895254Y-92178631D01*
X140895249Y-92178630D01*
X140716004Y-92158435D01*
X140715996Y-92158435D01*
X140536750Y-92178630D01*
X140536745Y-92178631D01*
X140366476Y-92238211D01*
X140213737Y-92334184D01*
X140086184Y-92461737D01*
X139990211Y-92614476D01*
X139930631Y-92784745D01*
X139930630Y-92784750D01*
X139910435Y-92963996D01*
X139910435Y-92964003D01*
X139929731Y-93135266D01*
X139917676Y-93204088D01*
X139870327Y-93255467D01*
X139802717Y-93273091D01*
X139736311Y-93251364D01*
X139718830Y-93236830D01*
X137414000Y-90932000D01*
X143578299Y-90932000D01*
X143598085Y-91120256D01*
X143598086Y-91120258D01*
X143598086Y-91120259D01*
X143656577Y-91300277D01*
X143656580Y-91300284D01*
X143751226Y-91464216D01*
X143856598Y-91581243D01*
X143877888Y-91604888D01*
X144031024Y-91716148D01*
X144031029Y-91716151D01*
X144203951Y-91793142D01*
X144203956Y-91793144D01*
X144389113Y-91832500D01*
X144389114Y-91832500D01*
X144578403Y-91832500D01*
X144578405Y-91832500D01*
X144763562Y-91793144D01*
X144909128Y-91728332D01*
X144978378Y-91719048D01*
X145041654Y-91748676D01*
X145078868Y-91807810D01*
X145078203Y-91877677D01*
X145077495Y-91879930D01*
X145062785Y-91925203D01*
X145042999Y-92113459D01*
X145062785Y-92301715D01*
X145062786Y-92301718D01*
X145121277Y-92481736D01*
X145121280Y-92481743D01*
X145215926Y-92645675D01*
X145298380Y-92737249D01*
X145342588Y-92786347D01*
X145495724Y-92897607D01*
X145495729Y-92897610D01*
X145668651Y-92974601D01*
X145668656Y-92974603D01*
X145853813Y-93013959D01*
X145853814Y-93013959D01*
X146043103Y-93013959D01*
X146043105Y-93013959D01*
X146228262Y-92974603D01*
X146252076Y-92964000D01*
X152764540Y-92964000D01*
X152784326Y-93152256D01*
X152784327Y-93152259D01*
X152842818Y-93332277D01*
X152842821Y-93332284D01*
X152937467Y-93496216D01*
X153025346Y-93593815D01*
X153064129Y-93636888D01*
X153217265Y-93748148D01*
X153217270Y-93748151D01*
X153390192Y-93825142D01*
X153390197Y-93825144D01*
X153575354Y-93864500D01*
X153575355Y-93864500D01*
X153764644Y-93864500D01*
X153764646Y-93864500D01*
X153949803Y-93825144D01*
X154122730Y-93748151D01*
X154275871Y-93636888D01*
X154402533Y-93496216D01*
X154497179Y-93332284D01*
X154555674Y-93152256D01*
X154575460Y-92964000D01*
X154555674Y-92775744D01*
X154497179Y-92595716D01*
X154402533Y-92431784D01*
X154309986Y-92329000D01*
X160257540Y-92329000D01*
X160277326Y-92517256D01*
X160277327Y-92517259D01*
X160335818Y-92697277D01*
X160335821Y-92697284D01*
X160430467Y-92861216D01*
X160540781Y-92983732D01*
X160557129Y-93001888D01*
X160710265Y-93113148D01*
X160710270Y-93113151D01*
X160883192Y-93190142D01*
X160883197Y-93190144D01*
X161068354Y-93229500D01*
X161068355Y-93229500D01*
X161257644Y-93229500D01*
X161257646Y-93229500D01*
X161442803Y-93190144D01*
X161615730Y-93113151D01*
X161768871Y-93001888D01*
X161895533Y-92861216D01*
X161990179Y-92697284D01*
X162048674Y-92517256D01*
X162068460Y-92329000D01*
X162048674Y-92140744D01*
X161990179Y-91960716D01*
X161895533Y-91796784D01*
X161768871Y-91656112D01*
X161768870Y-91656111D01*
X161615734Y-91544851D01*
X161615729Y-91544848D01*
X161442807Y-91467857D01*
X161442802Y-91467855D01*
X161297001Y-91436865D01*
X161257646Y-91428500D01*
X161068354Y-91428500D01*
X161035897Y-91435398D01*
X160883197Y-91467855D01*
X160883192Y-91467857D01*
X160710270Y-91544848D01*
X160710265Y-91544851D01*
X160557129Y-91656111D01*
X160430466Y-91796785D01*
X160335821Y-91960715D01*
X160335818Y-91960722D01*
X160289636Y-92102857D01*
X160277326Y-92140744D01*
X160257540Y-92329000D01*
X154309986Y-92329000D01*
X154275871Y-92291112D01*
X154275870Y-92291111D01*
X154122734Y-92179851D01*
X154122729Y-92179848D01*
X153949807Y-92102857D01*
X153949802Y-92102855D01*
X153804001Y-92071865D01*
X153764646Y-92063500D01*
X153575354Y-92063500D01*
X153542897Y-92070398D01*
X153390197Y-92102855D01*
X153390192Y-92102857D01*
X153217270Y-92179848D01*
X153217265Y-92179851D01*
X153064129Y-92291111D01*
X152937466Y-92431785D01*
X152842821Y-92595715D01*
X152842818Y-92595722D01*
X152784327Y-92775740D01*
X152784326Y-92775744D01*
X152764540Y-92964000D01*
X146252076Y-92964000D01*
X146401189Y-92897610D01*
X146554330Y-92786347D01*
X146680992Y-92645675D01*
X146775638Y-92481743D01*
X146834133Y-92301715D01*
X146853919Y-92113459D01*
X146834133Y-91925203D01*
X146775638Y-91745175D01*
X146680992Y-91581243D01*
X146554330Y-91440571D01*
X146537716Y-91428500D01*
X146401193Y-91329310D01*
X146401188Y-91329307D01*
X146228266Y-91252316D01*
X146228261Y-91252314D01*
X146082460Y-91221324D01*
X146043105Y-91212959D01*
X145853813Y-91212959D01*
X145821356Y-91219857D01*
X145668656Y-91252314D01*
X145523088Y-91317126D01*
X145453838Y-91326410D01*
X145390562Y-91296782D01*
X145353349Y-91237647D01*
X145354014Y-91167780D01*
X145354689Y-91165631D01*
X145369433Y-91120256D01*
X145389219Y-90932000D01*
X145369433Y-90743744D01*
X145310938Y-90563716D01*
X145216292Y-90399784D01*
X145089630Y-90259112D01*
X145089629Y-90259111D01*
X144936493Y-90147851D01*
X144936488Y-90147848D01*
X144763566Y-90070857D01*
X144763561Y-90070855D01*
X144617760Y-90039865D01*
X144578405Y-90031500D01*
X144389113Y-90031500D01*
X144356656Y-90038398D01*
X144203956Y-90070855D01*
X144203951Y-90070857D01*
X144031029Y-90147848D01*
X144031024Y-90147851D01*
X143877888Y-90259111D01*
X143751225Y-90399785D01*
X143656580Y-90563715D01*
X143656577Y-90563722D01*
X143598086Y-90743740D01*
X143598085Y-90743744D01*
X143578299Y-90932000D01*
X137414000Y-90932000D01*
X136906000Y-90424000D01*
X132256500Y-90424000D01*
X132189461Y-90404315D01*
X132143706Y-90351511D01*
X132132500Y-90300000D01*
X132132500Y-89662000D01*
X155558540Y-89662000D01*
X155578326Y-89850256D01*
X155578327Y-89850259D01*
X155636818Y-90030277D01*
X155636821Y-90030284D01*
X155731467Y-90194216D01*
X155789899Y-90259111D01*
X155858129Y-90334888D01*
X156011265Y-90446148D01*
X156011270Y-90446151D01*
X156184192Y-90523142D01*
X156184197Y-90523144D01*
X156369354Y-90562500D01*
X156369355Y-90562500D01*
X156558644Y-90562500D01*
X156558646Y-90562500D01*
X156743803Y-90523144D01*
X156916730Y-90446151D01*
X157069871Y-90334888D01*
X157196533Y-90194216D01*
X157291179Y-90030284D01*
X157349674Y-89850256D01*
X157369460Y-89662000D01*
X157349674Y-89473744D01*
X157291179Y-89293716D01*
X157196533Y-89129784D01*
X157069871Y-88989112D01*
X157069870Y-88989111D01*
X156916734Y-88877851D01*
X156916729Y-88877848D01*
X156743807Y-88800857D01*
X156743802Y-88800855D01*
X156598001Y-88769865D01*
X156558646Y-88761500D01*
X156369354Y-88761500D01*
X156336897Y-88768398D01*
X156184197Y-88800855D01*
X156184192Y-88800857D01*
X156011270Y-88877848D01*
X156011265Y-88877851D01*
X155858129Y-88989111D01*
X155731466Y-89129785D01*
X155636821Y-89293715D01*
X155636818Y-89293722D01*
X155578327Y-89473740D01*
X155578326Y-89473744D01*
X155558540Y-89662000D01*
X132132500Y-89662000D01*
X132132500Y-87630003D01*
X139402435Y-87630003D01*
X139422630Y-87809249D01*
X139422631Y-87809254D01*
X139482211Y-87979523D01*
X139521769Y-88042478D01*
X139578184Y-88132262D01*
X139705738Y-88259816D01*
X139858478Y-88355789D01*
X139961952Y-88391996D01*
X140028745Y-88415368D01*
X140028750Y-88415369D01*
X140207996Y-88435565D01*
X140208000Y-88435565D01*
X140208004Y-88435565D01*
X140387249Y-88415369D01*
X140387252Y-88415368D01*
X140387255Y-88415368D01*
X140454028Y-88392003D01*
X151848435Y-88392003D01*
X151868630Y-88571249D01*
X151868631Y-88571254D01*
X151928211Y-88741523D01*
X152013870Y-88877848D01*
X152024184Y-88894262D01*
X152151738Y-89021816D01*
X152304478Y-89117789D01*
X152338758Y-89129784D01*
X152474745Y-89177368D01*
X152474750Y-89177369D01*
X152653996Y-89197565D01*
X152654000Y-89197565D01*
X152654004Y-89197565D01*
X152833249Y-89177369D01*
X152833252Y-89177368D01*
X152833255Y-89177368D01*
X153003522Y-89117789D01*
X153156262Y-89021816D01*
X153283816Y-88894262D01*
X153379789Y-88741522D01*
X153439368Y-88571255D01*
X153439369Y-88571249D01*
X153459565Y-88392003D01*
X153459565Y-88391996D01*
X153439369Y-88212750D01*
X153439368Y-88212745D01*
X153379788Y-88042476D01*
X153283815Y-87889737D01*
X153156262Y-87762184D01*
X153003523Y-87666211D01*
X152833254Y-87606631D01*
X152833249Y-87606630D01*
X152654004Y-87586435D01*
X152653996Y-87586435D01*
X152474750Y-87606630D01*
X152474745Y-87606631D01*
X152304476Y-87666211D01*
X152151737Y-87762184D01*
X152024184Y-87889737D01*
X151928211Y-88042476D01*
X151868631Y-88212745D01*
X151868630Y-88212750D01*
X151848435Y-88391996D01*
X151848435Y-88392003D01*
X140454028Y-88392003D01*
X140557522Y-88355789D01*
X140710262Y-88259816D01*
X140837816Y-88132262D01*
X140933789Y-87979522D01*
X140993368Y-87809255D01*
X141013565Y-87630000D01*
X141010932Y-87606632D01*
X140993369Y-87450750D01*
X140993368Y-87450745D01*
X140963880Y-87366474D01*
X140933789Y-87280478D01*
X140837816Y-87127738D01*
X140710262Y-87000184D01*
X140645893Y-86959738D01*
X140557523Y-86904211D01*
X140387254Y-86844631D01*
X140387249Y-86844630D01*
X140208004Y-86824435D01*
X140207996Y-86824435D01*
X140028750Y-86844630D01*
X140028745Y-86844631D01*
X139858476Y-86904211D01*
X139705737Y-87000184D01*
X139578184Y-87127737D01*
X139482211Y-87280476D01*
X139422631Y-87450745D01*
X139422630Y-87450750D01*
X139402435Y-87629996D01*
X139402435Y-87630003D01*
X132132500Y-87630003D01*
X132132500Y-86590411D01*
X132152185Y-86523372D01*
X132204989Y-86477617D01*
X132274147Y-86467673D01*
X132337703Y-86496698D01*
X132375477Y-86555476D01*
X132376275Y-86558318D01*
X132405258Y-86666488D01*
X132405261Y-86666497D01*
X132501431Y-86872732D01*
X132501432Y-86872734D01*
X132631954Y-87059141D01*
X132792858Y-87220045D01*
X132808258Y-87230828D01*
X132979266Y-87350568D01*
X133185504Y-87446739D01*
X133185509Y-87446740D01*
X133185511Y-87446741D01*
X133200473Y-87450750D01*
X133405308Y-87505635D01*
X133575214Y-87520499D01*
X133575215Y-87520500D01*
X133575216Y-87520500D01*
X133688785Y-87520500D01*
X133688785Y-87520499D01*
X133858692Y-87505635D01*
X134078496Y-87446739D01*
X134284734Y-87350568D01*
X134471139Y-87220047D01*
X134632047Y-87059139D01*
X134762568Y-86872734D01*
X134858739Y-86666496D01*
X134917635Y-86446692D01*
X134937468Y-86220000D01*
X134917635Y-85993308D01*
X134858739Y-85773504D01*
X134762568Y-85567266D01*
X134632047Y-85380861D01*
X134632045Y-85380858D01*
X134471141Y-85219954D01*
X134284734Y-85089432D01*
X134284732Y-85089431D01*
X134078497Y-84993261D01*
X134078488Y-84993258D01*
X133970319Y-84964275D01*
X133910658Y-84927910D01*
X133880129Y-84865063D01*
X133888424Y-84795688D01*
X133932909Y-84741810D01*
X133999461Y-84720535D01*
X134002412Y-84720500D01*
X136641439Y-84720500D01*
X136708478Y-84740185D01*
G37*
G04 #@! TD.AperFunction*
M02*
